<svg width="95" height="94" xmlns="http://www.w3.org/2000/svg" xmlns:xlink="http://www.w3.org/1999/xlink" xml:space="preserve" overflow="hidden"><g transform="translate(-685 -66)"><path d="M62.3972 15.04 18.8 15.04C16.732 15.04 15.04 16.732 15.04 18.8L15.04 75.2C15.04 77.268 16.732 78.96 18.8 78.96L75.2 78.96C77.268 78.96 78.96 77.268 78.96 75.2L78.96 31.6028C78.96 30.6064 78.5652 29.6476 77.8508 28.952L65.048 16.1492C64.3336 15.4348 63.3936 15.04 62.3972 15.04Z" fill="#00D15F" transform="matrix(1.01064 0 0 1 685 66)"/><path d="M66.5332 52.3204 66.5332 52.3204C65.424 51.7 64.8412 50.5344 64.9352 49.3124 64.9728 48.8612 64.9916 48.3912 64.9916 47.94 64.9916 47.4888 64.9916 47.0188 64.9352 46.5676 64.8412 45.3456 65.424 44.18 66.5332 43.5596 68.0748 42.6948 68.6012 40.796 67.7176 39.292L65.1232 34.968C64.2208 33.4828 62.2468 32.9564 60.7052 33.8212L60.7052 33.8212C59.6148 34.4416 58.2612 34.3476 57.2084 33.652 56.4188 33.1256 55.6104 32.6744 54.7456 32.2796 53.5988 31.7532 52.8468 30.6628 52.8468 29.4408L52.8468 29.4408C52.8468 27.7112 51.3992 26.3012 49.6132 26.3012L44.4244 26.3012C42.6384 26.3012 41.1908 27.6924 41.1908 29.422L41.1908 29.422C41.1908 30.6628 40.4388 31.7344 39.292 32.2608 38.4272 32.6556 37.6 33.1256 36.8292 33.6332 35.7764 34.3288 34.4228 34.4228 33.3324 33.8024L33.3324 33.8024C31.7908 32.9376 29.798 33.4452 28.9144 34.9304L26.32 39.2544C25.4176 40.7396 25.9628 42.6572 27.5044 43.522 28.6136 44.1424 29.1964 45.308 29.1024 46.53 29.0648 46.9812 29.046 47.4512 29.046 47.9024 29.046 48.3536 29.0648 48.8236 29.1024 49.2748 29.1964 50.4968 28.6136 51.6624 27.5044 52.2828 25.9628 53.1476 25.4364 55.0464 26.32 56.5504L28.9144 60.8744C29.8168 62.3596 31.7908 62.886 33.3324 62.0212L33.3324 62.0212C34.4228 61.4008 35.7764 61.4948 36.8292 62.1904 37.6188 62.7168 38.4272 63.168 39.292 63.5628 40.4388 64.0892 41.1908 65.1796 41.1908 66.4016L41.1908 66.4016C41.1908 68.1312 42.6384 69.5412 44.4244 69.5412L49.6132 69.5412C51.3992 69.5412 52.8468 68.15 52.8468 66.4204L52.8468 66.4204C52.8468 65.1796 53.5988 64.108 54.7456 63.5816 55.6104 63.1868 56.4376 62.7168 57.2084 62.2092 58.2612 61.5136 59.6148 61.4196 60.7052 62.04L60.7052 62.04C62.2468 62.9048 64.2396 62.3972 65.1232 60.912L67.7176 56.588C68.62 55.1028 68.0748 53.1852 66.5332 52.3204ZM47 57.34C41.8112 57.34 37.6 53.1288 37.6 47.94 37.6 42.7512 41.8112 38.54 47 38.54 52.1888 38.54 56.4 42.7512 56.4 47.94 56.4 53.1288 52.1888 57.34 47 57.34Z" stroke="#FFFFFF" stroke-width="2.82" stroke-miterlimit="10" fill="none" transform="matrix(1.01064 0 0 1 685 66)"/></g></svg>