<svg width="95" height="94" xmlns="http://www.w3.org/2000/svg" xmlns:xlink="http://www.w3.org/1999/xlink" xml:space="preserve" overflow="hidden"><g transform="translate(-887 -496)"><path d="M62.3972 15.04 18.8 15.04C16.732 15.04 15.04 16.732 15.04 18.8L15.04 75.2C15.04 77.268 16.732 78.96 18.8 78.96L75.2 78.96C77.268 78.96 78.96 77.268 78.96 75.2L78.96 31.6028C78.96 30.6064 78.5652 29.6476 77.8508 28.952L65.048 16.1492C64.3336 15.4348 63.3936 15.04 62.3972 15.04Z" fill="#00D15F" transform="matrix(1.01064 0 0 1 887 496)"/><path d="M45.2516 49.0116 45.2516 31.02C35.3252 31.02 27.26 39.0664 27.26 49.0116 27.26 58.9568 35.3064 67.0032 45.2516 67.0032 55.1968 67.0032 63.2432 58.9568 63.2432 49.0116L45.2516 49.0116Z" fill="#FFFFFF" transform="matrix(1.01064 0 0 1 887 496)"/><path d="M48.5792 45.4208 64.86 45.4208C64.86 36.4344 57.5656 29.14 48.5792 29.14L48.5792 45.4208Z" stroke="#FFFFFF" stroke-width="2.82" stroke-miterlimit="10" fill="#00D15F" transform="matrix(1.01064 0 0 1 887 496)"/></g></svg>