<svg width="95" height="94" xmlns="http://www.w3.org/2000/svg" xmlns:xlink="http://www.w3.org/1999/xlink" xml:space="preserve" overflow="hidden"><g transform="translate(-1098 -495)"><path d="M75.2 15.04C77.2766 15.04 78.96 16.7234 78.96 18.8L78.96 75.2C78.96 77.2766 77.2766 78.96 75.2 78.96L18.8 78.96C16.7234 78.96 15.04 77.2766 15.04 75.2L15.04 18.8C15.04 16.7234 16.7234 15.04 18.8 15.04Z" fill="#00D15F" transform="matrix(1.01064 0 0 1 1098 495)"/><path d="M67.68 27.26 67.68 68.62 39.48 68.62 39.48 27.26 67.68 27.26M67.68 24.44 39.48 24.44C37.9196 24.44 36.66 25.6996 36.66 27.26L36.66 68.62C36.66 70.1804 37.9196 71.44 39.48 71.44L67.68 71.44C69.2404 71.44 70.5 70.1804 70.5 68.62L70.5 27.26C70.5 25.6996 69.2404 24.44 67.68 24.44L67.68 24.44Z" fill="#FFFFFF" transform="matrix(1.01064 0 0 1 1098 495)"/><path d="M59.22 33.84 59.22 33.84C59.22 32.806 60.066 31.96 61.1 31.96L61.1 31.96C62.134 31.96 62.98 32.806 62.98 33.84L62.98 33.84C62.98 34.874 62.134 35.72 61.1 35.72L61.1 35.72C60.066 35.72 59.22 34.874 59.22 33.84Z" fill="#FFFFFF" transform="matrix(1.01064 0 0 1 1098 495)"/><path d="M46.06 31.96 46.06 31.96C47.094 31.96 47.94 32.806 47.94 33.84L47.94 33.84C47.94 34.874 47.094 35.72 46.06 35.72L46.06 35.72C45.026 35.72 44.18 34.874 44.18 33.84L44.18 33.84C44.18 32.806 45.026 31.96 46.06 31.96Z" fill="#FFFFFF" transform="matrix(1.01064 0 0 1 1098 495)"/><path d="M60.16 43.24 62.04 43.24 62.04 63.92 60.16 63.92Z" fill="#FFFFFF" transform="matrix(1.01064 0 0 1 1098 495)"/><path d="M52.64 26.8652 54.52 26.8652 54.52 69.56 52.64 69.56Z" fill="#FFFFFF" transform="matrix(1.01064 0 0 1 1098 495)"/><path d="M45.12 43.24 47 43.24 47 63.92 45.12 63.92Z" fill="#FFFFFF" transform="matrix(1.01064 0 0 1 1098 495)"/><path d="M25.38 71.44 39.48 71.44 39.48 24.44 25.38 24.44C23.8196 24.44 22.56 25.6996 22.56 27.26L22.56 68.62C22.56 70.1804 23.8196 71.44 25.38 71.44Z" fill="#FFFFFF" transform="matrix(1.01064 0 0 1 1098 495)"/><path d="M31.02 31.96 31.02 31.96C32.5804 31.96 33.84 33.2196 33.84 34.78L33.84 34.78C33.84 36.3404 32.5804 37.6 31.02 37.6L31.02 37.6C29.4596 37.6 28.2 36.3404 28.2 34.78L28.2 34.78C28.2 33.2196 29.4596 31.96 31.02 31.96Z" fill="#00D15F" transform="matrix(1.01064 0 0 1 1098 495)"/></g></svg>