<svg xmlns="http://www.w3.org/2000/svg" xmlns:xlink="http://www.w3.org/1999/xlink" width="72.2001px" height="67.68px" xml:space="preserve" overflow="hidden" viewBox="13.3 14.1 72.2001 67.68"><g transform="translate(-482 -66)"><path d="M60.5172 14.1 16.92 14.1C14.852 14.1 13.16 15.792 13.16 17.86L13.16 74.26C13.16 76.328 14.852 78.02 16.92 78.02L73.32 78.02C75.388 78.02 77.08 76.328 77.08 74.26L77.08 30.6628C77.08 29.6664 76.6852 28.7076 75.9708 28.012L63.168 15.2092C62.4536 14.4948 61.5136 14.1 60.5172 14.1Z" fill="#C9000E" transform="matrix(1.01064 0 0 1 482 66)"/><path d="M23.03 54.52 23.03 33.3324C23.03 31.5464 24.5152 30.08 26.32 30.08L58.4304 30.08C59.314 30.08 60.1224 30.4184 60.7428 31.02L66.2324 36.4156C66.8528 37.036 67.21 37.8444 67.21 38.728L67.21 54.52C67.21 54.52 23.03 54.52 23.03 54.52Z" fill="#002D50" transform="matrix(1.01064 0 0 1 482 66)"/><path d="M58.4304 31.49C58.938 31.49 59.408 31.678 59.7652 32.0352L65.2548 37.4308C65.612 37.7692 65.8 38.2392 65.8 38.728L65.8 53.11 24.44 53.11 24.44 33.3324C24.44 32.3172 25.286 31.49 26.32 31.49L58.4304 31.49M58.4304 28.67 26.32 28.67C23.7256 28.67 21.62 30.7568 21.62 33.3324L21.62 55.93 68.62 55.93 68.62 38.728C68.62 37.4872 68.1124 36.284 67.2288 35.4192L61.7392 30.0236C60.8556 29.1588 59.6712 28.67 58.4304 28.67L58.4304 28.67Z" fill="#FFFFFF" transform="matrix(1.01064 0 0 1 482 66)"/><path d="M26.32 62.04C24.5152 62.04 23.03 60.5548 23.03 58.75L23.03 54.5012 67.21 54.5012 67.21 58.75C67.21 60.5548 65.7248 62.04 63.92 62.04L26.32 62.04Z" fill="#002D50" transform="matrix(1.01064 0 0 1 482 66)"/><path d="M65.8 55.9112 65.8 58.75C65.8 59.784 64.954 60.63 63.92 60.63L26.32 60.63C25.286 60.63 24.44 59.784 24.44 58.75L24.44 55.9112 65.8 55.9112M68.62 53.0912 21.62 53.0912 21.62 58.75C21.62 61.3444 23.7256 63.45 26.32 63.45L63.92 63.45C66.5144 63.45 68.62 61.3444 68.62 58.75L68.62 53.0912 68.62 53.0912Z" fill="#FFFFFF" transform="matrix(1.01064 0 0 1 482 66)"/><path d="M39.95 44.7252C39.95 47.0095 38.1235 48.8612 35.8704 48.8612 33.6173 48.8612 31.7908 47.0095 31.7908 44.7252 31.7908 42.441 33.6173 40.5892 35.8704 40.5892 38.1235 40.5892 39.95 42.441 39.95 44.7252Z" stroke="#FFFFFF" stroke-width="2.82" stroke-miterlimit="10" fill="none" transform="matrix(1.01064 0 0 1 482 66)"/><path d="M58.468 44.7252C58.468 47.0095 56.6415 48.8612 54.3884 48.8612 52.1353 48.8612 50.3088 47.0095 50.3088 44.7252 50.3088 42.441 52.1353 40.5892 54.3884 40.5892 56.6415 40.5892 58.468 42.441 58.468 44.7252Z" stroke="#FFFFFF" stroke-width="2.82" stroke-miterlimit="10" fill="none" transform="matrix(1.01064 0 0 1 482 66)"/><path d="M35.5884 40.608 54.6516 40.608" stroke="#FFFFFF" stroke-width="2.82" stroke-miterlimit="10" fill="none" transform="matrix(1.01064 0 0 1 482 66)"/><path d="M69.56 80.84C61.7768 80.84 55.46 74.5044 55.46 66.74 55.46 58.9756 61.7768 52.64 69.56 52.64 77.3432 52.64 83.66 58.9568 83.66 66.74 83.66 74.5232 77.3432 80.84 69.56 80.84Z" fill="#FFFFFF" transform="matrix(1.01064 0 0 1 482 66)"/><path d="M69.56 53.58C76.8168 53.58 82.72 59.4832 82.72 66.74 82.72 73.9968 76.8168 79.9 69.56 79.9 62.3032 79.9 56.4 73.9968 56.4 66.74 56.4 59.4832 62.3032 53.58 69.56 53.58M69.56 51.7C61.2504 51.7 54.52 58.4304 54.52 66.74 54.52 75.0496 61.2504 81.78 69.56 81.78 77.8696 81.78 84.6 75.0496 84.6 66.74 84.6 58.4304 77.8696 51.7 69.56 51.7L69.56 51.7Z" fill="#C9000E" transform="matrix(1.01064 0 0 1 482 66)"/><path d="M62.04 65.8 68.62 72.38 78.02 62.98" stroke="#C9000E" stroke-width="1.88" stroke-miterlimit="10" fill="none" transform="matrix(1.01064 0 0 1 482 66)"/></g></svg>