<?xml version="1.0" encoding="UTF-8"?>
<svg id="Veeam_product_1" data-name="Veeam product 1" xmlns="http://www.w3.org/2000/svg" viewBox="0 0 50 50">
  <defs>
    <style>
      .cls-1 {
        opacity: 0;
      }

      .cls-1, .cls-2, .cls-3 {
        stroke-width: 0px;
      }

      .cls-1, .cls-3 {
        fill: #fff;
      }

      .cls-2 {
        fill: #00d15f;
      }
    </style>
  </defs>
  <rect id="BG" class="cls-1" width="50" height="50"/>
  <path class="cls-2" d="M33.19,8H10c-1.1,0-2,.9-2,2v30c0,1.1.9,2,2,2h30c1.1,0,2-.9,2-2v-23.19c0-.53-.21-1.04-.59-1.41l-6.81-6.81c-.38-.38-.88-.59-1.41-.59Z"/>
  <g>
    <path class="cls-3" d="M30.06,19.42c-.02-.16-.07-.45-.13-.68-.72-2.88-3.29-4.9-6.23-4.9-1.84,0-3.61.82-4.85,2.25-.32.37-1.35,1.72-1.25,3.68,0,.06,0,.13.01.2,0,.02,0,.04,0,.06,0,.06.01.12.02.18v.07c.02.06.03.12.04.18l.05.25s.01.05.02.09c.01.06.03.12.05.17,0,.03.02.05.03.1v.04s.04.09.05.13l.04.09c.04.1.07.19.12.29l.12.26c.02.05.05.1.08.15l.07.12c.03.05.06.11.09.16.02.04.05.08.08.12.02.04.05.07.07.11l.11.17c.04.06.08.11.12.17.03.04.06.08.08.12.04.06.09.12.14.17.03.04.06.07.08.11.06.07.12.14.17.2l.02.03s.03.04.04.05c.09.1.17.19.27.29l.73.73c.27.26.56.55.89.88l.03.03s.07.07.11.11l.16.15c1.07,1.04,2.27,2.2,3.13,3.03h-5.98v1.59h8.72v-8.72h-1.59v6.04c-1.29-1.24-3.94-3.79-5.07-4.94-2.87-2.91-.9-5.34-.67-5.6.94-1.08,2.27-1.7,3.65-1.7,2.22,0,4.14,1.52,4.69,3.7.06.25.13.75.14.9l.05.43.39.19s.18.09.27.13c2.34,1.23,3.67,3.38,3.67,5.9,0,.51-.05,1.02-.16,1.52l-.03.15h1.62l.02-.1c.1-.52.14-1.05.14-1.57,0-3.1-1.62-5.75-4.45-7.27Z"/>
    <path class="cls-3" d="M26.45,33.88c-.1,0-.21.03-.31.03h-6.46c-2.88,0-5.22-2.34-5.22-5.22,0-2.01,1.18-3.86,3.02-4.72l.14-.06-.09-.12c-.27-.38-.5-.76-.69-1.13l-.06-.11-.11.05c-2.3,1.15-3.79,3.54-3.79,6.1,0,3.73,3.04,6.78,6.77,6.8h6.5c.1,0,.21-.02.31-.02v-1.59Z"/>
  </g>
  <g>
    <rect class="cls-3" x="28" y="30" width="9.5" height="8" rx="1" ry="1"/>
    <g>
      <circle class="cls-2" cx="31" cy="32.93" r="1.04"/>
      <path class="cls-2" d="M32.62,36.13c.24,0,.4-.24.31-.47-.31-.77-1.06-1.3-1.94-1.3s-1.63.54-1.94,1.3c-.09.22.07.47.31.47h3.24Z"/>
    </g>
    <rect class="cls-2" x="32.94" y="31.96" width="4.02" height=".83" rx=".41" ry=".41"/>
    <rect class="cls-2" x="33.71" y="33.45" width="3.24" height=".83" rx=".41" ry=".41"/>
  </g>
</svg>