<svg width="95" height="94" xmlns="http://www.w3.org/2000/svg" xmlns:xlink="http://www.w3.org/1999/xlink" xml:space="preserve" overflow="hidden"><g transform="translate(-73 -66)"><path d="M62.3972 15.0024 18.7624 15.0024C16.6944 15.0024 15.0024 16.6944 15.0024 18.7624L15.0024 75.2C15.0024 77.268 16.6944 78.96 18.7624 78.96L75.2 78.96C77.268 78.96 78.96 77.268 78.96 75.2L78.96 31.584C78.96 30.5876 78.5652 29.6288 77.8508 28.9332L65.048 16.1304C64.3336 15.416 63.3936 15.0212 62.3972 15.0212L62.3972 15.0212Z" fill="#00D15F" transform="matrix(1.01064 0 0 1 73 66)"/><path d="M63.5816 51.9256 63.5816 63.262 53.4108 53.0912 51.042 55.46 61.2128 65.6308 49.8764 65.6308 49.8764 68.996 63.5816 68.996 66.9468 68.996 66.9468 65.6308 66.9468 51.9256 63.5816 51.9256Z" fill="#FFFFFF" transform="matrix(1.01064 0 0 1 73 66)"/><path d="M38.6528 26.7148 38.6528 38.0512 28.482 27.8804 26.1132 30.2492 36.284 40.42 24.9476 40.42 24.9476 43.7852 38.6528 43.7852 42.018 43.7852 42.018 40.42 42.018 26.7148 38.6528 26.7148Z" fill="#FFFFFF" transform="matrix(1.01064 0 0 1 73 66)"/><path d="M46.5488 35.3252 46.5488 48.2596 59.596 48.2596 59.596 35.3252 46.5488 35.3252ZM56.494 45.214 49.6508 45.214 49.6508 38.3708 56.494 38.3708 56.494 45.214Z" fill="#FFFFFF" transform="matrix(1.01064 0 0 1 73 66)"/><path d="M33.276 48.41 33.276 61.3632 46.3232 61.3632 46.3232 48.41 33.276 48.41ZM43.2212 58.2988 36.378 58.2988 36.378 51.4556 43.2212 51.4556 43.2212 58.2988Z" fill="#FFFFFF" transform="matrix(1.01064 0 0 1 73 66)"/><path d="M46.9436 66.646 46.9436 65.6496 28.388 65.6496 28.388 47.7332 24.9476 47.7332 24.9476 65.988C24.9476 66.552 24.9852 67.0032 25.0416 67.398L25.0416 67.5108 25.0416 67.5108C25.2484 68.5448 25.7936 68.8832 27.1284 68.9584L27.8992 68.9584C27.8992 68.9584 46.9436 68.9584 46.9436 68.9584L46.9436 66.6084 46.9248 66.6084 46.9436 66.6084Z" fill="#FFFFFF" transform="matrix(1.01064 0 0 1 73 66)"/><path d="M63.9764 26.7148 44.932 26.7148 44.932 26.7524 44.9132 26.7524 44.9132 29.1024 44.932 29.1024 44.932 30.0988 63.4876 30.0988 63.4876 48.3348 66.9468 48.3348 66.9468 29.7228C66.9468 27.2224 66.5332 26.7148 63.9764 26.7336L63.9764 26.7336Z" fill="#FFFFFF" transform="matrix(1.01064 0 0 1 73 66)"/></g></svg>