<?xml version="1.0" encoding="UTF-8"?>
<svg id="Data_Center" data-name="Data Center" xmlns="http://www.w3.org/2000/svg" viewBox="0 0 50 50">
  <defs>
    <style>
      .cls-1 {
        fill: #00cf5f;
      }

      .cls-1, .cls-2, .cls-3, .cls-4, .cls-5 {
        stroke-width: 0px;
      }

      .cls-2 {
        fill: #00d15f;
      }

      .cls-3 {
        opacity: 0;
      }

      .cls-3, .cls-4, .cls-5 {
        fill: #fff;
      }

      .cls-4 {
        fill-rule: evenodd;
      }
    </style>
  </defs>
  <g id="Veeam_Explorer_for_SAP_Hana" data-name="Veeam Explorer for SAP Hana">
    <g id="Sap_Hana" data-name="Sap Hana">
      <rect id="BG" class="cls-3" width="50" height="50"/>
      <g>
        <path class="cls-1" d="M33.19,8H10c-1.1,0-2,.9-2,2v30c0,1.1.9,2,2,2h30c1.1,0,2-.9,2-2v-23.19c0-.53-.21-1.04-.59-1.41l-6.81-6.81c-.38-.38-.88-.59-1.41-.59Z"/>
        <g>
          <g>
            <g>
              <path class="cls-5" d="M25.88,21.74v1.34h1.54v-1.34h.42v3.19h-.42v-1.5h-1.54v1.5h-.41v-3.19h.41Z"/>
              <path class="cls-5" d="M27.93,25.02h-.59v-1.5h-1.37v1.5h-.59v-3.37h.59v1.34h1.37v-1.34h.59v3.37ZM27.51,24.84h.24v-3.01h-.24v1.34h-1.72v-1.34h-.23v3.01h.23v-1.5h1.72v1.5Z"/>
            </g>
            <g>
              <path class="cls-5" d="M29.07,23.93l-.33,1h-.43l1.08-3.19h.5l1.09,3.19h-.44l-.34-1h-1.13ZM30.12,23.61l-.31-.92c-.07-.21-.12-.4-.17-.58h0c-.05.19-.1.38-.16.58l-.31.92h.96Z"/>
              <path class="cls-5" d="M31.11,25.02h-.63l-.34-1h-1l-.33,1h-.61l1.14-3.37h.62l1.15,3.37ZM30.61,24.84h.25l-1.03-3.01h-.37l-1.02,3.01h.24l.33-1h1.26l.34,1ZM30.24,23.7h-1.21l.35-1.04c.05-.17.1-.35.16-.57l.02-.07h.14l.04.1c.04.17.09.35.15.54l.35,1.04ZM29.28,23.52h.71l-.27-.8c-.03-.1-.06-.19-.09-.28-.03.1-.05.19-.08.27l-.27.81Z"/>
            </g>
            <g>
              <path class="cls-5" d="M31.45,24.93v-3.19h.45l1.02,1.61c.24.37.42.71.57,1.04h0c-.04-.43-.05-.82-.05-1.32v-1.34h.39v3.19h-.42l-1.01-1.62c-.22-.36-.44-.72-.6-1.07h-.01c.02.41.03.79.03,1.32v1.36h-.39Z"/>
              <path class="cls-5" d="M33.94,25.02h-.56l-1.04-1.66c-.17-.27-.31-.51-.43-.73.01.28.01.57.01.94v1.45h-.57v-3.37h.59l1.05,1.66c.15.23.28.45.39.67-.01-.29-.02-.58-.02-.9v-1.42h.57v3.37ZM33.48,24.84h.28v-3.01h-.21v1.25c0,.46,0,.86.05,1.3v.06s-.13.07-.13.07l-.05-.08c-.15-.33-.34-.66-.57-1.03l-1-1.57h-.31v3.01h.21v-1.27c0-.54,0-.92-.03-1.31v-.07s.14-.04.14-.04l.05.07c.14.3.33.63.59,1.06l.99,1.58Z"/>
            </g>
            <g>
              <path class="cls-5" d="M35.08,23.93l-.33,1h-.43l1.08-3.19h.5l1.09,3.19h-.44l-.34-1h-1.13ZM36.13,23.61l-.31-.92c-.07-.21-.12-.4-.17-.58h0c-.05.19-.1.38-.16.58l-.31.92h.96Z"/>
              <path class="cls-5" d="M37.12,25.02h-.63l-.34-1h-1l-.33,1h-.61l1.14-3.37h.62l1.15,3.37ZM36.62,24.84h.25l-1.03-3.01h-.37l-1.02,3.01h.24l.33-1h1.26l.34,1ZM36.26,23.7h-1.21l.35-1.04c.05-.17.1-.35.16-.57l.02-.07h.14l.04.1c.04.17.09.35.15.54l.35,1.04ZM35.29,23.52h.71l-.27-.8c-.03-.1-.06-.19-.09-.28-.03.1-.05.19-.08.27l-.27.81Z"/>
            </g>
          </g>
          <g>
            <path class="cls-4" d="M11.76,19.09v7.88l8-.07,7.52-7.8h-15.51ZM21.45,23.63h-.47v1.41h-2.18l-.22-.67c-.23.08-.49.12-.77.12s-.55-.04-.78-.12l-.22.68h-1.33l.15-.39s-.04.03-.05.05c-.33.27-.75.41-1.26.42h-.08c-.59,0-1.17-.16-1.66-.44l.45-.9c.49.29.8.36,1.22.35.22,0,.37-.04.47-.15.06-.06.09-.14.1-.23,0-.23-.33-.34-.74-.47-.33-.1-.71-.24-1-.46-.35-.26-.51-.57-.5-1.03,0-.33.13-.62.35-.86.32-.33.84-.54,1.47-.54h0c.54,0,1.19.15,1.66.39l-.51.89c-.52-.25-.78-.27-1.07-.29-.44-.02-.66.13-.66.3,0,.21.41.39.81.52.6.19,1.36.45,1.48,1.18l1.1-2.92h1.27l1.28,3.49v-3.49h1.47c1.4,0,2.06.5,2.06,1.59,0,.98-.68,1.56-1.83,1.56Z"/>
            <path class="cls-4" d="M21.3,21.44h-.32v1.18h.32c.43,0,.77-.14.77-.6s-.34-.59-.77-.59Z"/>
            <path class="cls-4" d="M17.81,21.91l-.47,1.47c.14.05.3.08.47.08s.32-.03.46-.08l-.46-1.47h0Z"/>
          </g>
          <path class="cls-5" d="M38.51,27.22H11.51v-8.5h27v8.5ZM12.01,26.72h26v-7.5H12.01v7.5Z"/>
        </g>
        <g>
          <path class="cls-2" d="M32.64,26.75c3.04,0,5.5,2.46,5.5,5.5s-2.46,5.5-5.5,5.5-5.5-2.46-5.5-5.5,2.46-5.5,5.5-5.5M32.64,25.25c-3.86,0-7,3.14-7,7s3.14,7,7,7,7-3.14,7-7-3.14-7-7-7h0Z"/>
          <rect class="cls-5" x="37.14" y="35.03" width="1.5" height="4.95" transform="translate(-15.42 37.78) rotate(-45)"/>
          <circle class="cls-2" cx="32.64" cy="32.25" r="4.75"/>
          <path class="cls-5" d="M32.64,28.25c2.21,0,4,1.79,4,4s-1.79,4-4,4-4-1.79-4-4,1.79-4,4-4M32.64,26.75c-3.04,0-5.5,2.46-5.5,5.5s2.46,5.5,5.5,5.5,5.5-2.46,5.5-5.5-2.46-5.5-5.5-5.5h0Z"/>
        </g>
      </g>
    </g>
  </g>
</svg>