<?xml version="1.0" encoding="UTF-8"?><svg xmlns="http://www.w3.org/2000/svg" viewBox="0 0 50 50"><defs><style>.cls-1{fill:none;stroke:#fff;stroke-miterlimit:10;stroke-width:1.5px;}.cls-2{opacity:0;}.cls-2,.cls-3{fill:#fff;}.cls-2,.cls-3,.cls-4{stroke-width:0px;}.cls-4{fill:#00d15f;}</style></defs><g id="OLS_ICONS"><rect class="cls-3" x="-558.72" y="-33.85" width="1406" height="815.5" rx="30" ry="30"/></g><g id="Veeam_product_1"><g id="Veeam_ONE"><rect id="BG" class="cls-2" width="50" height="50"/><path class="cls-4" d="M33.19,8H10c-1.1,0-2,.9-2,2v30c0,1.1.9,2,2,2h30c1.1,0,2-.9,2-2v-23.19c0-.53-.21-1.04-.59-1.41l-6.81-6.81c-.38-.38-.88-.59-1.41-.59Z"/><polyline class="cls-1" points="12.5 24 21 16 25.5 21 33 14 37.21 17.39"/><rect class="cls-3" x="30" y="28" width="6.5" height="9"/><rect class="cls-3" x="21.5" y="24" width="7" height="13"/><rect class="cls-3" x="13" y="31.5" width="7" height="5.5"/></g></g></svg>