<?xml version="1.0" encoding="UTF-8"?>
<svg id="Layer_2" data-name="Layer 2" xmlns="http://www.w3.org/2000/svg" viewBox="0 0 50 50">
  <defs>
    <style>
      .cls-1 {
        fill: #00d15f;
      }

      .cls-1, .cls-2 {
        stroke-width: 0px;
      }

      .cls-2 {
        fill: #fff;
      }

      .cls-3 {
        opacity: 0;
      }
    </style>
  </defs>
  <g id="Veeam_product_1" data-name="Veeam product 1">
    <g id="Veeam_Vault" data-name="Veeam Vault">
      <path class="cls-1" d="M33.19,8H10c-1.1,0-2,.9-2,2v30c0,1.1.9,2,2,2h30c1.1,0,2-.9,2-2v-23.19c0-.53-.21-1.04-.59-1.41l-6.81-6.81c-.38-.38-.88-.59-1.41-.59Z"/>
      <g id="BG" class="cls-3">
        <rect class="cls-2" width="50" height="50"/>
      </g>
      <path class="cls-2" d="M29.93,25.73c0-1.09-.37-2.09-.96-2.9l1.49-1.49-1.06-1.06-1.49,1.49c-.82-.6-1.81-.96-2.9-.96s-2.09.36-2.9.96l-1.49-1.49-1.06,1.06,1.49,1.49c-.6.82-.96,1.81-.96,2.9s.37,2.09.96,2.9l-1.49,1.49,1.06,1.06,1.49-1.49c.82.6,1.81.96,2.9.96s2.09-.36,2.9-.96l1.49,1.49,1.06-1.06-1.49-1.49c.6-.82.96-1.81.96-2.9Z"/>
      <circle class="cls-1" cx="25" cy="25.73" r="1.5"/>
      <g>
        <path class="cls-2" d="M36.22,22.61h-1.5v-6.17c0-.25-.2-.44-.44-.44h-6.17v-1.5h6.17c1.07,0,1.94.87,1.94,1.94v6.17Z"/>
        <path class="cls-2" d="M34.28,36.95h-6.17v-1.5h6.17c.24,0,.44-.2.44-.44v-6.17h1.5v6.17c0,1.07-.87,1.94-1.94,1.94Z"/>
      </g>
      <g>
        <path class="cls-2" d="M15.28,22.61h-1.5v-6.17c0-1.07.87-1.94,1.94-1.94h6.17v1.5h-6.17c-.24,0-.44.2-.44.44v6.17Z"/>
        <path class="cls-2" d="M21.89,36.95h-6.17c-1.07,0-1.94-.87-1.94-1.94v-6.17h1.5v6.17c0,.25.2.44.44.44h6.17v1.5Z"/>
      </g>
    </g>
  </g>
</svg>