<?xml version="1.0" encoding="UTF-8"?>
<svg id="Veeam_product_3" data-name="Veeam product 3" xmlns="http://www.w3.org/2000/svg" viewBox="0 0 50 50">
  <defs>
    <style>
      .cls-1 {
        fill: none;
        stroke: #fff;
        stroke-miterlimit: 10;
        stroke-width: 1.5px;
      }

      .cls-2 {
        opacity: 0;
      }

      .cls-2, .cls-3, .cls-4 {
        stroke-width: 0px;
      }

      .cls-2, .cls-4 {
        fill: #fff;
      }

      .cls-3 {
        fill: #00d15f;
      }
    </style>
  </defs>
  <g id="Veeam_Plug-in_for_Oracle_RMAN" data-name="Veeam Plug-in for Oracle RMAN">
    <rect id="BG" class="cls-2" x="0" width="50" height="50"/>
    <path class="cls-3" d="M33.19,8H10c-1.1,0-2,.9-2,2v30c0,1.1.9,2,2,2h30c1.1,0,2-.9,2-2v-23.19c0-.53-.21-1.04-.59-1.41l-6.81-6.81c-.38-.38-.88-.59-1.41-.59Z"/>
    <g>
      <g>
        <path class="cls-4" d="M23.6,15.22c.12-.19.38-.27.59-.19.1.04.18.1.24.19.69,1.08,1.38,2.17,2.08,3.25-.26,0-.52,0-.78,0-.12-.2-.24-.4-.37-.61-.59,0-1.19,0-1.79,0-.13-.2-.26-.4-.39-.61.59,0,1.17,0,1.76,0-.31-.5-.62-1-.93-1.5-.57.9-1.14,1.81-1.71,2.72-.26,0-.52,0-.78,0,.69-1.09,1.38-2.17,2.08-3.25h0Z"/>
        <path class="cls-4" d="M17.45,15.03c.86,0,1.72,0,2.58,0,.19,0,.39-.01.58.03.26.06.5.21.66.42.13.17.21.38.24.59.03.28-.04.56-.2.79-.2.29-.53.47-.88.49-.12,0-.25,0-.37,0,.44.37.88.74,1.33,1.12-.32,0-.64,0-.96,0-.66-.57-1.31-1.15-1.97-1.72.62,0,1.23,0,1.85,0,.12,0,.24-.03.33-.1.13-.09.22-.25.23-.41.01-.14-.03-.29-.13-.41-.1-.12-.26-.2-.42-.2-.73,0-1.46,0-2.19,0v2.83c-.22,0-.44,0-.66,0,0-1.15,0-2.29,0-3.44h0Z"/>
        <path class="cls-4" d="M26.93,15.32c.29-.2.65-.29,1-.29.77,0,1.55,0,2.32,0-.13.2-.26.4-.39.61-.64,0-1.29,0-1.93,0-.39,0-.78.22-.97.56-.14.23-.18.52-.13.79.08.4.39.73.78.84.18.06.37.04.56.04.71,0,1.42,0,2.13,0-.13.2-.26.41-.39.61-.6,0-1.19,0-1.78,0-.18,0-.37,0-.55-.03-.46-.08-.89-.36-1.14-.76-.24-.37-.33-.84-.24-1.28.09-.44.36-.85.74-1.1h0Z"/>
        <path class="cls-4" d="M30.6,15.03c.22,0,.44,0,.66,0,0,.94,0,1.89,0,2.83,1.03,0,2.05,0,3.08,0-.13.2-.26.4-.39.61-1,0-2,0-3.01,0-.13,0-.26-.08-.31-.2-.03-.06-.03-.13-.03-.19,0-1.02,0-2.03,0-3.05h0Z"/>
        <path class="cls-4" d="M35.17,15.2c.17-.08.34-.13.53-.15.13-.02.26-.01.39-.01.73,0,1.46,0,2.19,0-.09.14-.18.28-.27.42-.04.06-.08.13-.13.19-.65,0-1.29,0-1.94,0-.24,0-.48.08-.67.23-.19.14-.32.35-.39.58,1.07,0,2.14,0,3.21,0-.13.2-.26.4-.39.61-.94,0-1.88,0-2.82,0,.06.23.2.43.39.58.19.15.44.23.68.23.79,0,1.58,0,2.38,0-.13.2-.26.4-.39.61h-1.77c-.19,0-.39,0-.58-.03-.48-.09-.91-.39-1.16-.81-.26-.43-.32-.99-.14-1.47.15-.42.47-.78.88-.97h0Z"/>
        <path class="cls-4" d="M13.15,15.05c.1-.01.21-.02.31-.02.64,0,1.28,0,1.93,0,.39,0,.78.14,1.08.39.32.26.54.64.61,1.05.07.4-.01.83-.23,1.18-.23.38-.62.66-1.05.77-.15.04-.31.05-.47.05-.65,0-1.3,0-1.95,0-.4,0-.79-.15-1.09-.4-.34-.29-.57-.72-.6-1.16-.04-.4.07-.81.31-1.14.27-.38.7-.65,1.17-.71h0ZM13.26,15.65c-.36.05-.68.29-.84.62-.13.27-.14.6-.03.88.08.22.24.4.43.53.18.12.39.18.61.18.64,0,1.27,0,1.91,0,.24,0,.47-.08.66-.22.19-.14.33-.35.4-.58.07-.23.06-.49-.03-.71-.09-.22-.24-.41-.44-.54-.18-.11-.38-.17-.59-.17h-1.91c-.06,0-.11,0-.17.01h0Z"/>
      </g>
      <g>
        <path class="cls-4" d="M15.34,21.03h1.49c1.03,0,1.56.43,1.56,1.31,0,.63-.31.96-.81,1.16v.03l1.12,1.97h-.87l-1-1.81h-.7v1.81h-.79v-4.47ZM16.75,23.14c.59,0,.83-.25.83-.77s-.25-.73-.83-.73h-.61v1.5h.62Z"/>
        <path class="cls-4" d="M19.85,21.03h1.11l1.1,3.4h.02l1.1-3.4h1.1v4.47h-.78v-3.49h-.03l-1.14,3.49h-.65l-1.13-3.5h-.02v3.5h-.69v-4.47Z"/>
        <path class="cls-4" d="M27.02,21.03h.81l1.59,4.47h-.81l-.41-1.15h-1.67l-.4,1.15h-.72l1.61-4.47ZM26.73,23.77h1.27l-.63-1.8h-.02l-.62,1.8Z"/>
        <path class="cls-4" d="M30.54,21.03h.89l1.87,3.19h.02v-3.19h.7v4.47h-.78l-1.98-3.4h-.02v3.4h-.7v-4.47Z"/>
      </g>
    </g>
    <g>
      <line class="cls-1" x1="24.79" y1="33.01" x2="40.5" y2="33.01"/>
      <line class="cls-1" x1="9.5" y1="33.01" x2="20.07" y2="33.01"/>
      <circle class="cls-4" cx="24.79" cy="33.01" r="2.36"/>
      <path class="cls-1" d="M28.33,36.55c-1.96,1.96-5.13,1.96-7.08,0-1.96-1.96-1.96-5.13,0-7.08s5.13-1.96,7.08,0"/>
    </g>
  </g>
</svg>