<?xml version="1.0" encoding="UTF-8"?>
<svg id="Veeam_product_3" data-name="Veeam product 3" xmlns="http://www.w3.org/2000/svg" viewBox="0 0 50 50">
  <defs>
    <style>
      .cls-1 {
        fill: none;
        stroke: #fff;
      }

      .cls-1, .cls-2 {
        stroke-miterlimit: 10;
        stroke-width: 1.5px;
      }

      .cls-3 {
        opacity: 0;
      }

      .cls-3, .cls-2, .cls-4 {
        fill: #fff;
      }

      .cls-3, .cls-5, .cls-4 {
        stroke-width: 0px;
      }

      .cls-2 {
        stroke: #00d15f;
      }

      .cls-5 {
        fill: #00d15f;
      }
    </style>
  </defs>
  <g id="Veeam_Explorer_for_Active_Directory" data-name="Veeam Explorer for Active Directory">
    <rect id="BG" class="cls-3" width="50" height="50"/>
    <path class="cls-5" d="M33.19,8H10c-1.1,0-2,.9-2,2v30c0,1.1.9,2,2,2h30c1.1,0,2-.9,2-2v-23.19c0-.53-.21-1.04-.59-1.41l-6.81-6.81c-.38-.38-.88-.59-1.41-.59Z"/>
    <rect class="cls-4" x="15.1" y="15.1" width="19.8" height="19.8" rx="1.5" ry="1.5" transform="translate(-10.36 25) rotate(-45)"/>
    <g>
      <path class="cls-4" d="M25,32.84c-.47,0-.91-.18-1.24-.51l-6.09-6.09c-.33-.33-.51-.77-.51-1.24,0-.47.18-.91.51-1.24l6.09-6.09c.33-.33.77-.51,1.24-.51s.91.18,1.24.51l6.09,6.09c.33.33.51.77.51,1.24,0,.47-.18.91-.51,1.24l-6.09,6.08c-.33.33-.77.51-1.24.51Z"/>
      <path class="cls-5" d="M25,17.91c.26,0,.51.1.71.29l6.09,6.09c.39.39.39,1.02,0,1.41l-6.09,6.09c-.2.2-.45.29-.71.29s-.51-.1-.71-.29l-6.09-6.09c-.39-.39-.39-1.02,0-1.41l6.09-6.09c.2-.2.45-.29.71-.29M25,16.41c-.67,0-1.3.26-1.77.73l-6.09,6.09c-.97.97-.97,2.56,0,3.54l6.09,6.09c.47.47,1.1.73,1.77.73s1.3-.26,1.77-.73l6.09-6.09c.97-.97.97-2.56,0-3.54l-6.09-6.09c-.47-.47-1.1-.73-1.77-.73h0Z"/>
    </g>
    <circle class="cls-5" cx="25" cy="17.25" r="2.75"/>
    <circle class="cls-5" cx="17.5" cy="25" r="2.75"/>
    <circle class="cls-5" cx="32.75" cy="25" r="2.75"/>
    <line class="cls-2" x1="25" y1="17" x2="25" y2="31"/>
    <g>
      <path class="cls-5" d="M28,27.5c3.04,0,5.5,2.46,5.5,5.5s-2.46,5.5-5.5,5.5-5.5-2.46-5.5-5.5,2.46-5.5,5.5-5.5M28,26c-3.86,0-7,3.14-7,7s3.14,7,7,7,7-3.14,7-7-3.14-7-7-7h0Z"/>
      <line class="cls-1" x1="31.5" y1="36.5" x2="35" y2="40"/>
      <g>
        <circle class="cls-5" cx="28" cy="33" r="4.75"/>
        <path class="cls-4" d="M28,29c2.21,0,4,1.79,4,4s-1.79,4-4,4-4-1.79-4-4,1.79-4,4-4M28,27.5c-3.04,0-5.5,2.46-5.5,5.5s2.46,5.5,5.5,5.5,5.5-2.46,5.5-5.5-2.46-5.5-5.5-5.5h0Z"/>
      </g>
    </g>
  </g>
</svg>