<?xml version="1.0" encoding="UTF-8"?>
<svg id="Data_Center" data-name="Data Center" xmlns="http://www.w3.org/2000/svg" viewBox="0 0 50 50">
  <defs>
    <style>
      .cls-1 {
        fill: #00d15f;
      }

      .cls-1, .cls-2 {
        stroke-width: 0px;
      }

      .cls-3 {
        fill: none;
        stroke: #fff;
        stroke-miterlimit: 10;
        stroke-width: 1.5px;
      }

      .cls-2 {
        fill: #fff;
      }
    </style>
  </defs>
  <g id="Veeam_product_3-2" data-name="Veeam product 3">
    <path class="cls-1" d="M33.54,7.75H10.35c-1.1,0-2,.9-2,2v30c0,1.1.9,2,2,2h30c1.1,0,2-.9,2-2v-23.19c0-.53-.21-1.04-.59-1.41l-6.81-6.81c-.38-.38-.88-.59-1.41-.59Z"/>
    <line class="cls-3" x1="25.14" y1="32.76" x2="40.85" y2="32.76"/>
    <line class="cls-3" x1="9.85" y1="32.76" x2="20.42" y2="32.76"/>
    <circle class="cls-2" cx="25.14" cy="32.76" r="2.36"/>
    <path class="cls-3" d="M28.68,36.3c-1.96,1.96-5.13,1.96-7.08,0-1.96-1.96-1.96-5.13,0-7.08s5.13-1.96,7.08,0"/>
    <polygon id="Rectangle-path" class="cls-2" points="12.3 21.48 15.01 21.48 15.01 21.87 12.3 21.87 12.3 21.48"/>
    <polygon id="Rectangle-path-2" class="cls-2" points="12.3 20.74 15.01 20.74 15.01 21.13 12.3 21.13 12.3 20.74"/>
    <polygon id="Rectangle-path-3" class="cls-2" points="13.08 20 14.24 20 14.24 20.39 13.08 20.39 13.08 20"/>
    <polygon id="Rectangle-path-4" class="cls-2" points="13.08 19.26 14.24 19.26 14.24 19.64 13.08 19.64 13.08 19.26"/>
    <polygon id="Rectangle-path-5" class="cls-2" points="13.08 18.51 14.24 18.51 14.24 18.9 13.08 18.9 13.08 18.51"/>
    <polygon id="Rectangle-path-6" class="cls-2" points="13.08 17.77 14.24 17.77 14.24 18.16 13.08 18.16 13.08 17.77"/>
    <rect id="Rectangle-path-7" class="cls-2" x="12.3" y="17.03" width="2.7" height=".39"/>
    <rect id="Rectangle-path-8" class="cls-2" x="12.3" y="16.29" width="2.7" height=".39"/>
    <path id="Shape" class="cls-2" d="M15.39,21.13h4.16c.07-.12.12-.25.15-.39h-4.31v.39Z"/>
    <path id="Shape-2" class="cls-2" d="M19.23,19.26h-3.06v.39h3.39c-.09-.15-.2-.28-.32-.39h-.01Z"/>
    <path id="Shape-3" class="cls-2" d="M16.17,18.51v.39h3.06c.13-.11.24-.24.32-.39h-3.39.01Z"/>
    <path id="Shape-4" class="cls-2" d="M19.55,17.03h-4.16v.39h4.31c-.04-.14-.09-.27-.15-.39Z"/>
    <path id="Shape-5" class="cls-2" d="M18.27,16.29h-2.88v.39h3.87c-.26-.24-.61-.39-.99-.39Z"/>
    <rect id="Rectangle-path-9" class="cls-2" x="16.17" y="17.77" width="1.16" height=".39"/>
    <path id="Shape-6" class="cls-2" d="M18.48,18.16h1.21c.03-.12.05-.25.05-.39h-1.26v.39h0Z"/>
    <polygon id="Rectangle-path-10" class="cls-2" points="16.17 20 17.33 20 17.33 20.39 16.17 20.39 16.17 20"/>
    <path id="Shape-7" class="cls-2" d="M18.48,20v.39h1.26c0-.13-.02-.26-.05-.39h-1.21Z"/>
    <path id="Shape-8" class="cls-2" d="M15.39,21.86h2.88c.39,0,.73-.14.99-.38h-3.87v.38Z"/>
    <polygon id="Rectangle-path-11" class="cls-2" points="20.03 21.48 21.96 21.48 21.96 21.87 20.03 21.87 20.03 21.48"/>
    <polygon id="Rectangle-path-12" class="cls-2" points="20.03 20.74 21.96 20.74 21.96 21.13 20.03 21.13 20.03 20.74"/>
    <polygon id="Rectangle-path-13" class="cls-2" points="20.8 20 21.96 20 21.96 20.39 20.8 20.39 20.8 20"/>
    <polygon id="Rectangle-path-14" class="cls-2" points="20.8 19.26 21.96 19.26 21.96 19.64 20.8 19.64 20.8 19.26"/>
    <polygon id="Shape-9" class="cls-2" points="22.5 17.03 20.03 17.03 20.03 17.42 22.63 17.42 22.5 17.03"/>
    <polygon id="Shape-10" class="cls-2" points="22.24 16.29 20.03 16.29 20.03 16.68 22.38 16.68 22.24 16.29"/>
    <polygon id="Rectangle-path-15" class="cls-2" points="24.28 21.48 26.21 21.48 26.21 21.87 24.28 21.87 24.28 21.48"/>
    <polygon id="Rectangle-path-16" class="cls-2" points="24.28 20.74 26.21 20.74 26.21 21.13 24.28 21.13 24.28 20.74"/>
    <polygon id="Rectangle-path-17" class="cls-2" points="24.28 20 25.44 20 25.44 20.39 24.28 20.39 24.28 20"/>
    <polygon id="Rectangle-path-18" class="cls-2" points="24.28 19.26 25.44 19.26 25.44 19.64 24.28 19.64 24.28 19.26"/>
    <polygon id="Shape-11" class="cls-2" points="24.28 18.9 25.44 18.9 25.44 18.51 24.28 18.51 24.28 18.51 23.23 18.51 23.12 18.83 23.01 18.51 21.96 18.51 21.96 18.51 20.8 18.51 20.8 18.9 21.96 18.9 21.96 18.55 22.08 18.9 24.16 18.9 24.28 18.55 24.28 18.9"/>
    <polygon id="Shape-12" class="cls-2" points="25.44 17.77 23.49 17.77 23.35 18.16 25.44 18.16 25.44 17.77"/>
    <polygon id="Shape-13" class="cls-2" points="24 16.29 23.87 16.68 26.21 16.68 26.21 16.29 24 16.29"/>
    <polygon id="Shape-14" class="cls-2" points="23.12 21.86 23.25 21.48 22.99 21.48 23.12 21.86"/>
    <polygon id="Shape-15" class="cls-2" points="22.86 21.13 23.38 21.13 23.51 20.74 22.73 20.74 22.86 21.13"/>
    <polygon id="Shape-16" class="cls-2" points="22.6 20.39 23.64 20.39 23.77 20 22.47 20 22.6 20.39"/>
    <polygon id="Shape-17" class="cls-2" points="22.34 19.64 23.9 19.64 24.03 19.26 22.21 19.26 22.34 19.64"/>
    <polygon id="Shape-18" class="cls-2" points="20.8 18.16 22.89 18.16 22.75 17.77 20.8 17.77 20.8 18.16"/>
    <polygon id="Shape-19" class="cls-2" points="23.61 17.42 26.21 17.42 26.21 17.03 23.74 17.03 23.61 17.42"/>
    <path class="cls-2" d="M29.06,16.28c.14,0,1.6-.12,1.6,2.57,0,2.87-.94,3.01-1.68,3.01h-2.03v-5.58h2.11ZM28.1,17.13v3.88h.71c.33,0,.7-.36.7-2.07s-.59-1.81-.8-1.81h-.61Z"/>
    <path class="cls-2" d="M33.35,16.28c.65,0,1.41.31,1.41,1.41s-.84,1.23-.84,1.23c.25,0,1.02.38,1.02,1.33s-.56,1.61-1.41,1.61h-2.21v-5.58s2.03,0,2.03,0ZM32.45,17.13v1.45h.56c.27,0,.61-.15.61-.73s-.45-.73-.61-.73h-.56ZM32.45,19.36v1.65h.63c.33,0,.7-.24.7-.82s-.44-.82-.66-.82h-.67Z"/>
    <path class="cls-2" d="M35.33,18.14h1.08v-.41c0-.23.13-.66.62-.66s.53.48.53.79,0,.7-.65,1.22-1.59,1.29-1.59,2.79h3.39v-.91h-2.08s.53-.83,1.04-1.23,1.03-.93,1.03-1.92-.6-1.44-1.7-1.44-1.7.39-1.7,1.77h.03Z"/>
  </g>
</svg>