<?xml version="1.0" encoding="UTF-8"?>
<svg id="Veeam_product_3" data-name="Veeam product 3" xmlns="http://www.w3.org/2000/svg" viewBox="0 0 50 50">
  <defs>
    <style>
      .cls-1 {
        stroke: #00d15f;
      }

      .cls-1, .cls-2 {
        fill: none;
        stroke-miterlimit: 10;
        stroke-width: 1.5px;
      }

      .cls-2 {
        stroke: #fff;
      }

      .cls-3 {
        opacity: 0;
      }

      .cls-3, .cls-4, .cls-5 {
        stroke-width: 0px;
      }

      .cls-3, .cls-5 {
        fill: #fff;
      }

      .cls-4 {
        fill: #00d15f;
      }
    </style>
  </defs>
  <g id="Veeam_Explorer_for_OneDrive" data-name="Veeam Explorer for OneDrive">
    <rect id="BG" class="cls-3" width="50" height="50"/>
    <path class="cls-4" d="M33.19,8H10c-1.1,0-2,.9-2,2v30c0,1.1.9,2,2,2h30c1.1,0,2-.9,2-2v-23.19c0-.53-.21-1.04-.59-1.41l-6.81-6.81c-.38-.38-.88-.59-1.41-.59Z"/>
    <g>
      <path class="cls-5" d="M26.75,22.45l2.84-1.18h0c.8-.35,1.66-.52,2.53-.53h.05c-.47-1.17-1.2-2.21-2.12-3.06-2.44-2.22-5.91-2.8-8.91-1.49-1.08.48-2.06,1.18-2.86,2.07,1.18.1,2.32.48,3.33,1.11l5.15,3.08Z"/>
      <path class="cls-5" d="M18.9,25.75l4.86-2.04,1.86-.79-4.53-2.69c-1.05-.65-2.25-.99-3.48-.99h-.07c-1.2.02-2.37.36-3.41.99-1.02.62-1.85,1.52-2.41,2.6-.55,1.07-.8,2.28-.71,3.49.05.86.28,1.71.67,2.48h-.01s.12-.04.12-.04l4.91-2.08,2.2-.91Z"/>
      <path class="cls-5" d="M37.33,28.97c.03-.12.06-.23.08-.35.03-.19.06-.43.07-.71,0-.04.01-.08.01-.12,0-.02,0-.05,0-.07,0-.27,0-.56,0-.9-.03-.82-.26-1.62-.66-2.33-.44-.8-1.07-1.47-1.84-1.95-.77-.48-1.63-.77-2.53-.84h-.35c-.74,0-1.46.15-2.14.43l-2.17.91.31.22,3.1,1.88v6.87h-.32c.61.31,1.29.5,2.01.5,2.11,0,3.87-1.47,4.41-3.46,0-.02.01-.05.02-.07Z"/>
      <path class="cls-5" d="M26.66,23.55l-2.53,1.06-.71.3-4.15,1.74-2.2.91-4.91,2.09c.62.87,1.43,1.59,2.36,2.09.95.5,2,.76,3.07.75h10.64c-.58-2.01-.04-4.18,1.41-5.66.32-.33.67-.61,1.06-.85l-3.09-1.86-.95-.58Z"/>
      <g>
        <path class="cls-1" d="M14.5,19s2.5-2,6.5.5,10.5,6.5,10.5,6.5"/>
        <path class="cls-1" d="M11.5,29.5l19-8s3-1.5,5.5.5"/>
      </g>
    </g>
    <g>
      <path class="cls-4" d="M32.5,26c3.04,0,5.5,2.46,5.5,5.5s-2.46,5.5-5.5,5.5-5.5-2.46-5.5-5.5,2.46-5.5,5.5-5.5M32.5,24.5c-3.86,0-7,3.14-7,7s3.14,7,7,7,7-3.14,7-7-3.14-7-7-7h0Z"/>
      <line class="cls-2" x1="36" y1="35" x2="39.5" y2="38.5"/>
      <g>
        <circle class="cls-4" cx="32.5" cy="31.5" r="4.75"/>
        <path class="cls-5" d="M32.5,27.5c2.21,0,4,1.79,4,4s-1.79,4-4,4-4-1.79-4-4,1.79-4,4-4M32.5,26c-3.04,0-5.5,2.46-5.5,5.5s2.46,5.5,5.5,5.5,5.5-2.46,5.5-5.5-2.46-5.5-5.5-5.5h0Z"/>
      </g>
    </g>
  </g>
</svg>