<svg xmlns="http://www.w3.org/2000/svg" xmlns:xlink="http://www.w3.org/1999/xlink" width="64.6001px" height="63.92px" xml:space="preserve" overflow="hidden" viewBox="15.2 15.04 64.6001 63.92"><g transform="translate(-483 -496)"><path d="M75.2 15.04C77.2766 15.04 78.96 16.7234 78.96 18.8L78.96 75.2C78.96 77.2766 77.2766 78.96 75.2 78.96L18.8 78.96C16.7234 78.96 15.04 77.2766 15.04 75.2L15.04 18.8C15.04 16.7234 16.7234 15.04 18.8 15.04Z" fill="#BE000D" transform="matrix(1.01064 0 0 1 483 496)"/><path d="M45.9472 36.66 48.4476 36.66 48.4476 50.0268 45.9472 50.0268Z" fill="#FFFFFF" transform="matrix(1.01064 0 0 1 483 496)"/><path d="M46.7932 50.0268 45.9472 47.5264 60.16 47.5264 60.16 50.0268 46.7932 50.0268Z" fill="#FFFFFF" transform="matrix(1.01064 0 0 1 483 496)"/><path d="M26.0756 44.3116 34.3852 36.3592 23.3496 33.1444 26.0756 44.3116Z" fill="#FFFFFF" transform="matrix(1.01064 0 0 1 483 496)"/><path d="M26.79 39.5176C29.9672 30.4936 38.5212 24.44 48.0716 24.44 60.5172 24.44 70.6316 34.5544 70.6316 47 70.6316 59.4456 60.5172 69.56 48.0716 69.56 41.8112 69.56 35.9832 67.0596 31.678 62.4912" stroke="#FFFFFF" stroke-width="2.82" stroke-miterlimit="10" fill="none" transform="matrix(1.01064 0 0 1 483 496)"/></g></svg>