<?xml version="1.0" encoding="UTF-8"?>
<svg id="Veeam_product_1" data-name="Veeam product 1" xmlns="http://www.w3.org/2000/svg" viewBox="0 0 50 50">
  <defs>
    <style>
      .cls-1 {
        opacity: 0;
      }

      .cls-1, .cls-2, .cls-3 {
        stroke-width: 0px;
      }

      .cls-1, .cls-3 {
        fill: #fff;
      }

      .cls-2 {
        fill: #00d15f;
      }
    </style>
  </defs>
  <rect id="BG" class="cls-1" width="50" height="50"/>
  <path class="cls-2" d="M33.19,8H10c-1.1,0-2,.9-2,2v30c0,1.1.9,2,2,2h30c1.1,0,2-.9,2-2v-23.19c0-.53-.21-1.04-.59-1.41l-6.81-6.81c-.38-.38-.88-.59-1.41-.59Z"/>
  <g>
    <path class="cls-3" d="M26.45,33.88c-.1,0-.21.03-.31.03h-6.46c-2.88,0-5.22-2.34-5.22-5.22,0-2.01,1.18-3.86,3.02-4.72l.14-.06-.09-.12c-.27-.38-.5-.76-.69-1.13l-.06-.11-.11.05c-2.3,1.15-3.79,3.54-3.79,6.1,0,3.73,3.04,6.78,6.77,6.8h6.5c.1,0,.21-.02.31-.02v-1.59Z"/>
    <path class="cls-3" d="M32.88,27.5h1.6c.03-.27.04-.54.04-.81,0-3.1-1.62-5.75-4.45-7.27-.02-.16-.07-.45-.13-.68-.72-2.88-3.29-4.9-6.23-4.9-1.84,0-3.61.82-4.85,2.25-.32.37-1.35,1.72-1.25,3.68,0,.06,0,.13.01.2,0,.02,0,.04,0,.06,0,.06.01.12.02.18v.07c.02.06.03.12.04.18l.05.25s.01.05.02.09c.01.06.03.12.05.17,0,.03.02.05.03.1v.04s.04.09.05.13l.04.09c.04.1.07.19.12.29l.12.26c.02.05.05.1.08.15l.07.12c.03.05.06.11.09.16.02.04.05.08.08.12.02.04.05.07.07.11l.11.17c.04.06.08.11.12.17.03.04.06.08.08.12.04.06.09.12.14.17.03.04.06.07.08.11.06.07.12.14.17.2l.02.03s.03.04.04.05c.09.1.17.19.27.29l.73.73c.27.26.56.55.89.88l.03.03s.07.07.11.11l.16.15c1.07,1.04,2.27,2.2,3.13,3.03h-5.98v1.59h8.72v-8.72h-1.59v6.04c-1.29-1.24-3.94-3.79-5.07-4.94-2.87-2.91-.9-5.34-.67-5.6.94-1.08,2.27-1.7,3.65-1.7,2.22,0,4.14,1.52,4.69,3.7.06.25.13.75.14.9l.05.43.39.19s.18.09.27.13c2.34,1.23,3.67,3.38,3.67,5.9,0,.27-.02.54-.05.81Z"/>
  </g>
  <g>
    <path class="cls-3" d="M30.65,33.98c-.04.07-.04.11,0,.19.43.75.86,1.5,1.28,2.25.04.07.07.1.15.1h.01c.31,0,.63,0,.94,0h.36s.35,0,.35,0c.32,0,.64,0,.97,0,.08,0,.12-.02.16-.09.2-.34.39-.69.59-1.03.24-.41.48-.82.71-1.23.02-.04.02-.13,0-.16-.44-.77-.88-1.54-1.32-2.27-.02-.04-.1-.08-.14-.08-.44,0-.88,0-1.32,0s-.88,0-1.32,0c-.04,0-.12.05-.14.08-.25.42-.49.85-.74,1.28-.19.33-.38.66-.56.98ZM33.41,32.79h0c.34,0,.66.13.9.37.24.24.38.57.38.91s-.13.67-.38.91c-.24.24-.56.37-.9.37h0c-.35,0-.67-.14-.91-.39-.24-.24-.37-.57-.36-.91,0-.71.57-1.26,1.28-1.27Z"/>
    <path class="cls-3" d="M30.2,33.37l.3-.52c.32-.56.63-1.1.94-1.65.11-.2.25-.28.47-.28h0c1.31,0,2.62,0,3.93,0h1.17c-.05-.1-.11-.2-.16-.29-.18-.33-.36-.65-.55-.95-.19-.31-.5-.38-.73-.38-.81,0-1.61,0-2.42,0-.63,0-1.27,0-1.9,0-.35,0-.63.16-.81.49-.37.65-.73,1.31-1.09,1.96-.02.03-.03.07-.02.08.26.47.54.96.83,1.46l.04.08Z"/>
    <path class="cls-3" d="M31.88,37.22h0c-.19,0-.31-.07-.4-.23-.74-1.29-1.49-2.58-2.23-3.87l-.3-.51s-.03-.05-.04-.07l-.12.21c-.16.28-.32.56-.48.83-.19.34-.19.67,0,1.01l.41.73c.57,1.01,1.14,2.01,1.71,3.02.19.34.46.5.84.5h.38c.57,0,1.15,0,1.73,0,.04,0,.12-.05.14-.09.25-.41.5-.83.74-1.24l.15-.26s.01-.02.02-.03h-.74c-.6,0-1.2,0-1.8,0Z"/>
    <path class="cls-3" d="M38.52,33.59l-.11-.19c-.23-.4-.45-.78-.67-1.23-.21-.42-.4-.55-.87-.55-.02,0-.05,0-.07,0-.37,0-.75.01-1.15.01l.36.63c.29.52.59,1.03.89,1.54.11.18.11.33,0,.51-.78,1.34-1.55,2.69-2.32,4.03l-.26.45s-.02.03-.02.04h1.24c.39,0,.67-.17.86-.51.71-1.25,1.41-2.5,2.12-3.76.19-.33.19-.65,0-.99Z"/>
  </g>
</svg>