<?xml version="1.0" encoding="UTF-8"?>
<svg id="Veeam_product_3" data-name="Veeam product 3" xmlns="http://www.w3.org/2000/svg" viewBox="0 0 50 50">
  <defs>
    <style>
      .cls-1 {
        fill: none;
        stroke: #fff;
        stroke-miterlimit: 10;
        stroke-width: 1.5px;
      }

      .cls-2 {
        opacity: 0;
      }

      .cls-2, .cls-3, .cls-4, .cls-5 {
        stroke-width: 0px;
      }

      .cls-2, .cls-3, .cls-5 {
        fill: #fff;
      }

      .cls-3 {
        fill-rule: evenodd;
      }

      .cls-4 {
        fill: #00d15f;
      }
    </style>
  </defs>
  <g id="Veeam_Plug-in_for_SAP_on_Oracle" data-name="Veeam Plug-in for SAP on Oracle">
    <rect id="BG" class="cls-2" width="50" height="50"/>
    <path class="cls-4" d="M33.19,8H10c-1.1,0-2,.9-2,2v30c0,1.1.9,2,2,2h30c1.1,0,2-.9,2-2v-23.19c0-.53-.21-1.04-.59-1.41l-6.81-6.81c-.38-.38-.88-.59-1.41-.59Z"/>
    <g>
      <g>
        <path class="cls-5" d="M23.55,22.16c.12-.19.39-.28.6-.19.1.04.19.11.25.2.71,1.12,1.43,2.23,2.14,3.35-.27,0-.54,0-.8,0-.13-.21-.25-.42-.38-.63-.61,0-1.23,0-1.84,0-.13-.21-.27-.42-.4-.62.6,0,1.21,0,1.82,0-.32-.52-.64-1.03-.96-1.55-.59.93-1.17,1.87-1.77,2.8-.27,0-.53,0-.8,0,.71-1.12,1.43-2.24,2.14-3.36h0Z"/>
        <path class="cls-5" d="M17.21,21.97c.89,0,1.77,0,2.66,0,.2,0,.4-.02.59.03.27.06.51.22.68.44.14.17.22.39.24.61.03.28-.04.58-.21.81-.2.29-.55.49-.91.51-.13,0-.26,0-.39,0,.46.38.91.77,1.37,1.15-.33,0-.66,0-.99,0-.68-.59-1.36-1.18-2.03-1.77.64,0,1.27,0,1.91,0,.12,0,.24-.04.34-.11.14-.1.22-.25.24-.42.01-.15-.04-.3-.13-.42-.11-.13-.27-.21-.43-.2-.75,0-1.5,0-2.26,0v2.92c-.23,0-.45,0-.68,0,0-1.18,0-2.36,0-3.55h0Z"/>
        <path class="cls-5" d="M26.99,22.27c.3-.2.67-.3,1.03-.29.8,0,1.59,0,2.39,0-.13.21-.27.42-.4.63-.66,0-1.33,0-1.99,0-.4,0-.8.22-1,.57-.14.24-.19.54-.13.81.08.41.41.76.81.87.19.06.38.04.57.04.73,0,1.46,0,2.2,0-.13.21-.27.42-.4.63-.61,0-1.23,0-1.84,0-.19,0-.38,0-.57-.03-.48-.08-.92-.37-1.18-.78-.25-.38-.34-.87-.25-1.32.09-.46.37-.87.76-1.13h0Z"/>
        <path class="cls-5" d="M30.78,21.97c.23,0,.46,0,.68,0,0,.97,0,1.95,0,2.92,1.06,0,2.12,0,3.17,0-.13.21-.27.42-.4.63-1.03,0-2.07,0-3.1,0-.14,0-.27-.08-.32-.2-.03-.06-.03-.13-.03-.2,0-1.05,0-2.1,0-3.15h0Z"/>
        <path class="cls-5" d="M35.49,22.14c.17-.08.35-.13.54-.16.13-.02.27-.01.4-.01.75,0,1.51,0,2.26,0-.09.14-.19.29-.28.43-.04.06-.08.13-.13.19-.67,0-1.33,0-2,0-.25,0-.5.09-.69.24-.19.15-.33.36-.4.59,1.1,0,2.21,0,3.31,0-.13.21-.27.42-.4.62-.97,0-1.94,0-2.91,0,.07.23.21.45.4.6.2.16.45.24.71.24.82,0,1.63,0,2.45,0-.13.21-.27.42-.4.63h-1.83c-.2,0-.4,0-.59-.03-.49-.09-.94-.4-1.2-.83-.27-.45-.33-1.02-.15-1.51.15-.44.49-.81.91-1h0Z"/>
        <path class="cls-5" d="M12.78,21.99c.1-.02.21-.02.32-.02.66,0,1.32,0,1.99,0,.4,0,.81.14,1.12.4.33.27.56.66.63,1.08.07.42-.01.86-.24,1.21-.24.39-.63.69-1.08.79-.16.04-.32.06-.49.05-.67,0-1.34,0-2.02,0-.41,0-.81-.15-1.13-.42-.36-.3-.59-.74-.62-1.2-.04-.41.08-.84.32-1.18.28-.4.72-.67,1.2-.74h0ZM12.9,22.61c-.37.05-.71.3-.87.64-.13.28-.15.62-.03.91.09.22.24.42.44.55.18.12.41.19.63.19.66,0,1.31,0,1.97,0,.24,0,.49-.08.68-.23.2-.15.34-.36.41-.6.07-.24.06-.5-.03-.74-.09-.23-.25-.42-.46-.55-.18-.12-.39-.18-.61-.18h-1.97c-.06,0-.11,0-.17.01h0Z"/>
      </g>
      <path class="cls-3" d="M20.05,18.15c-.58.01-1-.08-1.68-.48l-.63,1.25c.68.39,1.48.61,2.3.61h.11c.71-.01,1.29-.22,1.75-.59.03-.02.05-.04.07-.06l-.2.54h1.84l.31-.94c.32.11.69.17,1.08.17s.74-.06,1.06-.16l.3.93h3.01v-1.95h.66c1.59,0,2.53-.81,2.53-2.16,0-1.51-.91-2.2-2.85-2.2h-2.03s0,4.83,0,4.83l-1.77-4.83h-1.76l-1.52,4.04c-.16-1.02-1.21-1.37-2.04-1.63-.55-.18-1.13-.43-1.12-.72,0-.23.31-.45.92-.42.41.02.77.05,1.49.4l.71-1.23c-.66-.33-1.56-.54-2.3-.54h0c-.86,0-1.59.28-2.03.74-.31.32-.48.73-.49,1.18-.01.62.22,1.07.7,1.42.4.3.92.49,1.38.63.56.17,1.02.33,1.02.65,0,.12-.05.23-.13.32-.14.15-.36.2-.65.21ZM29.37,14.44h.45c.6,0,1.07.2,1.07.81s-.47.83-1.07.83h-.45v-1.64ZM25,15.1h.01l.63,2.04c-.19.07-.41.11-.64.11s-.46-.04-.65-.12l.64-2.03Z"/>
    </g>
    <g>
      <line class="cls-1" x1="24.79" y1="33.01" x2="40.5" y2="33.01"/>
      <line class="cls-1" x1="9.5" y1="33.01" x2="20.07" y2="33.01"/>
      <circle class="cls-5" cx="24.79" cy="33.01" r="2.36"/>
      <path class="cls-1" d="M28.33,36.55c-1.96,1.96-5.13,1.96-7.08,0-1.96-1.96-1.96-5.13,0-7.08s5.13-1.96,7.08,0"/>
    </g>
  </g>
</svg>