<?xml version="1.0" encoding="UTF-8"?>
<svg id="Veeam_product_3" data-name="Veeam product 3" xmlns="http://www.w3.org/2000/svg" viewBox="0 0 50 50">
  <defs>
    <style>
      .cls-1 {
        fill: none;
        stroke: #fff;
        stroke-miterlimit: 10;
        stroke-width: 1.5px;
      }

      .cls-2 {
        opacity: 0;
      }

      .cls-2, .cls-3, .cls-4 {
        stroke-width: 0px;
      }

      .cls-2, .cls-4 {
        fill: #fff;
      }

      .cls-3 {
        fill: #00d15f;
      }
    </style>
  </defs>
  <g id="Veeam_Explorer_for_Microsoft_Teams" data-name="Veeam Explorer for Microsoft Teams">
    <rect id="BG" class="cls-2" width="50" height="50"/>
    <path class="cls-3" d="M33.19,8H10c-1.1,0-2,.9-2,2v30c0,1.1.9,2,2,2h30c1.1,0,2-.9,2-2v-23.19c0-.53-.21-1.04-.59-1.41l-6.81-6.81c-.38-.38-.88-.59-1.41-.59Z"/>
    <g>
      <path class="cls-4" d="M31.25,35.75c-3.31,0-6-2.69-6-6v-5.94c0-1.24,1.01-2.25,2.25-2.25h7.5c1.24,0,2.25,1.01,2.25,2.25v5.94c0,3.31-2.69,6-6,6Z"/>
      <path class="cls-3" d="M35,22.31c.83,0,1.5.67,1.5,1.5v5.94c0,2.9-2.35,5.25-5.25,5.25s-5.25-2.35-5.25-5.25v-5.94c0-.83.67-1.5,1.5-1.5h7.5M35,20.81h-7.5c-1.65,0-3,1.35-3,3v5.94c0,3.72,3.03,6.75,6.75,6.75s6.75-3.03,6.75-6.75v-5.94c0-1.65-1.35-3-3-3h0Z"/>
    </g>
    <circle class="cls-4" cx="33" cy="18.31" r="2.5"/>
    <g>
      <path class="cls-4" d="M24.38,36.75c-4,0-7.25-3.25-7.25-7.25v-7c0-1.24,1.01-2.25,2.25-2.25h10c1.24,0,2.25,1.01,2.25,2.25v7c0,4-3.25,7.25-7.25,7.25Z"/>
      <path class="cls-3" d="M29.38,21c.83,0,1.5.67,1.5,1.5v7c0,3.59-2.91,6.5-6.5,6.5s-6.5-2.91-6.5-6.5v-7c0-.83.67-1.5,1.5-1.5h10M29.38,19.5h-10c-1.65,0-3,1.35-3,3v7c0,4.41,3.59,8,8,8s8-3.59,8-8v-7c0-1.65-1.35-3-3-3h0Z"/>
    </g>
    <circle class="cls-4" cx="24.5" cy="15.5" r="4"/>
    <g>
      <rect class="cls-4" x="10.25" y="19.25" width="12.5" height="12.5" rx="1.75" ry="1.75"/>
      <path class="cls-3" d="M21,20c.55,0,1,.45,1,1v9c0,.55-.45,1-1,1h-9c-.55,0-1-.45-1-1v-9c0-.55.45-1,1-1h9M21,18.5h-9c-1.38,0-2.5,1.12-2.5,2.5v9c0,1.38,1.12,2.5,2.5,2.5h9c1.38,0,2.5-1.12,2.5-2.5v-9c0-1.38-1.12-2.5-2.5-2.5h0Z"/>
    </g>
    <polygon class="cls-3" points="19.29 23.18 17.16 23.18 17.16 28.95 15.82 28.95 15.82 23.19 13.71 23.19 13.71 22.05 19.29 22.05 19.29 23.18 19.29 23.18"/>
    <g>
      <path class="cls-3" d="M31,26.5c3.04,0,5.5,2.46,5.5,5.5s-2.46,5.5-5.5,5.5-5.5-2.46-5.5-5.5,2.46-5.5,5.5-5.5M31,25c-3.86,0-7,3.14-7,7s3.14,7,7,7,7-3.14,7-7-3.14-7-7-7h0Z"/>
      <line class="cls-1" x1="34.5" y1="35.5" x2="38" y2="39"/>
      <g>
        <circle class="cls-3" cx="31" cy="32" r="4.75"/>
        <path class="cls-4" d="M31,28c2.21,0,4,1.79,4,4s-1.79,4-4,4-4-1.79-4-4,1.79-4,4-4M31,26.5c-3.04,0-5.5,2.46-5.5,5.5s2.46,5.5,5.5,5.5,5.5-2.46,5.5-5.5-2.46-5.5-5.5-5.5h0Z"/>
      </g>
    </g>
  </g>
</svg>