<?xml version="1.0" encoding="UTF-8"?>
<svg id="OLS_ICONS" data-name="OLS ICONS" xmlns="http://www.w3.org/2000/svg" viewBox="0 0 50 50">
  <defs>
    <style>
      .cls-1 {
        opacity: 0;
      }

      .cls-1, .cls-2, .cls-3 {
        stroke-width: 0px;
      }

      .cls-1, .cls-3 {
        fill: #fff;
      }

      .cls-2 {
        fill: #00d15f;
      }
    </style>
  </defs>
  <g id="Cloud_native_Plug-in" data-name="Cloud native Plug-in">
    <rect id="BG" class="cls-1" x="0" width="50" height="50"/>
    <path class="cls-2" d="M33.19,8H10c-1.1,0-2,.9-2,2v30c0,1.1.9,2,2,2h30c1.1,0,2-.9,2-2v-23.19c0-.53-.21-1.04-.59-1.41l-6.81-6.81c-.38-.38-.88-.59-1.41-.59Z"/>
    <g>
      <rect class="cls-3" x="24.79" y="32.26" width="15.71" height="1.5"/>
      <rect class="cls-3" x="9.5" y="32.26" width="10.57" height="1.5"/>
      <circle class="cls-3" cx="24.79" cy="33.01" r="2.36"/>
      <path class="cls-3" d="M24.79,38.76c-1.54,0-2.98-.6-4.07-1.69-1.09-1.09-1.69-2.53-1.69-4.07s.6-2.98,1.69-4.07c2.24-2.24,5.9-2.24,8.14,0l-1.06,1.06c-1.66-1.66-4.36-1.66-6.02,0-.8.8-1.25,1.87-1.25,3.01s.44,2.21,1.25,3.01c.8.8,1.87,1.25,3.01,1.25s2.21-.44,3.01-1.25l1.06,1.06c-1.09,1.09-2.53,1.69-4.07,1.69Z"/>
    </g>
    <g id="Cloud_native_Plug-in-2" data-name="Cloud native Plug-in">
      <g id="Google_GCP_" data-name="Google (GCP)">
        <g>
          <path class="cls-3" d="M22.08,16.62c-.23.4-.46.81-.69,1.21-.06.09-.05.15,0,.25.53.92,1.06,1.84,1.58,2.76.06.1.1.12.21.13.39,0,.78,0,1.16,0h.43s.43,0,.43,0h.43c.26,0,.51,0,.77,0,.12,0,.16-.02.22-.12.24-.41.47-.83.71-1.24.3-.51.6-1.03.89-1.54.03-.05.03-.17,0-.22-.52-.91-1.06-1.86-1.62-2.8-.03-.05-.13-.11-.19-.11-1.08-.01-2.16-.01-3.24,0-.06,0-.16.06-.19.11-.31.52-.61,1.05-.91,1.57ZM24.8,16.38h0c.42,0,.81.16,1.1.45.3.29.46.69.46,1.11s-.16.82-.46,1.11c-.29.29-.68.45-1.1.45h-.01c-.42,0-.82-.17-1.11-.47-.29-.3-.45-.69-.44-1.11.01-.86.69-1.54,1.55-1.55Z"/>
          <path class="cls-3" d="M21.14,12.66c-.45.8-.9,1.61-1.35,2.41-.02.04-.04.1-.03.11.31.56.63,1.12.97,1.71l.12.21.35-.6c.41-.71.81-1.4,1.2-2.09.13-.24.31-.34.57-.33,1.54,0,3.08,0,4.61,0h1.69c-.07-.13-.14-.25-.21-.37-.23-.41-.44-.8-.68-1.19-.24-.39-.63-.47-.91-.47-.93,0-1.87,0-2.8,0-.84,0-1.67,0-2.51,0-.44,0-.78.21-1.01.61Z"/>
          <path class="cls-3" d="M22.91,21.8h0c-.23,0-.37-.08-.48-.27-.85-1.49-1.71-2.98-2.57-4.46l-.54-.93s-.04-.07-.07-.11l-.19.33c-.19.33-.37.65-.56.97-.24.42-.24.83,0,1.25l.57,1c.68,1.2,1.36,2.41,2.04,3.61.24.42.58.62,1.05.62h.5c.7,0,1.4,0,2.1,0,.06,0,.16-.06.19-.12.29-.48.58-.96.86-1.45l.24-.4s.02-.04.03-.06h-.89c-.76,0-1.51,0-2.26,0Z"/>
          <path class="cls-3" d="M26.35,22.97l-.45.79s-.03.05-.04.08h1.55c.48,0,.83-.21,1.08-.64l.05-.08c.85-1.51,1.71-3.03,2.56-4.54.23-.41.23-.82,0-1.23l-.14-.25c-.28-.49-.55-.96-.81-1.5-.27-.55-.52-.7-1.18-.69-.47.01-.94.01-1.44.01.02.04.04.08.06.12l.36.64c.37.65.75,1.3,1.13,1.95.13.22.13.39,0,.6-.91,1.58-1.82,3.15-2.72,4.73Z"/>
        </g>
      </g>
    </g>
  </g>
</svg>