<?xml version="1.0" encoding="UTF-8"?>
<svg xmlns="http://www.w3.org/2000/svg" viewBox="0 0 50 50">
  <defs>
    <style>
      .cls-1 {
        opacity: 0;
      }

      .cls-1, .cls-2, .cls-3 {
        stroke-width: 0px;
      }

      .cls-1, .cls-3 {
        fill: #fff;
      }

      .cls-2 {
        fill: #00d15f;
      }
    </style>
  </defs>
  <g id="OLS_ICONS" data-name="OLS ICONS">
    <rect class="cls-3" x="-727.79" y="-149.87" width="1406" height="815.5" rx="30" ry="30"/>
  </g>
  <g id="Veeam_product_1" data-name="Veeam product 1">
    <g id="Veeam_Product" data-name="Veeam Product">
      <rect id="BG" class="cls-1" y="-.31" width="50" height="50"/>
      <path class="cls-2" d="M33.19,7.69H10c-1.1,0-2,.9-2,2v30c0,1.1.9,2,2,2h30c1.1,0,2-.9,2-2v-23.19c0-.53-.21-1.04-.59-1.41l-6.81-6.81c-.38-.38-.88-.59-1.41-.59Z"/>
      <path class="cls-3" d="M30.98,20.18c-.39,0-.74-.26-.89-.67-1.04-2.84-3.77-4.75-6.81-4.75-2.8,0-5.38,1.63-6.57,4.16l-.06.12c-.07.13-.09.17-.16.41-.03.07-.26.75-.31,1.58-.02.29-.02.86-.02,1.47h2c0-.58,0-1.12.02-1.36.03-.54.19-1.01.2-1.05l.14-.32c.86-1.83,2.73-3.01,4.76-3.01,2.2,0,4.18,1.38,4.93,3.44.44,1.2,1.52,1.98,2.82,1.98,2.96,0,5.4,2.3,5.46,5.12.03,1.41-.5,2.73-1.49,3.74-1,1.01-2.33,1.57-3.76,1.57h-5.44v2h5.44c1.97,0,3.81-.77,5.19-2.17,1.37-1.39,2.1-3.23,2.06-5.18-.07-3.91-3.42-7.08-7.51-7.08Z"/>
      <g>
        <g>
          <polygon class="cls-3" points="17.46 24.35 17.46 24.35 17.46 24.35 17.46 24.35"/>
          <path class="cls-3" d="M14.03,27.96h0c.78-1,1.99-1.64,3.35-1.64,1.78,0,3.31,1.11,3.94,2.67h2.16c-.7-2.67-3.13-4.64-6.02-4.64-1.88,0-3.57.84-4.71,2.16l-1.62-1.62v4.75l4.42-.05-1.52-1.63h0Z"/>
        </g>
        <g>
          <polygon class="cls-3" points="17.38 37.05 17.38 37.05 17.37 37.05 17.38 37.05"/>
          <path class="cls-3" d="M20.81,33.44h0c-.78,1-1.99,1.64-3.35,1.64-1.78,0-3.31-1.11-3.94-2.67h-2.16c.7,2.67,3.13,4.64,6.02,4.64,1.88,0,3.57-.84,4.71-2.16l1.62,1.62v-4.75l-4.42.05,1.52,1.63h0Z"/>
        </g>
      </g>
    </g>
  </g>
</svg>