<?xml version="1.0" encoding="UTF-8"?>
<svg id="Veeam_product_3" data-name="Veeam product 3" xmlns="http://www.w3.org/2000/svg" viewBox="0 0 50 50">
  <defs>
    <style>
      .cls-1 {
        fill: none;
        stroke: #fff;
        stroke-miterlimit: 10;
        stroke-width: 1.5px;
      }

      .cls-2 {
        opacity: 0;
      }

      .cls-2, .cls-3, .cls-4 {
        stroke-width: 0px;
      }

      .cls-2, .cls-4 {
        fill: #fff;
      }

      .cls-3 {
        fill: #00d15f;
      }
    </style>
  </defs>
  <g id="_Plug-in_for_AWS" data-name=" Plug-in for AWS">
    <rect id="BG" class="cls-2" width="50" height="50"/>
    <path class="cls-3" d="M33.19,8H10c-1.1,0-2,.9-2,2v30c0,1.1.9,2,2,2h30c1.1,0,2-.9,2-2v-23.19c0-.53-.21-1.04-.59-1.41l-6.81-6.81c-.38-.38-.88-.59-1.41-.59Z"/>
    <g>
      <path class="cls-4" d="M16.36,16.04h2.19l2.54,7.34h-2.1l-.49-1.45h-2.41l-.46,1.45h-1.85l2.57-7.34ZM16.5,20.6h1.6l-.78-2.44h-.04l-.77,2.44Z"/>
      <path class="cls-4" d="M20.64,16.04h2.06l.96,4.63h.04l1.18-4.63h1.65l1.16,4.63h.04l1.03-4.63h1.79l-1.76,7.34h-2.06l-1.1-4.52h-.03l-1.14,4.52h-2.08l-1.75-7.34Z"/>
      <path class="cls-4" d="M30.89,23.07v-1.5c.65.23,1.32.41,2.17.41s1.14-.24,1.14-.69-.19-.56-.9-.7l-.55-.11c-1.16-.22-1.88-.74-1.88-2.28,0-1.39.87-2.3,2.73-2.3,1.16,0,1.75.18,2.17.38v1.48c-.51-.18-1.14-.35-1.98-.35-.66,0-1,.2-1,.62,0,.39.21.54.86.67l.55.11c1.29.24,2.01.76,2.01,2.26,0,1.57-1.01,2.42-2.91,2.42-1.03,0-1.88-.16-2.42-.43Z"/>
    </g>
    <g>
      <line class="cls-1" x1="24.79" y1="33.01" x2="40.5" y2="33.01"/>
      <line class="cls-1" x1="9.5" y1="33.01" x2="20.07" y2="33.01"/>
      <circle class="cls-4" cx="24.79" cy="33.01" r="2.36"/>
      <path class="cls-1" d="M28.33,36.55c-1.96,1.96-5.13,1.96-7.08,0-1.96-1.96-1.96-5.13,0-7.08s5.13-1.96,7.08,0"/>
    </g>
  </g>
</svg>