<?xml version="1.0" encoding="UTF-8"?>
<svg id="Veeam_product_3" data-name="Veeam product 3" xmlns="http://www.w3.org/2000/svg" viewBox="0 0 50 50">
  <defs>
    <style>
      .cls-1 {
        fill: #00cf5f;
      }

      .cls-1, .cls-2, .cls-3, .cls-4 {
        stroke-width: 0px;
      }

      .cls-2 {
        opacity: 0;
      }

      .cls-2, .cls-4 {
        fill: #fff;
      }

      .cls-3 {
        fill: #00d15f;
      }
    </style>
  </defs>
  <g id="Veeam_Explorer_for_Microsoft_SQL" data-name="Veeam Explorer for Microsoft SQL">
    <rect id="BG" class="cls-2" x=".03" y="-.07" width="50" height="50"/>
    <g id="Veeam_Explorer_for_Microsoft_SQL-2" data-name="Veeam Explorer for Microsoft SQL">
      <rect id="BG-2" data-name="BG" class="cls-2" x=".03" y="-.07" width="50" height="50"/>
      <g>
        <g>
          <path class="cls-1" d="M33.22,7.93H10.03c-1.1,0-2,.9-2,2v30c0,1.1.9,2,2,2h30c1.1,0,2-.9,2-2v-23.19c0-.53-.21-1.04-.59-1.41l-6.81-6.81c-.38-.38-.88-.59-1.41-.59Z"/>
          <g>
            <path class="cls-4" d="M25.8,36.69l-.36-.02c-.25-.02-6.26-.43-8.9-2.6-1.29-1.06-1.86-1.88-1.9-2.74-.05-1.07.71-2.03,2.13-3.42.37-.37.76-.73,1.16-1.1,2.21-2.08,3.75-3.83,2.45-6.31l-.06-.12c-.52-.93-.97-1.62-1.33-2.17-.34-.52-.6-.93-.77-1.29-.51-1.07-.02-1.64.87-2.17,1.77-1.06,4.06-1.53,4.16-1.55l.49-.1.06.5s.26,2.22.94,4.11c.09.24-.04.5-.28.59-.24.08-.5-.04-.59-.28-.52-1.44-.8-3.02-.92-3.81-.74.19-2.21.62-3.39,1.32-.77.46-.7.6-.51.99.14.3.39.69.71,1.18.37.57.82,1.27,1.34,2.19.06.1.09.16.11.22,1.71,3.25-.77,5.6-2.59,7.31-.45.42-.83.78-1.2,1.14-1.2,1.18-1.89,2.01-1.86,2.73.03.57.51,1.2,1.56,2.07,2.08,1.7,6.7,2.25,8.02,2.37.12-.38.26-.77.39-1.17.97-2.88,2.07-6.14,1.13-10.27-.06-.25.1-.49.35-.55.25-.05.49.1.55.35,1,4.39-.15,7.78-1.15,10.77-.17.51-.34,1.01-.49,1.5l-.11.35Z"/>
            <path class="cls-4" d="M17.09,28.69c-.16,0-.32-.09-.4-.24-.12-.22-.04-.5.19-.62,3.73-2.02,7.04-3.36,10.13-4.1,2.96-.71,5.55-1.14,6.91-1.33-3.83-3.19-7.34-3.83-10.37-4.16l-.47-.05c-.36-.04-.53-.06-1.07-.14-1.16-.17-2.35-.47-3.54-.89-.24-.08-.36-.35-.28-.59.09-.24.35-.36.59-.28,1.13.4,2.26.69,3.36.85.53.08.69.1,1.04.13l.47.05c3.36.38,7.31,1.11,11.64,5.06l.74.68-1,.12s-3.54.42-7.82,1.45c-3.01.72-6.25,2.03-9.9,4.01-.07.04-.14.06-.22.06Z"/>
            <path class="cls-4" d="M24.67,25.27c-.07,0-.15-.02-.21-.07-.15-.11-.18-.33-.07-.48.01-.02,1.37-1.84,1.92-3.5.55-1.67.59-2.67.59-2.68,0-.19.16-.31.35-.33.19,0,.34.16.33.35,0,.04-.04,1.1-.62,2.88-.59,1.78-1.96,3.63-2.02,3.7-.07.09-.17.14-.28.14Z"/>
            <path class="cls-4" d="M29.52,23.59c-.1,0-.19-.04-.26-.12-3.02-3.43-8.49-3.02-8.54-3.02-.15.01-.29-.07-.35-.22-.06-.14-.01-.3.1-.4l2.91-2.34c.15-.12.36-.1.48.05.12.15.1.37-.05.48l-2.12,1.71c1.82.04,5.64.48,8.09,3.27.13.14.11.36-.03.49-.07.06-.15.09-.23.09Z"/>
            <path class="cls-4" d="M19.61,26.62c-.17,0-.32-.13-.34-.3-.02-.19.11-.36.3-.38.09-.02,4.46-1.19,4.12-8.82,0-.19.14-.35.33-.36.18-.01.35.14.36.33.38,8.25-4.66,9.53-4.72,9.53-.01,0-.03,0-.04,0Z"/>
            <path class="cls-4" d="M26.25,33.51s-.02,0-.03,0c-3.26-.24-5.59-1.18-6.93-2.79-1.31-1.58-1.13-3.21-1.13-3.28.02-.19.19-.33.38-.3.19.02.32.19.3.38,0,.01-.14,1.43.98,2.78,1.21,1.45,3.38,2.3,6.43,2.53.19.01.33.18.32.37-.01.18-.16.32-.34.32Z"/>
            <path class="cls-4" d="M27.24,26.62s-.05,0-.08,0l-3.29-.75c-.19-.04-.3-.23-.26-.41.04-.19.23-.3.41-.26l3.29.75c.19.04.3.23.26.41-.04.16-.18.27-.34.27Z"/>
            <path class="cls-4" d="M23.6,28.81c-.07,0-.13-.02-.19-.06-.11-.07-.17-.2-.15-.33l.39-3.23c.02-.19.19-.31.38-.3.19.02.32.19.3.38l-.31,2.56,3.36-1.86c.17-.09.38-.03.47.13.09.17.03.38-.13.47l-3.95,2.19c-.05.03-.11.04-.17.04Z"/>
            <path class="cls-4" d="M21.72,32.71c-.09,0-.18-.04-.24-.1-.11-.11-.13-.27-.06-.4l1.46-2.84-3.65,1.4c-.13.05-.27.02-.37-.08-.1-.1-.12-.25-.07-.37l1.58-3.76c.07-.17.28-.26.45-.18.18.07.26.28.18.45l-1.27,3.01,3.38-1.29c-1.33-1.09-1.35-2.51-1.35-2.53,0-.19.16-.34.34-.34h0c.19,0,.34.16.34.35,0,.12.07,3.04,4.95,3.09.16,0,.3.11.33.27s-.04.31-.18.39l-5.68,2.93s-.1.04-.16.04ZM23.84,29.01l-1.31,2.55,3.62-1.87c-.97-.12-1.72-.37-2.31-.69Z"/>
            <path class="cls-4" d="M19.62,35.34c-.11,0-.22-.06-.29-.15-.08-.12-.08-.29.02-.41l1.49-1.87-4.16.94c-.14.03-.29-.03-.37-.15-.08-.12-.07-.29.03-.4l1.95-2.4-3.07.44c-.19.04-.36-.1-.39-.29-.03-.19.1-.36.29-.39l3.94-.56c.14-.02.28.05.35.17.07.12.06.28-.03.39l-1.88,2.31,4.15-.94c.14-.03.29.03.37.15.08.12.07.28-.02.4l-1.44,1.8,5.26-1.46c.19-.05.37.06.42.24.05.18-.06.37-.24.42l-6.29,1.75s-.06.01-.09.01Z"/>
          </g>
        </g>
        <g>
          <path class="cls-3" d="M32.17,26.68c3.04,0,5.5,2.46,5.5,5.5s-2.46,5.5-5.5,5.5-5.5-2.46-5.5-5.5,2.46-5.5,5.5-5.5M32.17,25.18c-3.86,0-7,3.14-7,7s3.14,7,7,7,7-3.14,7-7-3.14-7-7-7h0Z"/>
          <rect class="cls-4" x="36.67" y="34.95" width="1.5" height="4.95" transform="translate(-15.5 37.42) rotate(-45)"/>
          <g>
            <circle class="cls-3" cx="32.17" cy="32.18" r="5.5"/>
            <path class="cls-4" d="M32.17,28.18c2.21,0,4,1.79,4,4s-1.79,4-4,4-4-1.79-4-4,1.79-4,4-4M32.17,26.68c-3.04,0-5.5,2.46-5.5,5.5s2.46,5.5,5.5,5.5,5.5-2.46,5.5-5.5-2.46-5.5-5.5-5.5h0Z"/>
          </g>
        </g>
      </g>
    </g>
  </g>
</svg>