<?xml version="1.0" encoding="UTF-8"?>
<svg id="Veeam_product_3" data-name="Veeam product 3" xmlns="http://www.w3.org/2000/svg" viewBox="0 0 50 50">
  <defs>
    <style>
      .cls-1 {
        stroke-width: .5px;
      }

      .cls-1, .cls-2 {
        fill: none;
        stroke: #fff;
        stroke-miterlimit: 10;
      }

      .cls-2 {
        stroke-width: 1.5px;
      }

      .cls-3 {
        opacity: 0;
      }

      .cls-3, .cls-4, .cls-5, .cls-6 {
        stroke-width: 0px;
      }

      .cls-3, .cls-4, .cls-6 {
        fill: #fff;
      }

      .cls-4 {
        fill-rule: evenodd;
      }

      .cls-5 {
        fill: #00d15f;
      }
    </style>
  </defs>
  <g id="Veeam_Plug-in_for_SAP_HANA" data-name="Veeam Plug-in for SAP HANA">
    <rect id="BG" class="cls-3" width="50" height="50"/>
    <path class="cls-5" d="M33.19,8H10c-1.1,0-2,.9-2,2v30c0,1.1.9,2,2,2h30c1.1,0,2-.9,2-2v-23.19c0-.53-.21-1.04-.59-1.41l-6.81-6.81c-.38-.38-.88-.59-1.41-.59Z"/>
    <g>
      <g>
        <g>
          <path class="cls-6" d="M25.62,18.73v1.34h1.54v-1.34h.42v3.19h-.42v-1.5h-1.54v1.5h-.41v-3.19h.41Z"/>
          <path class="cls-6" d="M27.67,22.01h-.59v-1.5h-1.37v1.5h-.59v-3.37h.59v1.34h1.37v-1.34h.59v3.37ZM27.25,21.83h.24v-3.01h-.24v1.34h-1.72v-1.34h-.23v3.01h.23v-1.5h1.72v1.5Z"/>
        </g>
        <g>
          <path class="cls-6" d="M28.81,20.92l-.33,1h-.43l1.08-3.19h.5l1.09,3.19h-.44l-.34-1h-1.13ZM29.86,20.59l-.31-.92c-.07-.21-.12-.4-.17-.58h0c-.05.19-.1.38-.16.58l-.31.92h.96Z"/>
          <path class="cls-6" d="M30.85,22.01h-.63l-.34-1h-1l-.33,1h-.61l1.14-3.37h.62l1.15,3.37ZM30.35,21.83h.25l-1.03-3.01h-.37l-1.02,3.01h.24l.33-1h1.26l.34,1ZM29.98,20.68h-1.21l.35-1.04c.05-.17.1-.35.16-.57l.02-.07h.14l.04.1c.04.17.09.35.15.54l.35,1.04ZM29.02,20.5h.71l-.27-.8c-.03-.1-.06-.19-.09-.28-.03.1-.05.19-.08.27l-.27.81Z"/>
        </g>
        <g>
          <path class="cls-6" d="M31.19,21.92v-3.19h.45l1.02,1.61c.24.37.42.71.57,1.04h0c-.04-.43-.05-.82-.05-1.32v-1.34h.39v3.19h-.42l-1.01-1.62c-.22-.36-.44-.72-.6-1.07h-.01c.02.41.03.79.03,1.32v1.36h-.39Z"/>
          <path class="cls-6" d="M33.68,22.01h-.56l-1.04-1.66c-.17-.27-.31-.51-.43-.73.01.28.01.57.01.94v1.45h-.57v-3.37h.59l1.05,1.66c.15.23.28.45.39.67-.01-.29-.02-.58-.02-.9v-1.42h.57v3.37ZM33.22,21.83h.28v-3.01h-.21v1.25c0,.46,0,.86.05,1.3v.06s-.13.07-.13.07l-.05-.08c-.15-.33-.34-.66-.57-1.03l-1-1.57h-.31v3.01h.21v-1.27c0-.54,0-.92-.03-1.31v-.07s.14-.04.14-.04l.05.07c.14.3.33.63.59,1.06l.99,1.58Z"/>
        </g>
        <g>
          <path class="cls-6" d="M34.82,20.92l-.33,1h-.43l1.08-3.19h.5l1.09,3.19h-.44l-.34-1h-1.13ZM35.87,20.59l-.31-.92c-.07-.21-.12-.4-.17-.58h0c-.05.19-.1.38-.16.58l-.31.92h.96Z"/>
          <path class="cls-6" d="M36.86,22.01h-.63l-.34-1h-1l-.33,1h-.61l1.14-3.37h.62l1.15,3.37ZM36.36,21.83h.25l-1.03-3.01h-.37l-1.02,3.01h.24l.33-1h1.26l.34,1ZM35.99,20.68h-1.21l.35-1.04c.05-.17.1-.35.16-.57l.02-.07h.14l.04.1c.04.17.09.35.15.54l.35,1.04ZM35.03,20.5h.71l-.27-.8c-.03-.1-.06-.19-.09-.28-.03.1-.05.19-.08.27l-.27.81Z"/>
        </g>
      </g>
      <g>
        <path class="cls-4" d="M11.5,16.08v7.88l8-.07,7.52-7.8h-15.51ZM21.19,20.62h-.47v1.41h-2.18l-.22-.67c-.23.08-.49.12-.77.12s-.55-.04-.78-.12l-.22.68h-1.33l.15-.39s-.04.03-.05.05c-.33.27-.75.41-1.26.42h-.08c-.59,0-1.17-.16-1.66-.44l.45-.9c.49.29.8.36,1.22.35.22,0,.37-.04.47-.15.06-.06.09-.14.1-.23,0-.23-.33-.34-.74-.47-.33-.1-.71-.24-1-.46-.35-.26-.51-.57-.5-1.03,0-.33.13-.62.35-.86.32-.33.84-.54,1.47-.54h0c.54,0,1.19.15,1.66.39l-.51.89c-.52-.25-.78-.27-1.07-.29-.44-.02-.66.13-.66.3,0,.21.41.39.81.52.6.19,1.36.45,1.48,1.18l1.1-2.92h1.27l1.28,3.49v-3.49h1.47c1.4,0,2.06.5,2.06,1.59,0,.98-.68,1.56-1.83,1.56Z"/>
        <path class="cls-4" d="M21.04,18.43h-.32v1.18h.32c.43,0,.77-.14.77-.6s-.34-.59-.77-.59Z"/>
        <path class="cls-4" d="M17.55,18.9l-.47,1.47c.14.05.3.08.47.08s.32-.03.46-.08l-.46-1.47h0Z"/>
      </g>
      <rect class="cls-1" x="11.5" y="15.96" width="26.5" height="8"/>
    </g>
    <g>
      <line class="cls-2" x1="24.79" y1="33.01" x2="40.5" y2="33.01"/>
      <line class="cls-2" x1="9.5" y1="33.01" x2="20.07" y2="33.01"/>
      <circle class="cls-6" cx="24.79" cy="33.01" r="2.36"/>
      <path class="cls-2" d="M28.33,36.55c-1.96,1.96-5.13,1.96-7.08,0-1.96-1.96-1.96-5.13,0-7.08s5.13-1.96,7.08,0"/>
    </g>
  </g>
</svg>