<?xml version="1.0" encoding="UTF-8"?>
<svg id="Veeam_product_3" data-name="Veeam product 3" xmlns="http://www.w3.org/2000/svg" viewBox="0 0 50 50">
  <defs>
    <style>
      .cls-1 {
        fill: none;
        stroke: #fff;
        stroke-miterlimit: 10;
        stroke-width: 1.5px;
      }

      .cls-2 {
        opacity: 0;
      }

      .cls-2, .cls-3, .cls-4 {
        stroke-width: 0px;
      }

      .cls-2, .cls-4 {
        fill: #fff;
      }

      .cls-3 {
        fill: #00d15f;
      }
    </style>
  </defs>
  <g id="Veeam_Explorerfor_SharePoint" data-name="Veeam Explorerfor SharePoint">
    <rect id="BG" class="cls-2" width="50" height="50"/>
    <path class="cls-3" d="M33.19,8H10c-1.1,0-2,.9-2,2v30c0,1.1.9,2,2,2h30c1.1,0,2-.9,2-2v-23.19c0-.53-.21-1.04-.59-1.41l-6.81-6.81c-.38-.38-.88-.59-1.41-.59Z"/>
    <g>
      <circle class="cls-4" cx="24" cy="18" r="6.5"/>
      <g>
        <circle class="cls-4" cx="31.5" cy="25.5" r="7.25"/>
        <path class="cls-3" d="M31.5,19c3.59,0,6.5,2.91,6.5,6.5s-2.91,6.5-6.5,6.5-6.5-2.91-6.5-6.5,2.91-6.5,6.5-6.5M31.5,17.5c-4.41,0-8,3.59-8,8s3.59,8,8,8,8-3.59,8-8-3.59-8-8-8h0Z"/>
      </g>
      <g>
        <rect class="cls-4" x="12.25" y="17.25" width="12.5" height="12.5" rx="1.75" ry="1.75"/>
        <path class="cls-3" d="M23,18c.55,0,1,.45,1,1v9c0,.55-.45,1-1,1h-9c-.55,0-1-.45-1-1v-9c0-.55.45-1,1-1h9M23,16.5h-9c-1.38,0-2.5,1.12-2.5,2.5v9c0,1.38,1.12,2.5,2.5,2.5h9c1.38,0,2.5-1.12,2.5-2.5v-9c0-1.38-1.12-2.5-2.5-2.5h0Z"/>
      </g>
      <path class="cls-3" d="M15.98,26.68v-1.35c.3.24.66.4,1.04.48.37.1.74.17,1.12.19.36.04.72-.03,1.04-.19.23-.11.37-.34.36-.6,0-.18-.08-.35-.2-.48-.15-.15-.32-.28-.52-.36-.32-.17-.66-.31-1-.44-.35-.15-.68-.32-1-.52-.25-.16-.45-.38-.6-.64-.33-.64-.26-1.42.19-1.99.28-.32.64-.55,1.04-.68.45-.16.93-.23,1.4-.19.62-.02,1.25.06,1.84.24v1.31c-.26-.17-.54-.29-.84-.36-.31-.08-.63-.12-.96-.12-.34,0-.68.07-1,.19-.23.11-.39.34-.4.6.01.16.07.31.16.44.13.13.28.24.44.32.19.08.48.19.84.36.04,0,.08.04.12.04.36.16.72.32,1.08.52.26.16.48.38.64.64.16.29.24.62.24.95-.05.43-.22.84-.48,1.19-.25.3-.58.52-.96.64-.44.12-.9.19-1.36.19-.42,0-.83-.04-1.24-.12-.34-.05-.68-.14-1-.27h0Z"/>
    </g>
    <g>
      <path class="cls-3" d="M28,27.5c3.04,0,5.5,2.46,5.5,5.5s-2.46,5.5-5.5,5.5-5.5-2.46-5.5-5.5,2.46-5.5,5.5-5.5M28,26c-3.86,0-7,3.14-7,7s3.14,7,7,7,7-3.14,7-7-3.14-7-7-7h0Z"/>
      <line class="cls-1" x1="31.5" y1="36.5" x2="35" y2="40"/>
      <g>
        <circle class="cls-3" cx="28" cy="33" r="4.75"/>
        <path class="cls-4" d="M28,29c2.21,0,4,1.79,4,4s-1.79,4-4,4-4-1.79-4-4,1.79-4,4-4M28,27.5c-3.04,0-5.5,2.46-5.5,5.5s2.46,5.5,5.5,5.5,5.5-2.46,5.5-5.5-2.46-5.5-5.5-5.5h0Z"/>
      </g>
    </g>
  </g>
</svg>