<?xml version="1.0" encoding="UTF-8"?>
<svg id="Veeam_product_3" data-name="Veeam product 3" xmlns="http://www.w3.org/2000/svg" viewBox="0 0 50 50">
  <defs>
    <style>
      .cls-1 {
        fill: none;
        stroke: #fff;
        stroke-miterlimit: 10;
        stroke-width: 1.5px;
      }

      .cls-2 {
        opacity: 0;
      }

      .cls-2, .cls-3, .cls-4 {
        stroke-width: 0px;
      }

      .cls-2, .cls-4 {
        fill: #fff;
      }

      .cls-3 {
        fill: #00d15f;
      }
    </style>
  </defs>
  <g id="Veeam_Explorer_for_Storage_Snaphots" data-name="Veeam Explorer for Storage Snaphots">
    <rect id="BG" class="cls-2" width="50" height="50"/>
    <path class="cls-3" d="M33.19,8H10c-1.1,0-2,.9-2,2v30c0,1.1.9,2,2,2h30c1.1,0,2-.9,2-2v-23.19c0-.53-.21-1.04-.59-1.41l-6.81-6.81c-.38-.38-.88-.59-1.41-.59Z"/>
    <rect class="cls-4" x="12.5" y="18.5" width="24.5" height="10.5" rx="1" ry="1"/>
    <g>
      <rect class="cls-3" x="16.5" y="20.5" width="1.5" height="6.5"/>
      <rect class="cls-3" x="21.5" y="20.5" width="1.5" height="6.5"/>
      <rect class="cls-3" x="26.5" y="20.5" width="1.5" height="6.5"/>
      <rect class="cls-3" x="31.5" y="20.5" width="1.5" height="6.5"/>
    </g>
    <g>
      <path class="cls-3" d="M31.5,26c3.04,0,5.5,2.46,5.5,5.5s-2.46,5.5-5.5,5.5-5.5-2.46-5.5-5.5,2.46-5.5,5.5-5.5M31.5,24.5c-3.86,0-7,3.14-7,7s3.14,7,7,7,7-3.14,7-7-3.14-7-7-7h0Z"/>
      <line class="cls-1" x1="35" y1="35" x2="38.5" y2="38.5"/>
      <g>
        <circle class="cls-3" cx="31.5" cy="31.5" r="4.75"/>
        <path class="cls-4" d="M31.5,27.5c2.21,0,4,1.79,4,4s-1.79,4-4,4-4-1.79-4-4,1.79-4,4-4M31.5,26c-3.04,0-5.5,2.46-5.5,5.5s2.46,5.5,5.5,5.5,5.5-2.46,5.5-5.5-2.46-5.5-5.5-5.5h0Z"/>
      </g>
    </g>
  </g>
</svg>