<?xml version="1.0" encoding="UTF-8"?>
<svg id="Veeam_product_3" data-name="Veeam product 3" xmlns="http://www.w3.org/2000/svg" viewBox="0 0 50 50">
  <defs>
    <style>
      .cls-1 {
        fill: #00cf5f;
      }

      .cls-1, .cls-2, .cls-3, .cls-4, .cls-5 {
        stroke-width: 0px;
      }

      .cls-2 {
        opacity: 0;
      }

      .cls-2, .cls-3, .cls-5 {
        fill: #fff;
      }

      .cls-3 {
        fill-rule: evenodd;
      }

      .cls-4 {
        fill: #00d15f;
      }
    </style>
  </defs>
  <g id="Veeam_Explorer_for_PosgreSQL" data-name="Veeam Explorer  for PosgreSQL">
    <rect id="BG" class="cls-2" x="-.33" y=".12" width="50" height="50"/>
    <g id="Veeam_Explorer_for_PosgreSQL-2" data-name="Veeam Explorer  for PosgreSQL">
      <rect id="BG-2" data-name="BG" class="cls-2" x="-.33" y=".12" width="50" height="50"/>
      <g>
        <g>
          <path class="cls-1" d="M32.85,8.12H9.67c-1.1,0-2,.9-2,2v30c0,1.1.9,2,2,2h30c1.1,0,2-.9,2-2v-23.19c0-.53-.21-1.04-.59-1.41l-6.81-6.81c-.38-.38-.88-.59-1.41-.59Z"/>
          <g id="PostgreSQL">
            <g>
              <g>
                <path class="cls-5" d="M33.37,28.54c-.13,0-.26-.05-.35-.15-.19-.19-.2-.5,0-.7h0s0,0,0,0h0s0,0,0,0c0,0,0,0,0,0h0s0,0,0,0c0,0,0,0,0,0,0,0,0,0,0,0,0,0,0,0,0,0h0c.2-.2.51-.2.71,0s.2.51,0,.71c-.1.1-.23.15-.36.15Z"/>
                <path class="cls-5" d="M29.88,30.53c-.45,0-.88-.06-1.14-.22-.24-.14-.31-.45-.17-.69.14-.24.45-.31.69-.17.33.2,2.02-.03,2.36-.19.98-.29,1.37-.7,1.48-.92-.08.02-.17.04-.25.06-.43.11-1.01.27-1.75.23-.8-.04-1.48-.41-1.67-.58-.21-.18-.23-.5-.04-.71.18-.2.49-.22.7-.05.09.07.53.31,1.06.34.59.02,1.06-.1,1.45-.2.47-.12.95-.25,1.29.13.23.25.3.61.19.98-.2.71-.99,1.32-2.1,1.64-.22.11-1.22.33-2.1.33ZM17.44,29.99c-.38,0-.75-.17-1.11-.5-.81-.75-1.52-2.32-1.86-3.2-.46-1.2-.91-2.67-1.26-4.16-.31-1.27-.5-2.38-.52-2.81-.1-1.95.33-3.42,1.28-4.36.74-.75,1.82-1.17,3.21-1.25.29-.02.64-.02.9,0,1.26.05,2.47.39,3.28.64.26.08.41.36.33.63-.08.26-.36.41-.63.33-.48-.15-1.75-.54-3.05-.6-.13-.01-.26-.01-.4-.01-.12,0-.25,0-.38,0-1.16.07-2,.38-2.57.96-.74.74-1.08,1.95-.99,3.61.02.32.18,1.35.5,2.63.34,1.45.78,2.87,1.22,4.03.53,1.34,1.12,2.38,1.61,2.83.12.11.3.29.43.24.06,0,.23-.04.51-.36.31-.35.8-.88,1.25-1.36l.75-.81c.19-.2.5-.22.71-.03.2.19.22.5.03.71l-.76.82c-.44.48-.93,1-1.23,1.34-.39.44-.8.67-1.21.69-.02,0-.03,0-.05,0Z"/>
                <path class="cls-5" d="M25.54,36.87c-.56,0-1.01-.16-1.4-.5-.42-.36-.64-.84-.81-1.27-.08-.19-.14-.6-.18-.92-.04-.4-.08-.9-.1-1.46-.03-.74-.04-1.47-.04-2.22,0-.63.01-1.25.03-1.78-.03-.12-.04-.18-.06-.25-.05-.15-.19-.42-.45-.53-.05-.02-.1-.05-.15-.08-.08-.05-.11-.06-.17-.06-.17.04-.37,0-.49-.13-.12-.13-.19-.3-.14-.47.1-.38.23-.76.34-1.05.05-.14.12-.3.2-.47.39-.9.93-2.14.35-4.89-.19-.66-.61-1.51-1.4-1.63-.67-.1-1.33.35-1.5.62-.12.18-.34.27-.55.21-.21-.06-.36-.25-.37-.46,0-.06-.05-1.38.34-2.43.37-1.01.91-1.82,1.58-2.4.83-.7,1.82-1.05,3.04-1.06.01,0,.02,0,.03,0h.12c2.28.04,4.25,1.05,5.68,2.92.46.6.84,1.25,1.14,1.97.05.13.08.22.11.31.05.16.03.38-.08.51-.11.13-.26.24-.42.22-1.01-.1-1.71.05-2.06.47-.33.39-.39,1-.18,1.87.16.64.46,1.39.92,2.3.16.31.31.59.44.82h0s.01.02.02.04c.1.17.19.35.3.58.17.4.36.73.6,1.03,0,0,.01.02.02.02.09.12.18.24.28.38.09.13.11.3.06.45-.04.12-.12.21-.23.27-.13.1-.57.59-.78,1.39-.03.55-.41,3.75-.6,4.86-.14.85-.38,1.41-.77,1.82-.41.43-.98.71-1.86.91-.28.06-.54.09-.79.09ZM23.99,28.5c.02.08.03.15.03.23-.02.55-.03,1.16-.03,1.77,0,.73.02,1.45.04,2.18.02.54.06,1.01.1,1.39.04.37.1.61.12.66.13.33.28.67.53.88.21.18.55.36,1.33.19.67-.15,1.08-.34,1.35-.61.25-.26.41-.67.51-1.31.18-1.07.56-4.25.6-4.86.2-.76.54-1.35.85-1.72-.29-.37-.54-.78-.72-1.21-.09-.19-.16-.33-.23-.46,0-.01-.01-.02-.02-.04-.18-.33-.33-.61-.5-.93-.51-.99-.82-1.79-1-2.52-.29-1.2-.16-2.1.4-2.76.47-.55,1.17-.83,2.13-.85-.24-.49-.51-.95-.84-1.37-1.26-1.64-2.91-2.5-4.9-2.53h-.06s-.04,0-.05,0c-.98,0-1.78.27-2.43.82-.55.46-.98,1.13-1.29,1.98-.11.31-.18.66-.22.98.45-.22.98-.33,1.5-.26.73.1,1.71.6,2.23,2.37.66,3.1.02,4.57-.41,5.54-.07.15-.13.3-.18.43-.05.12-.1.26-.15.4.08.03.14.07.18.1.49.21.84.61,1.03,1.13.04.12.07.24.09.36Z"/>
                <path class="cls-5" d="M20.63,31.02c-.88,0-1.46-.19-1.75-.57-.19-.24-.23-.56-.12-.83.16-.42.58-.53.99-.64.25-.07.53-.15.82-.29.32-.16.75-.52,1.11-.87-.93-.09-1.81-.56-2.46-1.32-.74-.87-1.07-2-.91-3.1.13-.91.3-4.04.3-4.07.02-.28.27-.5.53-.47.28.01.49.25.47.53,0,.13-.17,3.2-.31,4.16-.12.82.12,1.66.68,2.31.54.63,1.29.99,2.05.99.17,0,.33.09.42.23.1-.06.21-.08.32-.06.16.02.31.12.38.27l.81,1.64c.06.12.07.27.02.4-.02.06-.58,1.46-2.48,1.66-.32.03-.61.05-.87.05ZM19.95,29.96c.24.06.68.1,1.45.02.93-.1,1.38-.59,1.56-.85l-.38-.77c-.43.42-1.04.98-1.56,1.23-.38.18-.72.28-1,.35-.02,0-.04.01-.07.02ZM30.1,27.87c-.13,0-.26-.05-.35-.15-.2-.2-.17-.37-.06-.98.1-.57.28-1.53.3-2.41.02-1.07-.13-4.18-.26-5.2-.03-.27.16-.52.44-.56.28-.04.52.16.56.44.13,1.07.28,4.22.26,5.35,0,.2-.02.4-.04.6.63-1.27,1.21-2.81,1.75-4.65.3-1.01.46-1.92.47-2.64.01-.67-.13-1.09-.23-1.19-1.25-1.38-3.04-2.09-5.31-2.11h-.17c-.35,0-.73.12-1.12.25-.29.09-.57.18-.85.23-.27.05-.53-.13-.58-.4-.05-.27.13-.53.4-.58.24-.05.48-.12.73-.2.45-.14.91-.29,1.42-.3h.19c2.57.01,4.6.83,6.05,2.44.32.35.5,1.04.48,1.88-.01.81-.19,1.81-.51,2.91-.93,3.12-1.96,5.43-3.16,7.07-.09.12-.22.19-.37.2-.01,0-.03,0-.04,0Z"/>
              </g>
              <path class="cls-3" d="M20.72,20.19c-.18.04-.25.13-.26.23s.06.22.16.33c.11.11.26.21.43.23h0c.17.02.34-.04.46-.11.13-.09.21-.21.22-.29.01-.11-.06-.21-.19-.28-.23-.12-.57-.17-.82-.11h0Z"/>
              <path class="cls-3" d="M29.2,20.02c-.11-.03-.25-.03-.4-.01-.15.02-.29.07-.38.12-.11.07-.16.14-.16.21,0,.11.11.21.25.29.12.06.24.09.35.07.15-.02.29-.09.41-.22.1-.1.16-.23.15-.3-.01-.08-.09-.14-.21-.17Z"/>
            </g>
          </g>
        </g>
        <g>
          <path class="cls-4" d="M32.3,26.87c3.04,0,5.5,2.46,5.5,5.5s-2.46,5.5-5.5,5.5-5.5-2.46-5.5-5.5,2.46-5.5,5.5-5.5M32.3,25.37c-3.86,0-7,3.14-7,7s3.14,7,7,7,7-3.14,7-7-3.14-7-7-7h0Z"/>
          <rect class="cls-5" x="36.8" y="35.15" width="1.5" height="4.95" transform="translate(-15.61 37.57) rotate(-45)"/>
          <g>
            <circle class="cls-4" cx="32.3" cy="32.37" r="5.5"/>
            <path class="cls-5" d="M32.3,28.37c2.21,0,4,1.79,4,4s-1.79,4-4,4-4-1.79-4-4,1.79-4,4-4M32.3,26.87c-3.04,0-5.5,2.46-5.5,5.5s2.46,5.5,5.5,5.5,5.5-2.46,5.5-5.5-2.46-5.5-5.5-5.5h0Z"/>
          </g>
        </g>
      </g>
    </g>
  </g>
</svg>