<?xml version="1.0" encoding="UTF-8"?>
<svg id="Veeam_product_1" data-name="Veeam product 1" xmlns="http://www.w3.org/2000/svg" viewBox="0 0 50 50">
  <defs>
    <style>
      .cls-1 {
        opacity: 0;
      }

      .cls-1, .cls-2, .cls-3 {
        stroke-width: 0px;
      }

      .cls-1, .cls-3 {
        fill: #fff;
      }

      .cls-2 {
        fill: #00d15f;
      }
    </style>
  </defs>
  <rect id="BG" class="cls-1" width="50" height="50"/>
  <path class="cls-2" d="M33.19,8H10c-1.1,0-2,.9-2,2v30c0,1.1.9,2,2,2h30c1.1,0,2-.9,2-2v-23.19c0-.53-.21-1.04-.59-1.41l-6.81-6.81c-.38-.38-.88-.59-1.41-.59Z"/>
  <g>
    <g>
      <path class="cls-3" d="M27.88,30.92h1.34l1.55,4.48h-1.28l-.3-.89h-1.47l-.28.89h-1.13l1.57-4.48ZM27.96,33.7h.98l-.48-1.49h-.03l-.47,1.49Z"/>
      <path class="cls-3" d="M30.49,30.92h1.26l.59,2.82h.03l.72-2.82h1.01l.71,2.82h.03l.63-2.82h1.09l-1.07,4.48h-1.26l-.67-2.76h-.02l-.7,2.76h-1.27l-1.07-4.48Z"/>
      <path class="cls-3" d="M36.75,35.21v-.92c.39.14.81.25,1.33.25s.7-.15.7-.42-.12-.34-.55-.43l-.34-.06c-.71-.14-1.15-.45-1.15-1.39,0-.85.53-1.4,1.67-1.4.71,0,1.07.11,1.33.23v.9c-.31-.11-.7-.21-1.21-.21-.4,0-.61.12-.61.38,0,.24.13.33.52.41l.34.06c.79.15,1.23.47,1.23,1.38,0,.96-.61,1.48-1.78,1.48-.63,0-1.15-.1-1.47-.26Z"/>
    </g>
    <g>
      <path class="cls-3" d="M28.08,19.57c-.02-.16-.07-.45-.13-.68-.72-2.88-3.29-4.9-6.23-4.9-1.84,0-3.61.82-4.85,2.25-.32.37-1.35,1.72-1.25,3.68,0,.06,0,.13.01.2,0,.02,0,.04,0,.06,0,.06.01.12.02.18v.07c.02.06.03.12.04.18l.05.25s.01.05.02.09c.01.06.03.12.05.17,0,.03.02.05.03.1v.04s.04.09.05.13l.04.09c.04.1.07.19.12.29l.12.26c.02.05.05.1.08.15l.07.12c.03.05.06.11.09.16.02.04.05.08.08.12.02.04.05.07.07.11l.11.17c.04.06.08.11.12.17.03.04.06.08.08.12.04.06.09.12.14.17.03.04.06.07.08.11.06.07.12.14.17.2l.02.03s.03.04.04.05c.09.1.17.19.27.29l.73.73c.27.26.56.55.89.88l.03.03s.07.07.11.11l.16.15c1.07,1.04,2.27,2.2,3.13,3.03h-5.98v1.59h8.72v-8.72h-1.59v6.04c-1.29-1.24-3.94-3.79-5.07-4.94-2.87-2.91-.9-5.34-.67-5.6.94-1.08,2.27-1.7,3.65-1.7,2.22,0,4.14,1.52,4.69,3.7.06.25.13.75.14.9l.05.43.39.19s.18.09.27.13c2.34,1.23,3.67,3.38,3.67,5.9,0,.51-.05,1.02-.16,1.52l-.03.15h1.62l.02-.1c.1-.52.14-1.05.14-1.57,0-3.1-1.62-5.75-4.45-7.27Z"/>
      <path class="cls-3" d="M24.47,34.03c-.1,0-.21.03-.31.03h-6.46c-2.88,0-5.22-2.34-5.22-5.22,0-2.01,1.18-3.86,3.02-4.72l.14-.06-.09-.12c-.27-.38-.5-.76-.69-1.13l-.06-.11-.11.05c-2.3,1.15-3.79,3.54-3.79,6.1,0,3.73,3.04,6.78,6.77,6.8h6.5c.1,0,.21-.02.31-.02v-1.59Z"/>
    </g>
  </g>
</svg>