<?xml version="1.0" encoding="UTF-8"?>
<svg id="Veeam_product_3" data-name="Veeam product 3" xmlns="http://www.w3.org/2000/svg" viewBox="0 0 50 50">
  <defs>
    <style>
      .cls-1 {
        fill: none;
        stroke: #fff;
        stroke-miterlimit: 10;
        stroke-width: 1.5px;
      }

      .cls-2 {
        opacity: 0;
      }

      .cls-2, .cls-3, .cls-4 {
        stroke-width: 0px;
      }

      .cls-2, .cls-4 {
        fill: #fff;
      }

      .cls-3 {
        fill: #00d15f;
      }
    </style>
  </defs>
  <g id="_Plug-in_for_Azure" data-name=" Plug-in for Azure">
    <rect id="BG" class="cls-2" width="50" height="50"/>
    <path class="cls-3" d="M33.19,8H10c-1.1,0-2,.9-2,2v30c0,1.1.9,2,2,2h30c1.1,0,2-.9,2-2v-23.19c0-.53-.21-1.04-.59-1.41l-6.81-6.81c-.38-.38-.88-.59-1.41-.59Z"/>
    <g>
      <path class="cls-4" d="M26.54,24.47c.32-.1.5-.44.39-.76,0,0,0,0,0,0l-1.17-3.43h-3.76c-.16,0-.28.13-.28.28,0,.08.03.15.08.2l3.95,3.58c.12.1.27.16.42.16h.14c.08,0,.15,0,.22-.03h0Z"/>
      <path class="cls-4" d="M28.07,12.91c-.09-.26-.34-.42-.62-.41h-4.32c.27,0,.5.17.59.41l3.77,10.8c.11.31-.06.65-.38.76,0,0,0,0,0,0-.06.01-.13.01-.2,0h4.35c.34,0,.62-.27.62-.6.01-.06.01-.13,0-.2l-3.81-10.76Z"/>
      <path class="cls-4" d="M22,19.69h1.91l.81-2.28-1.56-4.51c-.08-.24-.32-.41-.59-.41h-.05c-.27,0-.5.17-.59.41l-3.81,10.8c-.01.06-.01.13,0,.19,0,.33.28.6.62.6h3.04c.27,0,.51-.16.59-.41l.53-1.54-1.51-1.37c-.19-.16-.29-.39-.29-.63-.02-.45.34-.84.8-.86.03,0,.06,0,.09,0h0Z"/>
    </g>
    <g>
      <line class="cls-1" x1="24.79" y1="33.01" x2="40.5" y2="33.01"/>
      <line class="cls-1" x1="9.5" y1="33.01" x2="20.07" y2="33.01"/>
      <circle class="cls-4" cx="24.79" cy="33.01" r="2.36"/>
      <path class="cls-1" d="M28.33,36.55c-1.96,1.96-5.13,1.96-7.08,0-1.96-1.96-1.96-5.13,0-7.08s5.13-1.96,7.08,0"/>
    </g>
  </g>
</svg>