<?xml version="1.0" encoding="UTF-8"?>
<svg id="Veeam_product_3" data-name="Veeam product 3" xmlns="http://www.w3.org/2000/svg" viewBox="0 0 50 50">
  <defs>
    <style>
      .cls-1 {
        fill: none;
        stroke: #fff;
        stroke-miterlimit: 10;
        stroke-width: 1.5px;
      }

      .cls-2 {
        opacity: 0;
      }

      .cls-2, .cls-3, .cls-4 {
        stroke-width: 0px;
      }

      .cls-2, .cls-4 {
        fill: #fff;
      }

      .cls-3 {
        fill: #00d15f;
      }
    </style>
  </defs>
  <g id="Veeam_Explorer_for_Exchange" data-name="Veeam Explorer for Exchange">
    <rect id="BG" class="cls-2" width="50" height="50"/>
    <path class="cls-3" d="M33.19,8H10c-1.1,0-2,.9-2,2v30c0,1.1.9,2,2,2h30c1.1,0,2-.9,2-2v-23.19c0-.53-.21-1.04-.59-1.41l-6.81-6.81c-.38-.38-.88-.59-1.41-.59Z"/>
    <path class="cls-4" d="M24.5,31.5c0-3.74,2.95-6.8,6.65-6.98v-.02s1.8,0,1.8,0c.36,0,.7-.13.98-.36l2.55-2.19c.33-.28.52-.7.52-1.14v-5.31c0-.83-.67-1.5-1.5-1.5h-5.88c-.4,0-.78.16-1.06.44l-2.12,2.12c-.28.28-.44.66-.44,1.06v5.33c0,1.68-1.36,3.05-3.05,3.05h-7.95c-.83,0-1.5.67-1.5,1.5v7.5c0,.83.67,1.5,1.5,1.5h5.88c.4,0,.78-.16,1.06-.44l2.12-2.12c.28-.28.44-.66.44-1.06v-1.19h0c0-.06,0-.12,0-.19Z"/>
    <path class="cls-4" d="M15.06,14h7.94c.83,0,1.5.67,1.5,1.5v7.44c0,.86-.7,1.56-1.56,1.56h-7.87c-.86,0-1.56-.7-1.56-1.56v-7.37c0-.86.7-1.56,1.56-1.56Z"/>
    <g>
      <rect class="cls-4" x="10" y="18" width="12.5" height="12.5" rx="1.75" ry="1.75"/>
      <path class="cls-3" d="M20.75,18.75c.55,0,1,.45,1,1v9c0,.55-.45,1-1,1h-9c-.55,0-1-.45-1-1v-9c0-.55.45-1,1-1h9M20.75,17.25h-9c-1.38,0-2.5,1.12-2.5,2.5v9c0,1.38,1.12,2.5,2.5,2.5h9c1.38,0,2.5-1.12,2.5-2.5v-9c0-1.38-1.12-2.5-2.5-2.5h0Z"/>
    </g>
    <g>
      <path class="cls-3" d="M31.5,26c3.04,0,5.5,2.46,5.5,5.5s-2.46,5.5-5.5,5.5-5.5-2.46-5.5-5.5,2.46-5.5,5.5-5.5M31.5,24.5c-3.86,0-7,3.14-7,7s3.14,7,7,7,7-3.14,7-7-3.14-7-7-7h0Z"/>
      <line class="cls-1" x1="35" y1="35" x2="38.5" y2="38.5"/>
      <g>
        <circle class="cls-3" cx="31.5" cy="31.5" r="4.75"/>
        <path class="cls-4" d="M31.5,27.5c2.21,0,4,1.79,4,4s-1.79,4-4,4-4-1.79-4-4,1.79-4,4-4M31.5,26c-3.04,0-5.5,2.46-5.5,5.5s2.46,5.5,5.5,5.5,5.5-2.46,5.5-5.5-2.46-5.5-5.5-5.5h0Z"/>
      </g>
    </g>
    <polygon class="cls-3" points="18.5 27.01 14.57 27.01 14.57 21 18.36 21 18.36 21.99 15.74 21.99 15.74 23.51 18.18 23.51 18.18 24.46 15.74 24.46 15.74 26.02 18.49 26.02 18.5 27.01 18.5 27.01"/>
  </g>
</svg>