<?xml version="1.0" encoding="UTF-8"?>
<svg id="Veeam_product_1" data-name="Veeam product 1" xmlns="http://www.w3.org/2000/svg" viewBox="0 0 50 50">
  <defs>
    <style>
      .cls-1 {
        stroke: #fff;
        stroke-miterlimit: 10;
        stroke-width: 1.5px;
      }

      .cls-1, .cls-2 {
        fill: #00d15f;
      }

      .cls-3 {
        opacity: 0;
      }

      .cls-3, .cls-2, .cls-4 {
        stroke-width: 0px;
      }

      .cls-3, .cls-4 {
        fill: #fff;
      }
    </style>
  </defs>
  <g id="Veeam_Management_Pack_for_System_Center" data-name="Veeam Management Pack  for System Center">
    <rect id="BG" class="cls-3" width="50" height="50"/>
    <path class="cls-2" d="M33.19,8H10c-1.1,0-2,.9-2,2v30c0,1.1.9,2,2,2h30c1.1,0,2-.9,2-2v-23.19c0-.53-.21-1.04-.59-1.41l-6.81-6.81c-.38-.38-.88-.59-1.41-.59Z"/>
    <path class="cls-4" d="M36,32v2.44l-6.36-6.36c.03.3.05.61.05.92,0,.4-.03.79-.08,1.17l5.33,5.33h-2.44v1.5h5v-5h-1.5Z"/>
    <path class="cls-4" d="M15.56,14h2.44v-1.5h-5v5h1.5v-2.44l4.33,4.3c.38-.05.77-.08,1.17-.08.31,0,.62.02.92.05l-5.36-5.33Z"/>
    <path class="cls-1" d="M26.45,30.52h0c-.38-.21-.58-.62-.55-1.04.01-.16.02-.32.02-.48s0-.32-.02-.48c-.04-.42.17-.83.55-1.04.53-.3.71-.96.41-1.48l-.89-1.5c-.31-.52-.98-.69-1.51-.4h0c-.38.21-.84.18-1.2-.06-.27-.18-.55-.34-.85-.48-.39-.18-.65-.56-.65-.98h0c0-.6-.5-1.09-1.11-1.09h-1.78c-.61,0-1.11.48-1.11,1.08h0c0,.43-.26.8-.65.99-.3.14-.58.3-.85.48-.36.24-.82.27-1.2.06h0c-.53-.3-1.21-.12-1.51.39l-.89,1.5c-.31.52-.12,1.18.41,1.48.38.21.58.62.55,1.04-.01.16-.02.32-.02.48s0,.32.02.48c.04.42-.17.83-.55,1.04-.53.3-.71.96-.41,1.48l.89,1.5c.31.52.98.69,1.51.4h0c.38-.21.84-.18,1.2.06.27.18.55.34.85.48.39.18.65.56.65.98h0c0,.6.5,1.09,1.11,1.09h1.78c.61,0,1.11-.48,1.11-1.08h0c0-.43.26-.8.65-.99.3-.14.58-.3.85-.48.36-.24.82-.27,1.2-.06h0c.53.3,1.21.12,1.51-.39l.89-1.5c.31-.52.12-1.18-.41-1.48ZM22.38,30.97c-.18.23-.38.43-.61.6-.02.01-.03.02-.04.04-.11.08-.22.14-.33.21-.04.02-.09.05-.13.07-.12.06-.24.11-.36.16-.03,0-.05.02-.08.02-.34.11-.69.19-1.07.19-.35,0-.68-.07-1-.17,0,0,0,0-.01,0-1.02-.32-1.81-1.1-2.14-2.09,0,0,0,0,0-.01-.1-.31-.17-.63-.17-.98,0-.37.08-.71.19-1.04,0-.03.02-.05.02-.08.05-.12.1-.24.16-.35.02-.04.05-.09.07-.13.07-.11.13-.22.21-.32.01-.02.03-.03.04-.05.18-.22.38-.42.61-.6.02-.01.03-.03.05-.04.11-.08.22-.14.33-.21.04-.02.09-.05.13-.07.12-.06.24-.11.36-.16.03,0,.05-.02.08-.02.34-.11.69-.19,1.06-.19.35,0,.68.07,1,.17,0,0,0,0,.01,0,1.02.32,1.81,1.1,2.14,2.09,0,0,0,0,0,.01.1.31.17.63.17.98,0,.37-.08.71-.19,1.04,0,.03-.01.05-.02.08-.05.12-.1.24-.16.35-.02.04-.05.09-.07.13-.07.11-.13.22-.21.33-.01.02-.03.03-.04.05Z"/>
    <g>
      <circle class="cls-4" cx="31.5" cy="19.5" r="5.5"/>
      <path class="cls-2" d="M34.77,20.26h0c-.18-.11-.28-.31-.27-.52,0-.08,0-.16,0-.24s0-.16,0-.24c-.02-.21.08-.42.27-.52.26-.15.35-.48.2-.74l-.43-.75c-.15-.26-.48-.35-.74-.2h0c-.18.11-.41.09-.58-.03-.13-.09-.27-.17-.41-.24-.19-.09-.32-.28-.32-.49h0c0-.3-.24-.54-.54-.54h-.87c-.3,0-.54.24-.54.54h0c0,.21-.13.4-.32.49-.14.07-.28.15-.41.24-.17.12-.4.14-.58.03h0c-.26-.15-.59-.06-.74.2l-.43.75c-.15.26-.06.59.2.74.18.11.28.31.27.52,0,.08,0,.16,0,.24s0,.16,0,.24c.02.21-.08.42-.27.52-.26.15-.35.48-.2.74l.43.75c.15.26.48.35.74.2h0c.18-.11.41-.09.58.03.13.09.27.17.41.24.19.09.32.28.32.49h0c0,.3.24.54.54.54h.87c.3,0,.54-.24.54-.54h0c0-.21.13-.4.32-.49.14-.07.28-.15.41-.24.17-.12.4-.14.58-.03h0c.26.15.59.06.74-.2l.43-.75c.15-.26.06-.59-.2-.74ZM32.78,20.48c-.09.11-.19.21-.3.3,0,0-.01.01-.02.02-.05.04-.11.07-.16.1-.02.01-.04.02-.07.04-.06.03-.12.06-.18.08-.01,0-.03,0-.04.01-.16.06-.34.09-.52.09-.17,0-.33-.03-.49-.08,0,0,0,0,0,0-.5-.16-.88-.55-1.04-1.04,0,0,0,0,0,0-.05-.16-.08-.32-.08-.49,0-.18.04-.36.09-.52,0-.01,0-.03.01-.04.02-.06.05-.12.08-.18.01-.02.02-.04.04-.07.03-.06.07-.11.1-.16,0,0,.01-.01.02-.02.09-.11.19-.21.3-.3,0,0,.01-.01.02-.02.05-.04.11-.07.16-.1.02-.01.04-.02.07-.04.06-.03.12-.06.18-.08.01,0,.03,0,.04-.01.16-.06.34-.09.52-.09.17,0,.33.03.49.08,0,0,0,0,0,0,.5.16.89.55,1.05,1.05,0,0,0,0,0,0,.05.16.08.32.08.49,0,.18-.04.36-.09.52,0,.01,0,.03-.01.04-.02.06-.05.12-.08.18-.01.02-.02.04-.04.07-.03.06-.07.11-.1.16,0,0-.01.01-.02.02Z"/>
    </g>
  </g>
</svg>