<?xml version="1.0" encoding="UTF-8"?>
<svg id="Veeam_product_1" data-name="Veeam product 1" xmlns="http://www.w3.org/2000/svg" viewBox="0 0 50 50">
  <defs>
    <style>
      .cls-1 {
        opacity: 0;
      }

      .cls-1, .cls-2, .cls-3 {
        stroke-width: 0px;
      }

      .cls-1, .cls-3 {
        fill: #fff;
      }

      .cls-2 {
        fill: #00d15f;
      }
    </style>
  </defs>
  <g id="Veeam_Backup_for_public_cloud" data-name="Veeam Backup for public cloud">
    <rect id="BG" class="cls-1" width="50" height="50"/>
    <path class="cls-2" d="M33.19,8H10c-1.1,0-2,.9-2,2v30c0,1.1.9,2,2,2h30c1.1,0,2-.9,2-2v-23.19c0-.53-.21-1.04-.59-1.41l-6.81-6.81c-.38-.38-.88-.59-1.41-.59Z"/>
    <path class="cls-3" d="M31.87,19.19c-.04-.25-.09-.57-.15-.81-.81-3.12-3.62-5.3-6.83-5.28-2.02.02-3.93.94-5.26,2.49-.72.84-1.43,2.29-1.33,4,.06,1.02.42,2.01.96,2.88.56.89,1.31,1.61,2.06,2.34.44.43.89.86,1.34,1.29,1.3,1.25,2.78,2.65,3.75,3.57l-6.85.06v1.48s9.42-.07,9.42-.07l-.07-9.4h-1.49s.05,6.9.05,6.9c-1.59-1.51-4.64-4.39-5.91-5.67-3.29-3.29-1.07-6.1-.8-6.41,1.05-1.23,2.56-1.96,4.15-1.97,2.53-.02,4.74,1.7,5.38,4.17.12.46.16.95.22,1.42.22.11.45.21.67.32,2.65,1.37,4.19,3.79,4.21,6.64.03,4.42-3.45,8.19-7.61,8.22l-7.18.06c-3.27.03-5.95-2.62-5.98-5.88-.02-2.33,1.35-4.42,3.39-5.39-.31-.42-.57-.84-.79-1.27-2.47,1.25-4.11,3.82-4.09,6.68.03,4.07,3.36,7.37,7.44,7.36l7.22-.06c4.96-.04,9.12-4.49,9.08-9.71-.03-3.41-1.85-6.3-4.99-7.94"/>
  </g>
</svg>