<?xml version="1.0" encoding="UTF-8"?>
<svg id="Veeam_product_3" data-name="Veeam product 3" xmlns="http://www.w3.org/2000/svg" viewBox="0 0 50 50">
  <defs>
    <style>
      .cls-1 {
        fill: none;
        stroke: #fff;
        stroke-miterlimit: 10;
        stroke-width: 1.5px;
      }

      .cls-2 {
        opacity: 0;
      }

      .cls-2, .cls-3, .cls-4 {
        stroke-width: 0px;
      }

      .cls-2, .cls-4 {
        fill: #fff;
      }

      .cls-3 {
        fill: #00d15f;
      }
    </style>
  </defs>
  <g id="Veeam_Plug-in_for_vCloud_Director" data-name="Veeam Plug-in for vCloud Director">
    <rect id="BG" class="cls-2" width="50" height="50"/>
    <path class="cls-3" d="M33.19,8H10c-1.1,0-2,.9-2,2v30c0,1.1.9,2,2,2h30c1.1,0,2-.9,2-2v-23.19c0-.53-.21-1.04-.59-1.41l-6.81-6.81c-.38-.38-.88-.59-1.41-.59Z"/>
    <g>
      <path class="cls-4" d="M16.88,18.06h1.17l1.22,3.65h.04l1.24-3.65h1.05l-1.8,4.96h-1.12l-1.81-4.96Z"/>
      <path class="cls-4" d="M22.01,19.8v-.23c0-2.4,1.39-3.3,3.1-3.3.74,0,1.26.13,1.66.34v.91c-.51-.19-.96-.31-1.58-.31-1.15,0-1.93.63-1.93,2.22v.33c0,1.53.54,2.41,1.95,2.41.76,0,1.24-.19,1.64-.37v.91c-.46.25-1.07.41-1.85.41-1.84,0-2.99-1.08-2.99-3.32Z"/>
      <path class="cls-4" d="M27.78,16.39h2.17c2.03,0,3.17.97,3.17,3.13v.2c0,2.12-1.04,3.29-3.16,3.29h-2.18v-6.62ZM29.97,22.1c1.31,0,1.91-.64,1.91-2.25v-.33c0-1.68-.74-2.21-2.01-2.21h-.93v4.79h1.02Z"/>
    </g>
    <g>
      <line class="cls-1" x1="24.79" y1="33.01" x2="40.5" y2="33.01"/>
      <line class="cls-1" x1="9.5" y1="33.01" x2="20.07" y2="33.01"/>
      <circle class="cls-4" cx="24.79" cy="33.01" r="2.36"/>
      <path class="cls-1" d="M28.33,36.55c-1.96,1.96-5.13,1.96-7.08,0-1.96-1.96-1.96-5.13,0-7.08s5.13-1.96,7.08,0"/>
    </g>
  </g>
</svg>