<?xml version="1.0" encoding="UTF-8"?>
<svg id="failes" xmlns="http://www.w3.org/2000/svg" viewBox="0 0 50 50">
  <defs>
    <style>
      .cls-1 {
        fill: none;
        stroke: #505861;
        stroke-miterlimit: 10;
        stroke-width: 1.5px;
      }

      .cls-2 {
        fill: #505861;
      }

      .cls-2, .cls-3 {
        stroke-width: 0px;
      }

      .cls-3 {
        fill: #fff;
        opacity: 0;
      }
    </style>
  </defs>
  <g id="vib_file_line" data-name="vib file line">
    <g>
      <path class="cls-1" d="M33.09,5H11.87c-1.03,0-1.87.84-1.87,1.87v36.26c0,1.03.84,1.87,1.87,1.87h26.26c1.03,0,1.87-.84,1.87-1.87V11.91c0-.5-.2-.97-.55-1.32l-5.04-5.04c-.35-.35-.83-.55-1.32-.55Z"/>
      <path class="cls-1" d="M40,12h-6.49c-.28,0-.51-.23-.51-.51v-6.49"/>
    </g>
    <rect id="BG" class="cls-3" width="50" height="50"/>
    <g>
      <polygon class="cls-2" points="17.22 24.68 21.04 21.02 15.96 19.54 17.22 24.68"/>
      <path class="cls-1" d="M17.74,21.42c1.14-3.24,4.22-5.42,7.66-5.42,4.48,0,8.12,3.64,8.12,8.12s-3.64,8.12-8.12,8.12c-2.25,0-4.35-.9-5.9-2.54"/>
    </g>
    <g>
      <path class="cls-2" d="M18.2,41.04h.84v.85h-.84v-.85Z"/>
      <path class="cls-2" d="M19.95,37.58h.8l1.17,3.38h.03l1.19-3.38h.72l-1.59,4.32h-.74l-1.59-4.32Z"/>
      <path class="cls-2" d="M25.36,35.95h.76v.77h-.76v-.77ZM25.37,37.58h.74v4.32h-.74v-4.32Z"/>
      <path class="cls-2" d="M28.04,41.76v-6.09h.74v2.16h.04c.33-.2.72-.35,1.3-.35.81,0,1.67.5,1.67,2.1v.13c0,1.44-.75,2.28-2.17,2.28-.5,0-1.22-.09-1.59-.24ZM31.03,39.83v-.18c0-1.14-.4-1.52-1.26-1.52-.4,0-.79.16-.99.24v2.87c.18.07.47.14.9.14.72,0,1.35-.34,1.35-1.55Z"/>
    </g>
  </g>
</svg>