<?xml version="1.0" encoding="UTF-8"?>
<svg id="failes" xmlns="http://www.w3.org/2000/svg" viewBox="0 0 50 50">
  <defs>
    <style>
      .cls-1 {
        fill: #505861;
      }

      .cls-1, .cls-2, .cls-3 {
        stroke-width: 0px;
      }

      .cls-2 {
        opacity: 0;
      }

      .cls-2, .cls-3 {
        fill: #fff;
      }
    </style>
  </defs>
  <g id="Data_file_solid" data-name="Data file solid">
    <rect id="BG" class="cls-2" width="50" height="50"/>
    <path class="cls-1" d="M33.09,5H11.87c-1.03,0-1.87.84-1.87,1.87v36.26c0,1.03.84,1.87,1.87,1.87h26.26c1.03,0,1.87-.84,1.87-1.87V11.91c0-.5-.2-.97-.55-1.32l-5.04-5.04c-.35-.35-.83-.55-1.32-.55Z"/>
    <path class="cls-3" d="M37.89,12.62h-5.01c-.25,0-.44-.2-.44-.44v-5.01c0-.4.48-.59.76-.31l5.01,5.01c.28.28.08.76-.31.76Z"/>
    <g>
      <path class="cls-3" d="M32.74,20.5h-15.48c-.28,0-.51-.22-.51-.5v-3c0-.28.23-.5.51-.5h15.48c.28,0,.51.22.51.5v1h-7.62v1h7.62s0,1,0,1c0,.28-.23.5-.51.5Z"/>
      <path class="cls-3" d="M32.74,26h-15.48c-.28,0-.51-.22-.51-.5v-3c0-.28.23-.5.51-.5h15.48c.28,0,.51.22.51.5v1h-7.62v1h7.62s0,1,0,1c0,.28-.23.5-.51.5Z"/>
      <path class="cls-3" d="M32.74,31.5h-15.48c-.28,0-.51-.22-.51-.5v-3c0-.28.23-.5.51-.5h15.48c.28,0,.51.22.51.5v1h-7.62v1h7.62s0,1,0,1c0,.28-.23.5-.51.5Z"/>
    </g>
    <g>
      <path class="cls-3" d="M19.1,40.94h.99v.96h-.99v-.96Z"/>
      <path class="cls-3" d="M20.87,37.64h1l1.05,3.13h.03l1.07-3.13h.9l-1.54,4.26h-.96l-1.55-4.26Z"/>
      <path class="cls-3" d="M26.32,35.84h.94v6.06h-.94v-6.06Z"/>
      <path class="cls-3" d="M29.04,41.75v-5.92h.94v2.08h.04c.31-.21.7-.36,1.26-.36.8,0,1.62.48,1.62,2.06v.11c0,1.49-.76,2.27-2.21,2.27-.57,0-1.26-.1-1.66-.25ZM31.93,39.87v-.16c0-1.05-.35-1.38-1.1-1.38-.35,0-.69.13-.86.21v2.62c.16.06.41.12.78.12.63,0,1.18-.3,1.18-1.41Z"/>
    </g>
  </g>
</svg>