<?xml version="1.0" encoding="UTF-8"?>
<svg id="VMs" xmlns="http://www.w3.org/2000/svg" viewBox="0 0 50 50">
  <defs>
    <style>
      .cls-1 {
        fill-rule: evenodd;
      }

      .cls-1, .cls-2 {
        fill: #505861;
      }

      .cls-1, .cls-2, .cls-3, .cls-4 {
        stroke-width: 0px;
      }

      .cls-3 {
        opacity: 0;
      }

      .cls-3, .cls-4 {
        fill: #fff;
      }
    </style>
  </defs>
  <g id="VM_filter" data-name="VM filter">
    <rect id="BG" class="cls-3" width="50" height="50"/>
    <g>
      <path class="cls-2" d="M32.13,10H12c-1.1,0-2,.9-2,2v22.5h30v-16.63c0-.53-.21-1.04-.59-1.41l-5.87-5.87c-.38-.38-.88-.59-1.41-.59Z"/>
      <path class="cls-4" d="M15.46,17.92h1.94l2.09,6.3h.04l2.07-6.3h1.76l-3,8.58h-1.91l-3-8.58Z"/>
      <path class="cls-4" d="M24.71,17.92h2.59l1.88,5.94h.05l1.87-5.94h2.56v8.58h-1.87v-6.31h-.04l-1.99,6.31h-1.44l-1.97-6.31h-.05v6.31h-1.6v-8.58Z"/>
    </g>
    <g>
      <polygon class="cls-1" points="17.77 40 21.86 40 25.86 36 21.77 36 17.77 40"/>
      <polygon class="cls-1" points="37.94 36 34.2 36 30.2 40 33.94 40 37.94 36"/>
      <polygon class="cls-1" points="32.08 36 27.99 36 23.99 40 28.08 40 32.08 36"/>
      <path class="cls-1" d="M19.65,36h-4.09l-3.96,3.96c.13.03.26.04.4.04h3.65l4-4Z"/>
      <path class="cls-1" d="M36.06,40h1.94c1.1,0,2-.9,2-2v-1.94l-3.94,3.94Z"/>
      <path class="cls-1" d="M13.44,36h-3.44v2c0,.41.12.79.33,1.1l3.1-3.1Z"/>
    </g>
  </g>
</svg>