<?xml version="1.0" encoding="UTF-8"?>
<svg id="VMs" xmlns="http://www.w3.org/2000/svg" viewBox="0 0 50 50">
  <defs>
    <style>
      .cls-1 {
        fill: #505861;
      }

      .cls-1, .cls-2, .cls-3, .cls-4 {
        stroke-width: 0px;
      }

      .cls-2 {
        opacity: 0;
      }

      .cls-2, .cls-4 {
        fill: #fff;
      }

      .cls-3 {
        fill: #00d15f;
      }
    </style>
  </defs>
  <g id="VM_Linux" data-name="VM Linux">
    <rect id="BG" class="cls-2" width="50" height="50"/>
    <g>
      <path class="cls-1" d="M31.13,9H11c-1.1,0-2,.9-2,2v26c0,1.1.9,2,2,2h26c1.1,0,2-.9,2-2v-20.13c0-.53-.21-1.04-.59-1.41l-5.87-5.87c-.38-.38-.88-.59-1.41-.59Z"/>
      <g>
        <path class="cls-4" d="M13.89,19.9h1.94l2.09,6.3h.04l2.07-6.3h1.76l-3,8.58h-1.91l-3-8.58Z"/>
        <path class="cls-4" d="M23.15,19.9h2.59l1.88,5.94h.05l1.87-5.94h2.56v8.58h-1.87v-6.31h-.04l-1.99,6.31h-1.44l-1.97-6.31h-.05v6.31h-1.6v-8.58Z"/>
      </g>
    </g>
    <g>
      <g>
        <path class="cls-3" d="M36.5,44.5c-4.14,0-7.5-3.37-7.5-7.5s3.36-7.5,7.5-7.5,7.5,3.36,7.5,7.5-3.36,7.5-7.5,7.5Z"/>
        <path class="cls-4" d="M36.5,30c3.86,0,7,3.14,7,7s-3.14,7-7,7-7-3.14-7-7,3.14-7,7-7M36.5,29c-4.42,0-8,3.58-8,8s3.58,8,8,8,8-3.58,8-8-3.58-8-8-8h0Z"/>
      </g>
      <g>
        <g>
          <path class="cls-3" d="M32.09,40.54c-.02.24.42.35.91.41.93.11,1.13.36,1.25.4.19.07.87.17,1.09-.24.22-.42.09-.64-.13-.93-.22-.29-.84-.97-1.17-1.58-.17-.3-.55-.5-.76-.09-.22.41-.25.32-.71.43-.44.11-.35.22-.34.69s.03.51-.09.69c-.04.05-.03.17-.04.23Z"/>
          <path class="cls-4" d="M34.67,41.51c-.19,0-.37-.04-.46-.07-.03-.01-.06-.03-.1-.06-.14-.09-.4-.25-1.12-.34-.47-.06-1.01-.17-.99-.5h0v-.04c0-.07,0-.17.05-.24.1-.13.09-.16.08-.48v-.16c0-.07-.01-.13-.01-.19-.02-.33-.01-.48.41-.59.09-.02.17-.04.24-.05.24-.05.27-.05.42-.34.12-.23.28-.28.39-.28.2,0,.4.14.53.37.24.44.63.91.91,1.26.1.13.19.24.25.31.22.3.37.56.14,1.02-.14.28-.46.36-.74.36ZM32.18,40.55c0,.08.1.23.84.32.76.09,1.06.28,1.2.37.03.02.05.03.07.04.15.06.79.16.97-.2.2-.38.08-.57-.12-.84-.06-.08-.14-.18-.25-.31-.29-.35-.68-.83-.93-1.28-.09-.16-.24-.28-.37-.28h0c-.09,0-.17.06-.24.18-.18.35-.26.38-.54.43-.06.01-.14.03-.23.05-.3.07-.3.1-.28.41,0,.06,0,.12,0,.19v.15c.02.33.02.41-.11.58-.02.02-.02.1-.02.14v.05Z"/>
        </g>
        <path class="cls-4" d="M36.01,34.75c-.34,0-.7-.27-.72-.29,0,0-.05-.03-.07-.05-.04-.04-.05-.08-.05-.13,0-.08.07-.17.19-.27l.04-.03c.23-.19.55-.45,1.1-.23.28.11.44.17.55.2.1.04.16.05.21.09.05.03.08.09.09.15,0,.06,0,.16-.11.28-.02.02-.04.02-.06,0-.02-.02-.02-.04,0-.06.08-.1.09-.17.09-.22,0-.04-.03-.07-.06-.09-.05-.03-.09-.05-.19-.08-.11-.04-.27-.09-.56-.21-.51-.2-.79.03-1.01.21l-.04.03c-.13.1-.16.17-.16.21,0,.02,0,.05.03.07,0,0,.03.02.05.04,0,0,.38.29.69.27.33-.02.47-.05.98-.44.02-.01.05-.01.06,0,.01.02.01.05,0,.06-.52.4-.68.44-1.03.46-.01,0-.02,0-.04,0Z"/>
        <path class="cls-4" d="M35.57,33.91s-.28-.18-.14-.48c.03-.07.19-.18.32.01,0,0,.07.17,0,.35l.17-.07c.05-.33-.12-.56-.12-.56-.27-.32-.51,0-.51,0-.21.49.17.82.17.82l.12-.09Z"/>
        <path class="cls-4" d="M36.84,33.91c.12-.11.17-.28.17-.28.05-.29-.17-.31-.17-.31-.39-.03-.3.5-.3.5l-.19-.07s-.05-.84.57-.79c.18.02.46.19.39.6-.02.13-.07.26-.26.44l-.21-.09Z"/>
        <path class="cls-4" d="M38.34,37.93l-.04.04s.06-.82-.46-1.67c-.53-.84-.59-1.87-.59-1.87v-.03c.02-.11-.07.08-.13.11-.24.14-.5.42-.7.47-.2.05-.65.09-.93-.33,0,0-.08-.16-.09-.13v-.02s-.09.43-.11.54c-.02.11-.22.84-.52,1.34-.41.67-.45,1.63-.45,1.63v.1c.1.34.1.49.78.94,0,0,.32.2.29.35,0,0,0,.17-.4.38l.05.1s1.48.84,2.76-.45v-.04c0-.16,0-.29-.01-.35,0-.13-.08-.72.31-.73v-.04s.01-.02.01-.03c.07-.26.81-.22,1.04-.11l.09.05c-.13-.21-.38-.27-.61-.27h-.02"/>
        <g>
          <path class="cls-3" d="M39.36,38.35c.32-.13.58.13.6.37s.16.53.34.65c.42.26.4.4.4.4.03.09.05.23-.72.67-1.02.58-.79.67-1.19.87-.4.2-.76.03-.76.03,0,0-.43-.03-.39-.75,0-.16.03-.32.12-.65.05-.17.05-.37.05-.54,0,0-.13-.95.18-1.06.31-.11,1.38,0,1.38,0Z"/>
          <path class="cls-4" d="M38.38,41.49c-.19,0-.32-.05-.37-.07-.09-.01-.49-.12-.46-.83,0-.16.03-.32.12-.66.04-.13.05-.31.04-.52-.02-.16-.12-1.02.24-1.15.3-.11,1.21-.02,1.39,0,.15-.05.3-.04.43.04.15.09.25.25.26.42.02.23.15.49.3.58.37.23.44.38.44.46.06.18-.06.36-.76.76-.61.35-.76.51-.88.63-.08.08-.15.15-.32.24-.16.08-.32.11-.46.11ZM38.46,38.38c-.19,0-.35.01-.44.04-.16.06-.17.61-.12.97,0,.24,0,.43-.05.58-.09.32-.11.48-.12.63-.03.63.3.66.31.66.01,0,.02,0,.03,0,.01,0,.33.15.68-.03.14-.07.19-.13.27-.21.12-.13.29-.3.92-.66.74-.42.69-.53.68-.56,0-.01,0-.02,0-.04,0,0,0,0,0,0,0,0-.04-.11-.36-.32-.2-.12-.36-.43-.38-.71,0-.11-.08-.23-.18-.29-.06-.04-.16-.07-.3-.02-.01,0-.03,0-.04,0-.18-.02-.57-.05-.89-.05Z"/>
        </g>
        <g>
          <path class="cls-3" d="M39.36,38.48s-.49.76-.94.61c-.32-.11-.36-.52-.3-.74v-.08s.01-.26.77-.19c0,0,.42.06.48.27.01.05.01.08,0,.14Z"/>
          <path class="cls-4" d="M38.55,39.16s-.09,0-.14-.02c-.34-.11-.4-.54-.33-.79v-.08s.01-.06.08-.12c.12-.11.37-.14.74-.11.02,0,.45.06.51.3.01.06.01.1,0,.16h0s-.26.42-.57.58c-.1.05-.19.08-.28.08ZM38.65,38.11c-.26,0-.38.06-.42.09-.04.03-.04.06-.04.07v.08c-.07.23-.02.6.26.69.39.13.83-.49.88-.58.01-.05,0-.07,0-.11-.04-.15-.33-.22-.44-.23-.09,0-.17-.01-.24-.01Z"/>
        </g>
        <path class="cls-4" d="M37.64,40.98s-.03,0-.04,0c-1.11-.51-2.03-.13-2.04-.13-.05.02-.1,0-.12-.05s0-.09.05-.11c.04-.02,1.01-.41,2.19.13.04.02.06.07.04.12-.01.03-.05.05-.08.05Z"/>
        <path class="cls-4" d="M39.42,38.41s-.07-.02-.08-.06c-.01-.05.01-.09.06-.11h0s.16-.07.17-.51c.02-.56-.52-1.46-.7-1.75-.04-.07-.12-.18-.21-.3-.32-.44-.81-1.11-.83-1.56,0-.13-.01-.31-.01-.49,0-.37-.02-.78-.05-.99-.02-.09-.19-.93-1.2-.97-.92-.04-1.26.6-1.31.94-.04.22-.02.84,0,1.28,0,.19,0,.36,0,.47,0,.3-.15.59-.27.81-.04.07-.07.14-.1.2-.08.18-.4.68-.75,1.22-.1.15-.19.29-.28.43-.37.57-.26,1.16-.26,1.16,0,.05-.02.09-.07.1-.05,0-.09-.02-.1-.07,0-.03-.12-.66.28-1.29.09-.14.18-.28.28-.43.33-.5.67-1.02.74-1.19.03-.06.06-.13.11-.21.11-.21.25-.47.25-.73,0-.11,0-.28,0-.46-.01-.48-.03-1.08.01-1.32.06-.4.45-1.13,1.49-1.09,1.15.05,1.34,1,1.36,1.11.04.22.05.64.05,1.01,0,.18,0,.35.01.49.02.4.51,1.07.8,1.47.1.13.17.24.22.31.19.31.75,1.24.73,1.85-.02.56-.27.66-.3.66,0,0-.02,0-.03,0Z"/>
        <path class="cls-3" d="M38.47,38.15s.67-.07.84.02l.09.07s0,.08-.06.19c-.06.11-.25-.03-.25-.03l-.62-.25Z"/>
      </g>
    </g>
  </g>
</svg>