<?xml version="1.0" encoding="UTF-8"?>
<svg id="VMs" xmlns="http://www.w3.org/2000/svg" viewBox="0 0 50 50">
  <defs>
    <style>
      .cls-1 {
        fill: #505861;
      }

      .cls-1, .cls-2, .cls-3 {
        stroke-width: 0px;
      }

      .cls-2 {
        opacity: 0;
      }

      .cls-2, .cls-3 {
        fill: #fff;
      }
    </style>
  </defs>
  <g id="VM_with_a_snapshot" data-name="VM with a snapshot">
    <rect id="BG" class="cls-2" width="50" height="50"/>
    <path class="cls-1" d="M34.63,9c.13,0,.26.05.35.15l5.87,5.87c.09.09.15.22.15.35v20.13c0,.28-.22.5-.5.5H14.5c-.28,0-.5-.22-.5-.5V9.5c0-.28.22-.5.5-.5h20.13M34.63,7.5H14.5c-1.1,0-2,.9-2,2v26c0,1.1.9,2,2,2h26c1.1,0,2-.9,2-2V15.37c0-.53-.21-1.04-.59-1.41l-5.87-5.87c-.38-.38-.88-.59-1.41-.59h0Z"/>
    <g>
      <g>
        <path class="cls-1" d="M10,42.75c-1.52,0-2.75-1.23-2.75-2.75V14c0-1.52,1.23-2.75,2.75-2.75h20.13c.73,0,1.42.29,1.94.81l5.87,5.87c.52.52.81,1.21.81,1.94v20.13c0,1.52-1.23,2.75-2.75,2.75H10Z"/>
        <path class="cls-3" d="M30.13,12c.53,0,1.04.21,1.41.59l5.87,5.87c.38.38.59.88.59,1.41v20.13c0,1.1-.9,2-2,2H10c-1.1,0-2-.9-2-2V14c0-1.1.9-2,2-2h20.13M30.13,10.5H10c-1.93,0-3.5,1.57-3.5,3.5v26c0,1.93,1.57,3.5,3.5,3.5h26c1.93,0,3.5-1.57,3.5-3.5v-20.13c0-.93-.36-1.81-1.03-2.47l-5.87-5.87c-.66-.66-1.54-1.03-2.47-1.03h0Z"/>
      </g>
      <path class="cls-3" d="M13.46,23.14h1.94l2.09,6.3h.04l2.07-6.3h1.76l-3,8.58h-1.91l-3-8.58Z"/>
      <path class="cls-3" d="M22.71,23.14h2.59l1.88,5.94h.05l1.87-5.94h2.56v8.58h-1.87v-6.31h-.04l-1.99,6.31h-1.44l-1.97-6.31h-.05v6.31h-1.6v-8.58Z"/>
    </g>
  </g>
</svg>