<?xml version="1.0" encoding="UTF-8"?>
<svg id="VMs" xmlns="http://www.w3.org/2000/svg" viewBox="0 0 50 50">
  <defs>
    <style>
      .cls-1 {
        fill: #505861;
      }

      .cls-1, .cls-2, .cls-3, .cls-4, .cls-5 {
        stroke-width: 0px;
      }

      .cls-2 {
        opacity: 0;
      }

      .cls-2, .cls-3, .cls-5 {
        fill: #fff;
      }

      .cls-3 {
        fill-rule: evenodd;
      }

      .cls-4 {
        fill: #00d15f;
      }
    </style>
  </defs>
  <g id="VM_Windows" data-name="VM Windows">
    <rect id="BG" class="cls-2" width="50" height="50"/>
    <g>
      <path class="cls-1" d="M31.13,9H11c-1.1,0-2,.9-2,2v26c0,1.1.9,2,2,2h26c1.1,0,2-.9,2-2v-20.13c0-.53-.21-1.04-.59-1.41l-5.87-5.87c-.38-.38-.88-.59-1.41-.59Z"/>
      <g>
        <path class="cls-5" d="M13.89,19.9h1.94l2.09,6.3h.04l2.07-6.3h1.76l-3,8.58h-1.91l-3-8.58Z"/>
        <path class="cls-5" d="M23.15,19.9h2.59l1.88,5.94h.05l1.87-5.94h2.56v8.58h-1.87v-6.31h-.04l-1.99,6.31h-1.44l-1.97-6.31h-.05v6.31h-1.6v-8.58Z"/>
      </g>
    </g>
    <g>
      <g>
        <path class="cls-4" d="M36.5,44.5c-4.14,0-7.5-3.37-7.5-7.5s3.36-7.5,7.5-7.5,7.5,3.36,7.5,7.5-3.36,7.5-7.5,7.5Z"/>
        <path class="cls-5" d="M36.5,30c3.86,0,7,3.14,7,7s-3.14,7-7,7-7-3.14-7-7,3.14-7,7-7M36.5,29c-4.42,0-8,3.58-8,8s3.58,8,8,8,8-3.58,8-8-3.58-8-8-8h0Z"/>
      </g>
      <g>
        <polygon class="cls-3" points="39.5 36.53 35.57 36.58 35.57 33.82 39.5 33 39.5 36.53"/>
        <polygon class="cls-3" points="34.97 36.58 32.5 36.61 32.5 34.39 34.97 33.88 34.97 36.58"/>
        <polygon class="cls-3" points="34.97 37.21 34.97 39.82 32.5 39.31 32.5 37.18 34.97 37.21"/>
        <polygon class="cls-3" points="35.57 37.21 39.5 37.26 39.5 40.7 35.57 39.89 35.57 37.21"/>
      </g>
    </g>
  </g>
</svg>