<?xml version="1.0" encoding="UTF-8"?>
<svg id="Software_1" data-name="Software 1" xmlns="http://www.w3.org/2000/svg" viewBox="0 0 50 50">
  <defs>
    <style>
      .cls-1 {
        opacity: 0;
      }

      .cls-1, .cls-2, .cls-3 {
        stroke-width: 0px;
      }

      .cls-1, .cls-3 {
        fill: #fff;
      }

      .cls-2 {
        fill: #00d15f;
      }
    </style>
  </defs>
  <g id="VMware">
    <rect id="BG" class="cls-1" x="0" width="50" height="50"/>
    <path class="cls-2" d="M33.19,8H10c-1.1,0-2,.9-2,2v30c0,1.1.9,2,2,2h30c1.1,0,2-.9,2-2v-23.19c0-.53-.21-1.04-.59-1.41l-6.81-6.81c-.38-.38-.88-.59-1.41-.59Z"/>
    <path class="cls-3" d="M14.97,20.71c-.27-.67-1.08-1.01-1.75-.67h-.07c-.67.27-1.01,1.07-.67,1.75v.07l3.09,6.65c.47,1.07,1.01,1.61,1.95,1.61s1.48-.6,1.95-1.61l2.69-5.91c.07-.13.2-.27.4-.27s.4.2.4.4v5.7c-.07.8.47,1.48,1.28,1.61.81.07,1.48-.47,1.61-1.28v-5.03c0-.8.6-1.48,1.35-1.48h.13c.74-.07,1.41.54,1.48,1.27v4.83c-.07.81.47,1.48,1.28,1.61h.2c.81,0,1.48-.67,1.48-1.48v-4.63c0-.81.61-1.48,1.35-1.48h.13c.74-.07,1.41.54,1.48,1.34v4.77c-.07.81.47,1.48,1.28,1.61.81.07,1.48-.47,1.61-1.27v-5.64c0-1.88-1.55-3.36-3.43-3.29h-.07c-1.14,0-2.29.47-3.09,1.28-.67-.94-1.82-1.41-2.96-1.28-1.08.07-2.08.54-2.89,1.28-.6-.81-1.55-1.28-2.56-1.28-1.41-.07-2.69.8-3.1,2.15l-2.02,4.56-2.56-5.91Z"/>
  </g>
</svg>