<?xml version="1.0" encoding="UTF-8"?>
<svg id="Software_3" data-name="Software 3" xmlns="http://www.w3.org/2000/svg" viewBox="0 0 50 50">
  <defs>
    <style>
      .cls-1 {
        fill: #00cf5f;
      }

      .cls-1, .cls-2, .cls-3 {
        stroke-width: 0px;
      }

      .cls-4 {
        fill: none;
        stroke: #fff;
        stroke-miterlimit: 10;
        stroke-width: 1.5px;
      }

      .cls-2 {
        opacity: 0;
      }

      .cls-2, .cls-3 {
        fill: #fff;
      }
    </style>
  </defs>
  <g id="VMware_NSX" data-name="VMware NSX">
    <rect id="BG" class="cls-2" width="50" height="50"/>
    <path class="cls-1" d="M33.19,8H10c-1.1,0-2,.9-2,2v30c0,1.1.9,2,2,2h30c1.1,0,2-.9,2-2v-23.19c0-.53-.21-1.04-.59-1.41l-6.81-6.81c-.38-.38-.88-.59-1.41-.59Z"/>
    <circle class="cls-4" cx="25" cy="25" r="12.5"/>
    <g>
      <g>
        <g>
          <rect class="cls-3" x="20.25" y="19.75" width="1.5" height="5" transform="translate(43.25 1.25) rotate(90)"/>
          <rect class="cls-3" x="22" y="18" width="1.5" height="5" transform="translate(45.5 41) rotate(180)"/>
        </g>
        <rect class="cls-3" x="19.91" y="17.1" width="1.5" height="6.12" transform="translate(49.53 19.81) rotate(135)"/>
      </g>
      <g>
        <g>
          <rect class="cls-3" x="28.75" y="24.75" width="1.5" height="5" transform="translate(2.25 56.75) rotate(-90)"/>
          <rect class="cls-3" x="27" y="26.5" width="1.5" height="5"/>
        </g>
        <rect class="cls-3" x="29.09" y="26.28" width="1.5" height="6.12" transform="translate(-12 29.69) rotate(-45)"/>
      </g>
      <g>
        <g>
          <rect class="cls-3" x="17.97" y="27.03" width="1.5" height="5" transform="translate(37.44 59.06) rotate(-180)"/>
          <rect class="cls-3" x="19.72" y="28.78" width="1.5" height="5" transform="translate(-10.81 51.75) rotate(-90)"/>
        </g>
        <rect class="cls-3" x="20.06" y="26.13" width="1.5" height="6.12" transform="translate(14.87 64.55) rotate(-135)"/>
      </g>
      <g>
        <g>
          <rect class="cls-3" x="31.03" y="17.47" width="1.5" height="5"/>
          <rect class="cls-3" x="29.28" y="15.72" width="1.5" height="5" transform="translate(48.25 -11.81) rotate(90)"/>
        </g>
        <rect class="cls-3" x="28.94" y="17.24" width="1.5" height="6.12" transform="translate(23.06 -15.05) rotate(45)"/>
      </g>
    </g>
  </g>
</svg>