<svg xmlns="http://www.w3.org/2000/svg" xmlns:xlink="http://www.w3.org/1999/xlink" width="63.92px" height="63.92px" xml:space="preserve" overflow="hidden" viewBox="15.04 15.04 63.92 63.92"><g transform="translate(-887 -66)"><path d="M949.397 81.04 905.8 81.04C903.732 81.04 902.04 82.732 902.04 84.8L902.04 141.2C902.04 143.268 903.732 144.96 905.8 144.96L962.2 144.96C964.268 144.96 965.96 143.268 965.96 141.2L965.96 97.6028C965.96 96.6064 965.565 95.6476 964.851 94.952L952.048 82.1492C951.334 81.4348 950.394 81.04 949.397 81.04Z" fill="#C0000E"/><path d="M915.144 104.935C914.636 103.675 913.113 103.036 911.854 103.675L911.722 103.675C910.462 104.183 909.823 105.687 910.462 106.965L910.462 107.097 916.272 119.599C917.155 121.61 918.17 122.626 919.938 122.626 921.705 122.626 922.72 121.498 923.604 119.599L928.661 108.488C928.792 108.244 929.037 107.98 929.413 107.98 929.789 107.98 930.165 108.356 930.165 108.732L930.165 119.448C930.033 120.952 931.048 122.231 932.571 122.475 934.094 122.607 935.354 121.592 935.598 120.069L935.598 110.612C935.598 109.108 936.726 107.83 938.136 107.83L938.38 107.83C939.772 107.698 941.031 108.845 941.163 110.218L941.163 119.298C941.031 120.821 942.046 122.08 943.569 122.325L943.945 122.325C945.468 122.325 946.728 121.065 946.728 119.542L946.728 110.838C946.728 109.315 947.874 108.056 949.266 108.056L949.51 108.056C950.901 107.924 952.161 109.071 952.292 110.575L952.292 119.542C952.161 121.065 953.176 122.325 954.699 122.569 956.222 122.701 957.481 121.686 957.726 120.182L957.726 109.578C957.726 106.044 954.812 103.262 951.277 103.393L951.146 103.393C949.002 103.393 946.84 104.277 945.336 105.8 944.077 104.032 941.915 103.149 939.772 103.393 937.741 103.525 935.861 104.408 934.338 105.8 933.21 104.277 931.424 103.393 929.526 103.393 926.875 103.262 924.468 104.897 923.698 107.435L919.9 116.008 915.087 104.897 915.144 104.935Z" fill="#FEFEFE"/></g></svg>