<?xml version="1.0" encoding="UTF-8"?>
<svg id="Software_1" data-name="Software 1" xmlns="http://www.w3.org/2000/svg" viewBox="0 0 50 50">
  <defs>
    <style>
      .cls-1, .cls-2 {
        fill: #00cf5f;
      }

      .cls-1, .cls-2, .cls-3, .cls-4 {
        stroke-width: 0px;
      }

      .cls-2 {
        fill-rule: evenodd;
      }

      .cls-3 {
        opacity: 0;
      }

      .cls-3, .cls-4 {
        fill: #fff;
      }
    </style>
  </defs>
  <g id="VMware_vSAN" data-name="VMware vSAN">
    <rect id="BG" class="cls-3" width="50" height="50"/>
    <path class="cls-1" d="M33.19,8H10c-1.1,0-2,.9-2,2v30c0,1.1.9,2,2,2h30c1.1,0,2-.9,2-2v-23.19c0-.53-.21-1.04-.59-1.41l-6.81-6.81c-.38-.38-.88-.59-1.41-.59Z"/>
    <path class="cls-4" d="M24.97,39.2s-.07,0-.1-.03l-11.51-6.64c-.06-.04-.1-.1-.1-.17v-13.28c0-.07.04-.14.1-.17l11.51-6.64s.06-.03.1-.03.07,0,.1.03l11.49,6.64c.07.04.11.1.11.18v13.28c0,.07-.04.14-.1.17l-11.5,6.64s-.06.03-.1.03ZM29.48,29.46c0,1.19-1.52,2.17-3.69,2.38l-.27.03v5.76l9.53-5.51-5.57-3.2v.54ZM14.93,32.15l9.48,5.48v-5.75l-.27-.03c-2.17-.2-3.69-1.18-3.7-2.37v-.51s-5.51,3.19-5.51,3.19ZM14.38,31.18l6.06-3.51v-3.94l-6.06-3.48v10.93ZM29.48,23.71v3.93s6.07,3.49,6.07,3.49v-10.93l-6.07,3.52ZM14.93,19.29l5.51,3.17v-.52c0-1.2,1.52-2.18,3.69-2.39l.27-.03v-5.7l-9.48,5.47ZM25.52,19.52l.27.03c2.15.21,3.67,1.18,3.69,2.36v.51s5.47-3.16,5.47-3.16l-9.43-5.44v5.71Z"/>
    <path class="cls-4" d="M25.36,32.14c2.32-.22,3.96-1.31,3.96-2.68v-7.59c-.05-1.34-1.67-2.4-3.96-2.62h-1.71c-2.33.22-3.97,1.31-3.97,2.69h0s0,1.97,0,1.97v5.58c.02,1.36,1.65,2.44,3.97,2.66h1.71Z"/>
    <path class="cls-4" d="M24.11,32.64c-2.68-.25-4.45-1.52-4.47-3.16v-7.56c0-1.64,1.78-2.92,4.42-3.17h1.76c2.63.25,4.4,1.49,4.46,3.1v7.59c0,1.66-1.77,2.94-4.4,3.2h-.04s-1.74,0-1.74,0Z"/>
    <path class="cls-4" d="M24.11,31.85c-2.14-.2-3.66-1.18-3.67-2.37v-7.54c0-1.2,1.53-2.18,3.7-2.39h1.68c2.1.2,3.61,1.16,3.66,2.33v7.56c0,1.21-1.51,2.19-3.67,2.4h-1.7Z"/>
    <path class="cls-2" d="M29.28,25.11c-.07,1.2-1.98,2.16-4.32,2.16s-4.18-.93-4.31-2.1h-.01v1.52c0,1.23,1.93,2.23,4.32,2.23s4.32-1,4.32-2.23.01-1.58.01-1.58h-.02Z"/>
    <path class="cls-2" d="M29.23,22.59c-.07,1.2-1.98,2.16-4.32,2.16s-4.18-.93-4.31-2.1h-.01v1.52c0,1.23,1.93,2.23,4.32,2.23s4.32-1,4.32-2.23.01-1.58.01-1.58h-.02Z"/>
    <path class="cls-2" d="M29.28,27.79c-.07,1.2-1.98,2.16-4.32,2.16s-4.18-.93-4.31-2.1h-.01v1.52c0,1.23,1.93,2.23,4.32,2.23s4.32-1,4.32-2.23.01-1.58.01-1.58h-.02Z"/>
  </g>
</svg>