<?xml version="1.0" encoding="UTF-8"?>
<svg id="Software_3" data-name="Software 3" xmlns="http://www.w3.org/2000/svg" viewBox="0 0 50 50">
  <defs>
    <style>
      .cls-1 {
        fill: #00cf5f;
      }

      .cls-1, .cls-2, .cls-3 {
        stroke-width: 0px;
      }

      .cls-2 {
        opacity: 0;
      }

      .cls-2, .cls-3 {
        fill: #fff;
      }
    </style>
  </defs>
  <g id="VMware_Cloud" data-name="VMware Cloud">
    <rect id="BG" class="cls-2" width="50" height="50"/>
    <path class="cls-1" d="M33.19,8H10c-1.1,0-2,.9-2,2v30c0,1.1.9,2,2,2h30c1.1,0,2-.9,2-2v-23.19c0-.53-.21-1.04-.59-1.41l-6.81-6.81c-.38-.38-.88-.59-1.41-.59Z"/>
    <g>
      <polygon class="cls-3" points="25.49 14.06 23.67 14.04 16.72 20.99 18.57 20.97 25.49 14.06"/>
      <path class="cls-3" d="M33.31,22.49c-.13-.72-.39-1.42-.8-2.09l5.82-5.81h-1.85s-4.76,4.77-4.76,4.77c-1.17-1.25-2.79-1.96-4.48-1.96-4.44.1-5.76,3.62-6.14,5.34-.8-.4-1.75-.59-2.9-.59-3.31,0-6.01,2.7-6.01,6.01,0,2.62,1.72,4.94,4.2,5.72l-2.97,3.02h1.81s2.73-2.74,2.73-2.74h.03c.07,0,.14.01.21.01h12.74c3.35-.01,6.07-2.74,6.07-6.08,0-2.45-1.45-4.63-3.7-5.59ZM31.88,22.08c-1.52-.24-3.08.12-4.42,1.04l-6.91,6.92,1.83-.03,5.91-5.89c.79-.53,1.71-.81,2.67-.81,2.63,0,4.77,2.14,4.77,4.77s-2.14,4.77-4.77,4.77h-12.74c-2.6.01-4.71-2.1-4.71-4.7s2.11-4.71,4.71-4.71c1.3,0,2.27.29,2.97.88.19.16.45.2.68.1.23-.1.38-.32.39-.56.01-.21.31-5.06,5.02-5.16,2.12,0,3.99,1.38,4.62,3.39Z"/>
    </g>
  </g>
</svg>