<?xml version="1.0" encoding="UTF-8"?>
<svg id="Software_1" data-name="Software 1" xmlns="http://www.w3.org/2000/svg" viewBox="0 0 50 50">
  <defs>
    <style>
      .cls-1 {
        opacity: 0;
      }

      .cls-1, .cls-2, .cls-3 {
        stroke-width: 0px;
      }

      .cls-1, .cls-3 {
        fill: #fff;
      }

      .cls-2 {
        fill: #00d15f;
      }
    </style>
  </defs>
  <g id="vSphere">
    <rect id="BG" class="cls-1" width="50" height="50"/>
    <path class="cls-2" d="M33.19,8H10c-1.1,0-2,.9-2,2v30c0,1.1.9,2,2,2h30c1.1,0,2-.9,2-2v-23.19c0-.53-.21-1.04-.59-1.41l-6.81-6.81c-.38-.38-.88-.59-1.41-.59Z"/>
    <g>
      <path class="cls-3" d="M20.84,31.06h3.43c.59,0,1.06-.48,1.06-1.06v-3.47c0-.05,0-.1-.02-.15h0c0-.16.13-.29.29-.29,0,0,0,0,0,0h0s0,0,0,0h3.43c.59,0,1.06-.48,1.06-1.06v-3.47c0-.59-.48-1.06-1.06-1.06h-3.43c-.59,0-1.06.48-1.06,1.06v3.47c0,.05,0,.1.02.15h0c0,.16-.13.29-.29.29,0,0,0,0,0,0h0s0,0,0,0h-3.43c-.59,0-1.06.48-1.06,1.06v3.47c0,.59.48,1.06,1.06,1.06Z"/>
      <path class="cls-3" d="M27.33,35c1.23,0,2.23-1,2.23-2.23v-2.66h2.66c1.23,0,2.23-1,2.23-2.23v-9.46c0-1.23-1-2.23-2.23-2.23h-9.55c-1.23,0-2.23,1-2.23,2.23v2.66h-2.66c-1.23,0-2.23,1-2.23,2.23v9.46c0,1.23,1,2.23,2.23,2.23h9.55ZM17.99,24.72c0-.59.48-1.06,1.06-1.06h3.82v-3.82c0-.59.48-1.06,1.06-1.06h7.02c.59,0,1.06.48,1.06,1.06v7.1c0,.59-.48,1.06-1.06,1.06h-3.82v3.82c0,.59-.48,1.06-1.06,1.06h-7.02c-.59,0-1.06-.48-1.06-1.06v-7.1Z"/>
    </g>
  </g>
</svg>