<?xml version="1.0" encoding="UTF-8"?>
<svg id="Miscellaneous" xmlns="http://www.w3.org/2000/svg" viewBox="0 0 50 50">
  <defs>
    <style>
      .cls-1 {
        fill: #505861;
      }

      .cls-1, .cls-2, .cls-3 {
        stroke-width: 0px;
      }

      .cls-2 {
        opacity: 0;
      }

      .cls-2, .cls-3 {
        fill: #fff;
      }

      .cls-4 {
        fill: none;
        stroke: #fff;
        stroke-linejoin: round;
        stroke-width: 1.5px;
      }
    </style>
  </defs>
  <g id="vpn">
    <rect id="BG" class="cls-2" width="50" height="50"/>
    <rect class="cls-1" x="10" y="10" width="30" height="30" rx="2" ry="2"/>
    <g id="Locked">
      <g>
        <path class="cls-3" d="M30.61,23c1.04,0,1.89.85,1.89,1.89v6.22c0,1.04-.85,1.89-1.89,1.89h-11.22c-1.04,0-1.89-.85-1.89-1.89v-6.22c0-1.04.85-1.89,1.89-1.89h11.22M30.61,21.5h-11.22c-1.87,0-3.39,1.52-3.39,3.39v6.22c0,1.87,1.52,3.39,3.39,3.39h11.22c1.87,0,3.39-1.52,3.39-3.39v-6.22c0-1.87-1.52-3.39-3.39-3.39h0Z"/>
        <path class="cls-4" d="M21.38,22v-2.73c0-2.08,1.62-3.77,3.62-3.77h0c2,0,3.62,1.69,3.62,3.77v2.73"/>
      </g>
      <g>
        <path class="cls-3" d="M19.18,25.97h.74l1.07,3.14h.02l1.06-3.14h.66l-1.43,4.03h-.69l-1.43-4.03Z"/>
        <path class="cls-3" d="M23.75,25.97h1.4c.95,0,1.42.44,1.42,1.23,0,.84-.54,1.28-1.37,1.28h-.74v1.51h-.71v-4.03ZM25.07,27.96c.55,0,.76-.23.76-.71,0-.53-.21-.73-.74-.73h-.62v1.44h.61Z"/>
        <path class="cls-3" d="M27.69,25.97h.8l1.69,2.87h.02v-2.87h.63v4.03h-.7l-1.78-3.06h-.02v3.06h-.63v-4.03Z"/>
      </g>
    </g>
  </g>
</svg>