<?xml version="1.0" encoding="UTF-8"?>
<svg id="failes" xmlns="http://www.w3.org/2000/svg" viewBox="0 0 50 50">
  <defs>
    <style>
      .cls-1 {
        fill: none;
        stroke: #505861;
        stroke-miterlimit: 10;
        stroke-width: 1.5px;
      }

      .cls-2 {
        fill: #505861;
      }

      .cls-2, .cls-3 {
        stroke-width: 0px;
      }

      .cls-3 {
        fill: #fff;
        opacity: 0;
      }
    </style>
  </defs>
  <g id="vrb_file_line" data-name="vrb file line">
    <g>
      <path class="cls-1" d="M33.09,5H11.87c-1.03,0-1.87.84-1.87,1.87v36.26c0,1.03.84,1.87,1.87,1.87h26.26c1.03,0,1.87-.84,1.87-1.87V11.91c0-.5-.2-.97-.55-1.32l-5.04-5.04c-.35-.35-.83-.55-1.32-.55Z"/>
      <path class="cls-1" d="M40,12h-6.49c-.28,0-.51-.23-.51-.51v-6.49"/>
    </g>
    <rect id="BG" class="cls-3" width="50" height="50"/>
    <g>
      <path class="cls-2" d="M18.37,40.94h.99v.96h-.99v-.96Z"/>
      <path class="cls-2" d="M20.15,37.64h1l1.05,3.13h.03l1.07-3.13h.9l-1.54,4.26h-.96l-1.55-4.26Z"/>
      <path class="cls-2" d="M25.56,37.64h.89v.48h.04c.24-.3.67-.53,1.12-.53.11,0,.22.02.26.04v.82c-.11-.02-.25-.02-.34-.02-.39,0-.77.11-1.05.29v3.18h-.94v-4.26Z"/>
      <path class="cls-2" d="M29.29,41.75v-5.92h.94v2.08h.04c.31-.21.7-.36,1.26-.36.8,0,1.62.48,1.62,2.06v.11c0,1.49-.76,2.27-2.21,2.27-.57,0-1.26-.1-1.66-.25ZM32.19,39.87v-.16c0-1.05-.35-1.38-1.1-1.38-.35,0-.69.13-.86.21v2.62c.16.06.41.12.78.12.63,0,1.18-.3,1.18-1.41Z"/>
    </g>
    <g>
      <polygon class="cls-2" points="17.22 24.68 21.04 21.02 15.96 19.54 17.22 24.68"/>
      <path class="cls-1" d="M17.74,21.42c1.14-3.24,4.22-5.42,7.66-5.42,4.48,0,8.12,3.64,8.12,8.12s-3.64,8.12-8.12,8.12c-2.25,0-4.35-.9-5.9-2.54"/>
    </g>
  </g>
</svg>