<?xml version="1.0" encoding="UTF-8"?>
<svg id="Veeam_product_1" data-name="Veeam product 1" xmlns="http://www.w3.org/2000/svg" viewBox="0 0 50 50">
  <defs>
    <style>
      .cls-1, .cls-2 {
        fill: none;
      }

      .cls-1, .cls-2, .cls-3 {
        stroke-miterlimit: 10;
      }

      .cls-1, .cls-3 {
        stroke: #00d15f;
        stroke-width: 1.5px;
      }

      .cls-2 {
        stroke: #fff;
        stroke-width: 3px;
      }

      .cls-4 {
        opacity: 0;
      }

      .cls-4, .cls-3, .cls-5 {
        fill: #fff;
      }

      .cls-4, .cls-6, .cls-5 {
        stroke-width: 0px;
      }

      .cls-6 {
        fill: #00d15f;
      }
    </style>
  </defs>
  <g id="Veeam_Availability_Orchestrator_Server" data-name="Veeam Availability Orchestrator Server">
    <rect id="BG" class="cls-4" width="50" height="50"/>
    <path class="cls-6" d="M33.19,8H10c-1.1,0-2,.9-2,2v30c0,1.1.9,2,2,2h30c1.1,0,2-.9,2-2v-23.19c0-.53-.21-1.04-.59-1.41l-6.81-6.81c-.38-.38-.88-.59-1.41-.59Z"/>
    <g>
      <rect class="cls-5" x="15" y="14.64" width="19.5" height="2" rx="1" ry="1"/>
      <path class="cls-5" d="M25.25,22.39h17.5c1.1,0,2,.9,2,2v3c0,1.1-.9,2-2,2h-18.5c-1.1,0-2-.9-2-2v-2c0-1.66,1.34-3,3-3Z" transform="translate(59.39 -7.61) rotate(90)"/>
      <g>
        <path class="cls-5" d="M15.5,38.89c-1.52,0-2.75-1.23-2.75-2.75v-20h1.5c0,.69.56,1.25,1.25,1.25h16c1.52,0,2.75,1.23,2.75,2.75v16c0,1.52-1.23,2.75-2.75,2.75H15.5Z"/>
        <path class="cls-6" d="M13.5,16.14c0,1.1.9,2,2,2h16c1.1,0,2,.9,2,2v16c0,1.1-.9,2-2,2H15.5c-1.1,0-2-.9-2-2v-20M15,16.14h-3v20c0,1.93,1.57,3.5,3.5,3.5h16c1.93,0,3.5-1.57,3.5-3.5v-16c0-1.93-1.57-3.5-3.5-3.5H15.5c-.28,0-.5-.22-.5-.5h0Z"/>
      </g>
      <path class="cls-3" d="M25,32.64h-3c-1.66,0-3-1.34-3-3v-2.5c0-1.66,1.34-3,3-3h6"/>
      <path class="cls-1" d="M12.5,25.14v.53c0,1.64,1.33,2.97,2.97,2.97h4.03"/>
      <g>
        <line class="cls-2" x1="27.5" y1="30.64" x2="23.5" y2="34.64"/>
        <line class="cls-2" x1="27.5" y1="34.64" x2="23.5" y2="30.64"/>
      </g>
      <g>
        <line class="cls-3" x1="27.5" y1="30.64" x2="23.5" y2="34.64"/>
        <line class="cls-3" x1="27.5" y1="34.64" x2="23.5" y2="30.64"/>
      </g>
      <polygon class="cls-6" points="27.77 20.96 27.77 27.1 31 24.03 27.77 20.96"/>
    </g>
  </g>
</svg>