<?xml version="1.0" encoding="UTF-8"?>
<svg id="Veeam_product_1" data-name="Veeam product 1" xmlns="http://www.w3.org/2000/svg" viewBox="0 0 50 50">
  <defs>
    <style>
      .cls-1 {
        opacity: 0;
      }

      .cls-1, .cls-2, .cls-3 {
        stroke-width: 0px;
      }

      .cls-1, .cls-3 {
        fill: #fff;
      }

      .cls-2 {
        fill: #00d15f;
      }
    </style>
  </defs>
  <g id="Veeam_Service_Provider_Console" data-name="Veeam Service  Provider Console">
    <rect id="BG" class="cls-1" width="50" height="50"/>
    <path class="cls-2" d="M33.19,8H10c-1.1,0-2,.9-2,2v30c0,1.1.9,2,2,2h30c1.1,0,2-.9,2-2v-23.19c0-.53-.21-1.04-.59-1.41l-6.81-6.81c-.38-.38-.88-.59-1.41-.59Z"/>
    <path class="cls-3" d="M33.69,25.5c1.41-1.26,2.31-3.09,2.31-5.13,0-3.79-3.07-6.87-6.86-6.87-3.52,0-6.42,2.66-6.81,6.08-1.02-.6-2.21-.95-3.47-.95-3.79,0-6.86,3.07-6.86,6.87s3.07,6.87,6.86,6.87c1.27,0,2.46-.35,3.47-.95.39,3.42,3.29,6.08,6.81,6.08,3.79,0,6.86-3.07,6.86-6.87,0-2.04-.89-3.88-2.31-5.13ZM27.67,27.53c1.6-.75,3.53-.17,4.42,1.39.95,1.64.38,3.74-1.25,4.69-1.64.95-3.74.39-4.68-1.26-.7-1.21-.58-2.67.19-3.73l-1.89-2.27h-2.3c-.22.86-.78,1.63-1.6,2.11-1.64.95-3.74.39-4.68-1.26-.95-1.64-.38-3.74,1.25-4.69,1.64-.95,3.74-.39,4.68,1.26.16.28.27.56.35.86h2.3l1.89-2.27c-.07-.09-.13-.19-.19-.29-.95-1.64-.38-3.74,1.25-4.69,1.64-.95,3.74-.39,4.68,1.26.95,1.64.38,3.74-1.25,4.69-1.01.58-2.2.59-3.18.13l-1.69,2.03,1.69,2.03Z"/>
  </g>
</svg>