<?xml version="1.0" encoding="UTF-8"?>
<svg id="Veeam_product_4" data-name="Veeam product 4" xmlns="http://www.w3.org/2000/svg" viewBox="0 0 50 50">
  <defs>
    <style>
      .cls-1 {
        fill: #505861;
      }

      .cls-1, .cls-2, .cls-3 {
        stroke-width: 0px;
      }

      .cls-2 {
        opacity: 0;
      }

      .cls-2, .cls-3 {
        fill: #fff;
      }
    </style>
  </defs>
  <g id="WAN_accelerator" data-name="WAN accelerator">
    <rect id="BG" class="cls-2" width="50" height="50"/>
    <path class="cls-1" d="M32.13,10H12c-1.1,0-2,.9-2,2v26c0,1.1.9,2,2,2h26c1.1,0,2-.9,2-2v-20.13c0-.53-.21-1.04-.59-1.41l-5.87-5.87c-.38-.38-.88-.59-1.41-.59Z"/>
    <path class="cls-3" d="M23.56,16.5c2.27,0,4.2,1.34,4.93,3.21.24.61.83,1.04,1.53,1.04h.05c2.89,0,5.37,2.1,5.42,4.78.05,2.73-2.32,4.97-5.25,4.97h-10.35c-2.81,0-5.24-2-5.39-4.61-.12-2.08,1.16-3.89,3.05-4.69.44-.19.79-.55.91-.99.56-2.13,2.63-3.71,5.1-3.71M23.56,15c-3.1,0-5.78,1.98-6.54,4.81,0,0,0,0,0,0,0,0-.02.01-.05.02-2.56,1.09-4.11,3.51-3.96,6.16.19,3.38,3.22,6.02,6.89,6.02h10.35c1.88,0,3.68-.75,4.96-2.04,1.19-1.21,1.83-2.79,1.79-4.45-.07-3.45-3.17-6.25-6.92-6.25-.15,0-.18-.07-.18-.08-.97-2.49-3.52-4.17-6.33-4.17h0Z"/>
    <g>
      <circle class="cls-3" cx="25.25" cy="31" r="2.5"/>
      <path class="cls-1" d="M25.25,29.25c.97,0,1.75.78,1.75,1.75s-.78,1.75-1.75,1.75-1.75-.78-1.75-1.75.78-1.75,1.75-1.75M25.25,27.75c-1.79,0-3.25,1.46-3.25,3.25s1.46,3.25,3.25,3.25,3.25-1.46,3.25-3.25-1.46-3.25-3.25-3.25h0Z"/>
    </g>
    <rect class="cls-3" x="27.08" y="22.17" width="1.5" height="9.55" transform="translate(18.54 -10.66) rotate(32.05)"/>
  </g>
</svg>