<?xml version="1.0" encoding="UTF-8"?>
<svg id="Data_Center" data-name="Data Center" xmlns="http://www.w3.org/2000/svg" viewBox="0 0 50 50">
  <defs>
    <style>
      .cls-1 {
        fill: #00cf5f;
      }

      .cls-1, .cls-2 {
        stroke-width: 0px;
      }

      .cls-2 {
        fill: #fff;
      }
    </style>
  </defs>
  <g id="Amazon_EKS" data-name="Amazon EKS">
    <rect class="cls-1" x="8" y="8" width="34" height="34" rx="2" ry="2"/>
  </g>
  <path class="cls-2" d="M33.1,16.88c-4.48-4.47-11.73-4.46-16.2.02-4.48,4.48-4.48,11.72-.02,16.2,2.15,2.15,5.07,3.36,8.11,3.36s5.96-1.2,8.12-3.36c2.15-2.15,3.36-5.07,3.36-8.11s-1.21-5.96-3.36-8.12h0ZM34.34,23.96l-4.93-4.48-5.06,4.77-2.65,2.49v-3.72l4.03-3.82,3-2.85c3.1,1.35,5.24,4.24,5.61,7.6h0ZM34.25,26.67c-.17.99-.51,1.94-.99,2.81l-2.81-2.56v-3.72l3.8,3.47ZM26.43,15.7l-2.12,2.01-2.62,2.48v-4c1.52-.57,3.15-.74,4.74-.49h0ZM19.62,26.81l-3.9-3.5c.18-1.01.53-1.97,1.02-2.86l2.88,2.57v3.79ZM19.62,17.27v2.98l-1.67-1.5c.5-.57,1.05-1.07,1.67-1.49h0ZM15.63,25.99l5.06,4.54,7.71-7.25v3.66l-7.12,6.71c-3.13-1.35-5.28-4.27-5.65-7.66h0ZM23.58,34.31l4.81-4.55v4.01c-1.09.42-2.23.63-3.4.63-.46,0-.94-.03-1.41-.1h0ZM30.45,32.66v-2.97l1.64,1.49c-.49.56-1.04,1.07-1.64,1.49h0Z"/>
</svg>