<?xml version="1.0" encoding="UTF-8"?>
<svg id="datastores" xmlns="http://www.w3.org/2000/svg" viewBox="0 0 50 50">
  <defs>
    <style>
      .cls-1 {
        opacity: 0;
      }

      .cls-1, .cls-2, .cls-3, .cls-4, .cls-5 {
        stroke-width: 0px;
      }

      .cls-1, .cls-2, .cls-4 {
        fill: #fff;
      }

      .cls-2 {
        fill-rule: evenodd;
      }

      .cls-3 {
        fill: #00d15f;
      }

      .cls-5 {
        fill: #505861;
      }
    </style>
  </defs>
  <g id="Windows_Repository" data-name="Windows Repository">
    <rect id="BG" class="cls-1" width="50" height="50"/>
    <g id="Backup_Repository" data-name="Backup Repository">
      <g>
        <rect class="cls-5" x="6" y="6" width="29" height="8.5" rx="1" ry="1"/>
        <rect class="cls-5" x="6" y="19.5" width="29" height="8.5" rx="1" ry="1"/>
        <rect class="cls-5" x="6" y="33" width="29" height="8.5" rx="1" ry="1"/>
        <rect class="cls-5" x="8" y="16" width="25" height="2" rx="1" ry="1"/>
        <rect class="cls-5" x="8" y="29.5" width="25" height="2" rx="1" ry="1"/>
      </g>
    </g>
    <g>
      <rect class="cls-3" x="22.25" y="22.25" width="23.5" height="23.5" rx="2.85" ry="2.85"/>
      <path class="cls-4" d="M42.9,23c1.16,0,2.1.94,2.1,2.1v17.81c0,1.16-.94,2.1-2.1,2.1h-17.81c-1.16,0-2.1-.94-2.1-2.1v-17.81c0-1.16.94-2.1,2.1-2.1h17.81M42.9,21.5h-17.81c-1.98,0-3.6,1.61-3.6,3.6v17.81c0,1.98,1.61,3.6,3.6,3.6h17.81c1.98,0,3.6-1.61,3.6-3.6v-17.81c0-1.98-1.61-3.6-3.6-3.6h0Z"/>
    </g>
    <g>
      <polygon class="cls-2" points="40.5 33.08 33.04 33.16 33.04 27.93 40.5 26.37 40.5 33.08"/>
      <polygon class="cls-2" points="31.9 33.18 27.21 33.22 27.21 29.01 31.9 28.05 31.9 33.18"/>
      <polygon class="cls-2" points="31.9 34.36 31.9 39.33 27.21 38.36 27.21 34.31 31.9 34.36"/>
      <polygon class="cls-2" points="33.04 34.37 40.5 34.46 40.5 41 33.04 39.46 33.04 34.37"/>
    </g>
  </g>
</svg>