<?xml version="1.0" encoding="UTF-8"?>
<svg id="Data_Center" data-name="Data Center" xmlns="http://www.w3.org/2000/svg" viewBox="0 0 50 50">
  <defs>
    <style>
      .cls-1 {
        fill: none;
        stroke: #fff;
        stroke-miterlimit: 10;
        stroke-width: 1.5px;
      }

      .cls-2 {
        opacity: 0;
      }

      .cls-2, .cls-3 {
        fill: #fff;
      }

      .cls-2, .cls-3, .cls-4 {
        stroke-width: 0px;
      }

      .cls-4 {
        fill: #505861;
      }
    </style>
  </defs>
  <g id="Workstation">
    <rect id="BG" class="cls-2" y="0" width="50" height="50"/>
    <g>
      <g>
        <path class="cls-4" d="M21.58,5.5H4.5c-1.1,0-2,.9-2,2v35.5c0,1.1.9,2,2,2h22c1.1,0,2-.9,2-2V12.4c0-.53-.21-1.04-.59-1.42l-4.92-4.9c-.37-.37-.88-.58-1.41-.58Z"/>
        <g id="lines">
          <g>
            <line class="cls-1" x1="6.5" y1="19" x2="17.5" y2="19"/>
            <line class="cls-1" x1="20.5" y1="19" x2="24.5" y2="19"/>
          </g>
          <g>
            <line class="cls-1" x1="6.5" y1="24" x2="17.5" y2="24"/>
            <line class="cls-1" x1="20.5" y1="24" x2="24.5" y2="24"/>
          </g>
          <g>
            <line class="cls-1" x1="6.5" y1="29" x2="17.5" y2="29"/>
            <line class="cls-1" x1="20.5" y1="29" x2="24.5" y2="29"/>
          </g>
        </g>
      </g>
      <g id="line">
        <path class="cls-3" d="M45.5,16.5c1.1,0,2,.9,2,2v19c0,1.1-.9,2-2,2H15.5c-1.1,0-2-.9-2-2v-19c0-1.1.9-2,2-2h30M45.5,15H15.5c-1.93,0-3.5,1.57-3.5,3.5v19c0,1.93,1.57,3.5,3.5,3.5h30c1.93,0,3.5-1.57,3.5-3.5v-19c0-1.93-1.57-3.5-3.5-3.5h0Z"/>
      </g>
      <g>
        <g>
          <path class="cls-4" d="M19.36,45.75v-1.31c0-.93.76-1.69,1.69-1.69h5.19v-5.11h8.5v5.11h5.19c.93,0,1.69.76,1.69,1.69v1.31h-22.28Z"/>
          <path class="cls-3" d="M34,38.39v5.11h5.94c.52,0,.94.42.94.94v.56h-20.78v-.56c0-.52.42-.94.94-.94h5.94v-5.11h7M35.5,36.89h-10v5.11h-4.44c-1.35,0-2.44,1.1-2.44,2.44v2.06h23.78v-2.06c0-1.35-1.1-2.44-2.44-2.44h-4.44v-5.11h0Z"/>
        </g>
        <g>
          <rect class="cls-3" x="14.25" y="17.25" width="32.5" height="21.5" rx="1.25" ry="1.25"/>
          <path class="cls-4" d="M45.5,18c.28,0,.5.22.5.5v19c0,.28-.22.5-.5.5H15.5c-.28,0-.5-.22-.5-.5v-19c0-.28.22-.5.5-.5h30M45.5,16.5H15.5c-1.1,0-2,.9-2,2v19c0,1.1.9,2,2,2h30c1.1,0,2-.9,2-2v-19c0-1.1-.9-2-2-2h0Z"/>
        </g>
      </g>
    </g>
  </g>
</svg>